M48
;Layer_Color=9474304
;FILE_FORMAT=4:4
METRIC,LZ
;TYPE=PLATED
T01F00S00C0.1500
%
T01
X0001Y00019
X000435Y0003325
X00064Y00039
X0006075Y0001125
X00053793Y000655
X00054Y000755
Y00087575
Y00093925
X000535Y001005
X0005327Y0013
X000385Y00142539
X00103Y00135
X00125Y00141
X0013175Y001305
X00142Y00128
X00141971Y0011899
X00142Y00105
X00133Y00109
X00123339Y0010925
X00113Y00103
X0012Y00092
X00126Y00088
X00138Y00078701
Y00072351
X00137Y0006
Y00052
X00117Y0005
X00125Y0001773
X00105003Y00079289
X0008025Y0008825
X0002775Y0007725
X00142Y00139355
X001665Y001295
X0018446Y00127981
X00193Y00128
X00201776Y00127776
X00201927Y00105
X0021Y0009325
X00216Y00093
X00224703Y00104297
X00213203Y00116203
X00237Y00128
X00239Y00093
X00240745Y00054
X0023425Y00036
X00234Y00029
X002015Y00046
X00194Y00044
X00196Y00052
X00187
X0018Y00028
X0017Y00027
X00156905Y00041
X0015325Y000085
X00159Y0008175
X0016675Y00082066
X00160224Y00090526
X00187Y00093
X00198974Y00083026
X00262974Y00067026
X00273Y00059
X0027675Y0001475
X002625Y00165
X0022Y00164
X00205Y0016373
X0019Y00164
X001475Y0016373
X00138Y00161
X00138396Y00154254
X000825Y0015825
X00028Y00148
X0001Y00144
M30
