G04*
G04 #@! TF.GenerationSoftware,Altium Limited,Altium Designer,25.8.1 (18)*
G04*
G04 Layer_Color=16711935*
%FSLAX44Y44*%
%MOMM*%
G71*
G04*
G04 #@! TF.SameCoordinates,21D81E98-52A8-4FCB-A247-477666DB80DC*
G04*
G04*
G04 #@! TF.FilePolarity,Positive*
G04*
G01*
G75*
%ADD10C,0.1000*%
%ADD11C,0.1270*%
%ADD12C,0.2000*%
G36*
X91192Y143769D02*
X95969D01*
Y137290D01*
X91192D01*
Y143769D01*
D02*
G37*
G36*
X110192Y143782D02*
X115007D01*
Y137290D01*
X110192D01*
Y143782D01*
D02*
G37*
G36*
X91192Y163316D02*
X95978D01*
Y156790D01*
X91192D01*
Y163316D01*
D02*
G37*
G36*
X106092Y163334D02*
X115032D01*
Y156790D01*
X106092D01*
Y163334D01*
D02*
G37*
D10*
X76250Y116350D02*
Y126850D01*
X81750Y116350D02*
Y126850D01*
X76250Y116350D02*
X81750D01*
X76250Y126850D02*
X81750D01*
X60989Y116557D02*
X66489D01*
X60989Y127057D02*
X66489D01*
X60989Y116557D02*
Y127057D01*
X66489Y116557D02*
Y127057D01*
X254811Y40986D02*
Y46486D01*
X244311Y40986D02*
Y46486D01*
Y40986D02*
X254811D01*
X244311Y46486D02*
X254811D01*
X214782Y25736D02*
Y35736D01*
X224782D01*
Y25736D02*
Y35736D01*
X214782Y25736D02*
X224782D01*
X243000Y23500D02*
X253000D01*
X243000Y18500D02*
Y23500D01*
Y18500D02*
X253000D01*
Y23500D01*
X69750Y149750D02*
Y160250D01*
X75250Y149750D02*
Y160250D01*
X69750Y149750D02*
X75250D01*
X69750Y160250D02*
X75250D01*
X91000Y121500D02*
X107000D01*
X91000Y101500D02*
Y121500D01*
Y101500D02*
X107000D01*
Y121500D01*
D11*
X118092Y143290D02*
Y157290D01*
X88092D02*
X118092D01*
X88092Y143290D02*
Y157290D01*
Y143290D02*
X118092D01*
D12*
X144453Y60526D02*
Y160526D01*
Y60526D02*
X294453D01*
Y160526D01*
X144453D02*
X294453D01*
X117854Y122500D02*
Y127500D01*
Y122500D02*
X127854D01*
Y127500D01*
X117854D02*
X127854D01*
X117854Y99903D02*
Y104903D01*
Y99903D02*
X127854D01*
Y104903D01*
X117854D02*
X127854D01*
X277547Y37736D02*
Y42736D01*
X267547D02*
X277547D01*
X267547Y37736D02*
Y42736D01*
Y37736D02*
X277547D01*
X116217Y76788D02*
Y82288D01*
Y76788D02*
X126717D01*
Y82288D01*
X116217D02*
X126717D01*
X185250Y21250D02*
X194750D01*
Y38750D01*
X185250D02*
X194750D01*
X185250Y21250D02*
Y38750D01*
X133250Y31250D02*
X138750D01*
X133250Y20750D02*
Y31250D01*
Y20750D02*
X138750D01*
Y31250D01*
X172500Y17500D02*
Y22500D01*
X162500D02*
X172500D01*
X162500Y17500D02*
Y22500D01*
Y17500D02*
X172500D01*
X173811Y37736D02*
Y42736D01*
X163811D02*
X173811D01*
X163811Y37736D02*
Y42736D01*
Y37736D02*
X173811D01*
X117854Y57500D02*
Y62500D01*
Y57500D02*
X127854D01*
Y62500D01*
X117854D02*
X127854D01*
X267963Y18710D02*
X277963D01*
X267963D02*
Y23710D01*
X277963D01*
Y18710D02*
Y23710D01*
X66707Y98698D02*
X76707D01*
X66707D02*
Y103698D01*
X76707D01*
Y98698D02*
Y103698D01*
X84250Y15742D02*
Y35742D01*
X71750Y15742D02*
X84250D01*
X71750D02*
Y35742D01*
X84250D01*
X20255Y9960D02*
X48255D01*
X20255D02*
Y28960D01*
X48255D01*
Y9960D02*
Y28960D01*
X91185Y60000D02*
Y80000D01*
X76185D02*
X91185D01*
X76185Y60000D02*
Y80000D01*
Y60000D02*
X91185D01*
X-12801Y128000D02*
X-6801D01*
X-12801Y47000D02*
Y128000D01*
Y47000D02*
X-6801D01*
Y128000D01*
Y125000D02*
X43199D01*
X-6801Y50000D02*
Y125000D01*
Y50000D02*
X43199D01*
Y125000D01*
X15500Y164000D02*
X49500D01*
Y146000D02*
Y164000D01*
X15500Y146000D02*
X49500D01*
X15500D02*
Y164000D01*
X114250Y15742D02*
Y35742D01*
X101750Y15742D02*
X114250D01*
X101750D02*
Y35742D01*
X114250D01*
M02*
