G04*
G04 #@! TF.GenerationSoftware,Altium Limited,Altium Designer,25.8.1 (18)*
G04*
G04 Layer_Color=10085887*
%FSLAX44Y44*%
%MOMM*%
G71*
G04*
G04 #@! TF.SameCoordinates,21D81E98-52A8-4FCB-A247-477666DB80DC*
G04*
G04*
G04 #@! TF.FilePolarity,Positive*
G04*
G01*
G75*
%ADD10C,0.1000*%
%ADD11C,0.1270*%
%ADD12C,0.2000*%
%ADD13C,0.2500*%
%ADD14C,0.2540*%
G36*
X149444Y121592D02*
X149287Y121527D01*
X149139Y121435D01*
X148991Y121342D01*
X148862Y121250D01*
X148751Y121166D01*
X148668Y121093D01*
X148612Y121046D01*
X148603Y121037D01*
X148594Y121028D01*
X148436Y120871D01*
X148298Y120714D01*
X148168Y120566D01*
X148067Y120418D01*
X147983Y120297D01*
X147919Y120196D01*
X147891Y120159D01*
X147872Y120140D01*
X147863Y120122D01*
Y120112D01*
X147114D01*
X147170Y120233D01*
X147234Y120344D01*
X147299Y120464D01*
X147364Y120566D01*
X147419Y120658D01*
X147466Y120723D01*
X147503Y120769D01*
X147512Y120787D01*
X147614Y120917D01*
X147715Y121037D01*
X147808Y121139D01*
X147882Y121222D01*
X147956Y121287D01*
X148002Y121342D01*
X148039Y121370D01*
X148048Y121379D01*
X143102D01*
Y122008D01*
X149444D01*
Y121592D01*
D02*
G37*
G36*
X149518Y118827D02*
X143000Y117320D01*
Y117829D01*
X149518Y119336D01*
Y118827D01*
D02*
G37*
G36*
X146532Y116951D02*
X146828Y116941D01*
X147105Y116913D01*
X147355Y116877D01*
X147586Y116840D01*
X147799Y116793D01*
X147993Y116747D01*
X148159Y116701D01*
X148307Y116655D01*
X148427Y116608D01*
X148538Y116562D01*
X148621Y116525D01*
X148695Y116488D01*
X148742Y116461D01*
X148769Y116451D01*
X148778Y116442D01*
X148899Y116359D01*
X149000Y116266D01*
X149084Y116174D01*
X149167Y116081D01*
X149232Y115980D01*
X149278Y115887D01*
X149324Y115786D01*
X149361Y115693D01*
X149407Y115527D01*
X149426Y115453D01*
X149435Y115388D01*
X149444Y115342D01*
Y115268D01*
X149435Y115120D01*
X149407Y114972D01*
X149370Y114843D01*
X149315Y114722D01*
X149250Y114611D01*
X149185Y114500D01*
X149111Y114408D01*
X149037Y114325D01*
X148954Y114251D01*
X148880Y114186D01*
X148815Y114131D01*
X148751Y114094D01*
X148695Y114057D01*
X148658Y114029D01*
X148631Y114020D01*
X148621Y114010D01*
X148464Y113936D01*
X148288Y113872D01*
X148094Y113816D01*
X147900Y113761D01*
X147503Y113687D01*
X147309Y113659D01*
X147114Y113641D01*
X146929Y113622D01*
X146763Y113604D01*
X146615Y113594D01*
X146476D01*
X146365Y113585D01*
X146292D01*
X146236D01*
X146227D01*
X146217D01*
X145894Y113594D01*
X145598Y113604D01*
X145330Y113631D01*
X145080Y113659D01*
X144849Y113696D01*
X144646Y113733D01*
X144461Y113770D01*
X144304Y113816D01*
X144165Y113862D01*
X144045Y113899D01*
X143943Y113936D01*
X143860Y113973D01*
X143795Y114001D01*
X143758Y114029D01*
X143730Y114038D01*
X143721Y114047D01*
X143592Y114140D01*
X143481Y114232D01*
X143388Y114334D01*
X143305Y114436D01*
X143231Y114537D01*
X143176Y114639D01*
X143130Y114741D01*
X143092Y114833D01*
X143037Y115009D01*
X143019Y115083D01*
X143009Y115148D01*
Y115194D01*
X143000Y115231D01*
Y115268D01*
X143009Y115416D01*
X143037Y115564D01*
X143074Y115693D01*
X143130Y115813D01*
X143185Y115924D01*
X143259Y116035D01*
X143333Y116128D01*
X143407Y116211D01*
X143481Y116285D01*
X143555Y116350D01*
X143629Y116405D01*
X143684Y116442D01*
X143740Y116479D01*
X143777Y116507D01*
X143804Y116516D01*
X143814Y116525D01*
X143980Y116599D01*
X144156Y116673D01*
X144341Y116729D01*
X144535Y116775D01*
X144932Y116858D01*
X145136Y116886D01*
X145321Y116904D01*
X145506Y116923D01*
X145672Y116941D01*
X145829Y116951D01*
X145959D01*
X146070Y116960D01*
X146153D01*
X146199D01*
X146217D01*
X146532Y116951D01*
D02*
G37*
G36*
X144812Y110275D02*
X144979Y110183D01*
X145126Y110090D01*
X145265Y109998D01*
X145385Y109915D01*
X145478Y109841D01*
X145552Y109785D01*
X145598Y109748D01*
X145617Y109730D01*
X145681Y109665D01*
X145746Y109600D01*
X145857Y109462D01*
X145903Y109397D01*
X145940Y109351D01*
X145959Y109314D01*
X145968Y109304D01*
X146023Y109554D01*
X146107Y109767D01*
X146199Y109952D01*
X146292Y110109D01*
X146384Y110220D01*
X146458Y110312D01*
X146513Y110358D01*
X146523Y110377D01*
X146532D01*
X146707Y110506D01*
X146902Y110599D01*
X147096Y110663D01*
X147281Y110710D01*
X147438Y110737D01*
X147512Y110747D01*
X147567D01*
X147623Y110756D01*
X147660D01*
X147678D01*
X147688D01*
X147882Y110747D01*
X148067Y110719D01*
X148233Y110682D01*
X148372Y110645D01*
X148483Y110608D01*
X148566Y110571D01*
X148621Y110543D01*
X148640Y110534D01*
X148788Y110451D01*
X148908Y110349D01*
X149010Y110257D01*
X149093Y110174D01*
X149158Y110090D01*
X149195Y110026D01*
X149222Y109989D01*
X149232Y109970D01*
X149296Y109822D01*
X149342Y109656D01*
X149370Y109480D01*
X149398Y109314D01*
X149407Y109157D01*
Y109082D01*
X149417Y109027D01*
Y106614D01*
X143102D01*
Y107298D01*
X145903D01*
Y108204D01*
X145885Y108315D01*
X145875Y108408D01*
X145857Y108482D01*
X145838Y108537D01*
X145820Y108583D01*
X145811Y108611D01*
X145801Y108620D01*
X145755Y108694D01*
X145709Y108768D01*
X145589Y108888D01*
X145533Y108944D01*
X145487Y108981D01*
X145450Y109009D01*
X145441Y109018D01*
X145385Y109055D01*
X145321Y109101D01*
X145173Y109193D01*
X144997Y109295D01*
X144831Y109397D01*
X144664Y109480D01*
X144590Y109517D01*
X144535Y109554D01*
X144479Y109582D01*
X144442Y109600D01*
X144415Y109619D01*
X144405D01*
X143102Y110312D01*
Y111181D01*
X144812Y110275D01*
D02*
G37*
G36*
X146597Y105652D02*
X146865Y105634D01*
X147114Y105597D01*
X147225Y105578D01*
X147327Y105569D01*
X147419Y105551D01*
X147493Y105532D01*
X147567Y105514D01*
X147623Y105495D01*
X147669Y105486D01*
X147706Y105477D01*
X147725Y105468D01*
X147734D01*
X147956Y105393D01*
X148150Y105310D01*
X148326Y105227D01*
X148464Y105144D01*
X148584Y105061D01*
X148668Y105005D01*
X148723Y104968D01*
X148742Y104950D01*
X148880Y104820D01*
X149000Y104691D01*
X149093Y104561D01*
X149176Y104441D01*
X149232Y104330D01*
X149269Y104247D01*
X149287Y104192D01*
X149296Y104182D01*
Y104173D01*
X149333Y104034D01*
X149370Y103868D01*
X149389Y103702D01*
X149398Y103544D01*
X149407Y103397D01*
X149417Y103332D01*
Y101381D01*
X143102D01*
Y103249D01*
X143111Y103535D01*
X143148Y103785D01*
X143194Y104007D01*
X143222Y104099D01*
X143259Y104192D01*
X143287Y104266D01*
X143314Y104340D01*
X143333Y104395D01*
X143361Y104441D01*
X143379Y104487D01*
X143398Y104515D01*
X143407Y104524D01*
Y104534D01*
X143471Y104626D01*
X143546Y104709D01*
X143703Y104876D01*
X143878Y105014D01*
X144054Y105125D01*
X144220Y105218D01*
X144285Y105255D01*
X144350Y105292D01*
X144396Y105320D01*
X144433Y105329D01*
X144461Y105347D01*
X144470D01*
X144766Y105449D01*
X145071Y105532D01*
X145376Y105588D01*
X145663Y105625D01*
X145792Y105634D01*
X145912Y105643D01*
X146023Y105652D01*
X146116Y105662D01*
X146190D01*
X146245D01*
X146282D01*
X146292D01*
X146597Y105652D01*
D02*
G37*
G36*
X149417Y98727D02*
Y97997D01*
X143102Y96000D01*
Y96712D01*
X145006Y97276D01*
Y99467D01*
X143102Y100059D01*
Y100845D01*
X149417Y98727D01*
D02*
G37*
G36*
X289956Y52350D02*
X290113Y52322D01*
X290252Y52304D01*
X290381Y52267D01*
X290492Y52230D01*
X290603Y52193D01*
X290695Y52156D01*
X290779Y52110D01*
X290853Y52073D01*
X290917Y52036D01*
X290963Y51999D01*
X291000Y51971D01*
X291037Y51953D01*
X291047Y51943D01*
X291056Y51934D01*
X291139Y51842D01*
X291213Y51749D01*
X291278Y51647D01*
X291333Y51536D01*
X291416Y51324D01*
X291472Y51120D01*
X291509Y50926D01*
X291518Y50852D01*
X291527Y50778D01*
X291537Y50723D01*
Y50640D01*
X291527Y50436D01*
X291500Y50251D01*
X291463Y50085D01*
X291416Y49937D01*
X291380Y49817D01*
X291343Y49734D01*
X291315Y49678D01*
X291306Y49660D01*
X291213Y49512D01*
X291102Y49382D01*
X290991Y49281D01*
X290889Y49188D01*
X290788Y49123D01*
X290714Y49077D01*
X290658Y49049D01*
X290649Y49040D01*
X290640D01*
X290455Y48975D01*
X290261Y48920D01*
X290048Y48883D01*
X289845Y48864D01*
X289669Y48846D01*
X289595D01*
X289521Y48837D01*
X289466D01*
X289429D01*
X289401D01*
X289392D01*
X285028D01*
Y49687D01*
X289438D01*
X289632D01*
X289799Y49706D01*
X289937Y49715D01*
X290048Y49734D01*
X290131Y49752D01*
X290196Y49761D01*
X290233Y49780D01*
X290242D01*
X290335Y49817D01*
X290409Y49863D01*
X290473Y49918D01*
X290538Y49965D01*
X290575Y50020D01*
X290612Y50057D01*
X290631Y50085D01*
X290640Y50094D01*
X290686Y50187D01*
X290723Y50279D01*
X290742Y50371D01*
X290760Y50455D01*
X290769Y50538D01*
X290779Y50593D01*
Y50649D01*
X290769Y50797D01*
X290732Y50936D01*
X290695Y51046D01*
X290640Y51148D01*
X290594Y51222D01*
X290547Y51278D01*
X290520Y51315D01*
X290510Y51324D01*
X290455Y51370D01*
X290390Y51407D01*
X290242Y51462D01*
X290076Y51518D01*
X289909Y51546D01*
X289752Y51573D01*
X289688D01*
X289632Y51583D01*
X289577Y51592D01*
X289540D01*
X289521D01*
X289512D01*
X289623Y52359D01*
X289799D01*
X289956Y52350D01*
D02*
G37*
G36*
X291426Y43641D02*
X290667D01*
Y46793D01*
X290510Y46683D01*
X290446Y46627D01*
X290381Y46581D01*
X290326Y46535D01*
X290289Y46498D01*
X290261Y46470D01*
X290252Y46461D01*
X290205Y46414D01*
X290159Y46359D01*
X290039Y46230D01*
X289900Y46082D01*
X289762Y45924D01*
X289641Y45776D01*
X289586Y45712D01*
X289530Y45656D01*
X289493Y45610D01*
X289466Y45573D01*
X289447Y45554D01*
X289438Y45545D01*
X289308Y45397D01*
X289188Y45249D01*
X289068Y45120D01*
X288966Y45000D01*
X288865Y44889D01*
X288772Y44796D01*
X288689Y44704D01*
X288615Y44630D01*
X288541Y44556D01*
X288486Y44500D01*
X288439Y44454D01*
X288393Y44408D01*
X288338Y44362D01*
X288319Y44343D01*
X288162Y44214D01*
X288023Y44103D01*
X287885Y44011D01*
X287774Y43937D01*
X287672Y43881D01*
X287598Y43844D01*
X287552Y43826D01*
X287533Y43816D01*
X287395Y43761D01*
X287256Y43724D01*
X287127Y43687D01*
X287015Y43668D01*
X286914Y43659D01*
X286840Y43650D01*
X286794D01*
X286775D01*
X286637Y43659D01*
X286507Y43678D01*
X286378Y43696D01*
X286267Y43733D01*
X286045Y43826D01*
X285869Y43918D01*
X285786Y43973D01*
X285721Y44020D01*
X285656Y44066D01*
X285610Y44112D01*
X285573Y44149D01*
X285536Y44168D01*
X285527Y44186D01*
X285518Y44195D01*
X285425Y44297D01*
X285342Y44408D01*
X285277Y44528D01*
X285222Y44648D01*
X285129Y44889D01*
X285065Y45129D01*
X285046Y45231D01*
X285028Y45333D01*
X285019Y45425D01*
X285009Y45499D01*
X285000Y45564D01*
Y45656D01*
X285009Y45823D01*
X285019Y45980D01*
X285046Y46128D01*
X285074Y46266D01*
X285111Y46396D01*
X285148Y46516D01*
X285194Y46627D01*
X285240Y46729D01*
X285287Y46821D01*
X285333Y46895D01*
X285370Y46960D01*
X285407Y47015D01*
X285434Y47062D01*
X285462Y47089D01*
X285471Y47108D01*
X285481Y47117D01*
X285573Y47210D01*
X285675Y47293D01*
X285786Y47376D01*
X285897Y47441D01*
X286119Y47552D01*
X286341Y47626D01*
X286442Y47653D01*
X286544Y47681D01*
X286627Y47699D01*
X286701Y47718D01*
X286766Y47727D01*
X286812D01*
X286840Y47737D01*
X286849D01*
X286932Y46932D01*
X286720Y46914D01*
X286535Y46877D01*
X286368Y46821D01*
X286239Y46757D01*
X286128Y46701D01*
X286054Y46645D01*
X286008Y46609D01*
X285989Y46590D01*
X285878Y46451D01*
X285795Y46303D01*
X285730Y46146D01*
X285693Y46008D01*
X285666Y45878D01*
X285656Y45767D01*
X285647Y45730D01*
Y45675D01*
X285656Y45481D01*
X285693Y45305D01*
X285749Y45157D01*
X285804Y45027D01*
X285869Y44926D01*
X285915Y44861D01*
X285952Y44815D01*
X285971Y44796D01*
X286100Y44686D01*
X286230Y44602D01*
X286359Y44538D01*
X286488Y44500D01*
X286590Y44473D01*
X286683Y44464D01*
X286738Y44454D01*
X286747D01*
X286757D01*
X286923Y44473D01*
X287099Y44510D01*
X287256Y44574D01*
X287404Y44639D01*
X287524Y44713D01*
X287626Y44778D01*
X287663Y44796D01*
X287691Y44815D01*
X287700Y44833D01*
X287709D01*
X287811Y44907D01*
X287912Y45000D01*
X288023Y45101D01*
X288134Y45212D01*
X288356Y45444D01*
X288578Y45675D01*
X288680Y45795D01*
X288772Y45897D01*
X288855Y45998D01*
X288929Y46082D01*
X288985Y46146D01*
X289031Y46202D01*
X289059Y46239D01*
X289068Y46248D01*
X289262Y46479D01*
X289447Y46692D01*
X289613Y46867D01*
X289752Y47006D01*
X289872Y47126D01*
X289956Y47210D01*
X290011Y47256D01*
X290020Y47274D01*
X290030D01*
X290187Y47404D01*
X290335Y47505D01*
X290483Y47598D01*
X290612Y47672D01*
X290723Y47727D01*
X290806Y47764D01*
X290862Y47783D01*
X290871Y47792D01*
X290880D01*
X290982Y47829D01*
X291074Y47847D01*
X291167Y47866D01*
X291250Y47875D01*
X291324Y47884D01*
X291380D01*
X291416D01*
X291426D01*
Y43641D01*
D02*
G37*
G36*
X42389Y93430D02*
X41631D01*
Y95538D01*
X35991D01*
Y96389D01*
X41631D01*
Y98497D01*
X42389D01*
Y93430D01*
D02*
G37*
G36*
X37970Y92737D02*
X38145Y92709D01*
X38303Y92663D01*
X38432Y92617D01*
X38543Y92561D01*
X38626Y92524D01*
X38672Y92487D01*
X38691Y92478D01*
X38830Y92367D01*
X38959Y92237D01*
X39070Y92099D01*
X39172Y91960D01*
X39246Y91840D01*
X39301Y91738D01*
X39320Y91701D01*
X39338Y91673D01*
X39347Y91655D01*
Y91646D01*
X39384Y91572D01*
X39412Y91479D01*
X39449Y91378D01*
X39486Y91267D01*
X39551Y91035D01*
X39615Y90795D01*
X39643Y90684D01*
X39671Y90582D01*
X39699Y90481D01*
X39717Y90398D01*
X39736Y90333D01*
X39745Y90277D01*
X39754Y90240D01*
Y90231D01*
X39800Y90046D01*
X39837Y89880D01*
X39883Y89732D01*
X39920Y89602D01*
X39967Y89482D01*
X40004Y89381D01*
X40041Y89288D01*
X40068Y89205D01*
X40105Y89140D01*
X40133Y89085D01*
X40152Y89048D01*
X40179Y89011D01*
X40207Y88965D01*
X40216Y88955D01*
X40309Y88872D01*
X40401Y88816D01*
X40494Y88770D01*
X40586Y88743D01*
X40660Y88724D01*
X40725Y88715D01*
X40762D01*
X40780D01*
X40928Y88733D01*
X41058Y88770D01*
X41169Y88826D01*
X41270Y88890D01*
X41344Y88946D01*
X41409Y89001D01*
X41446Y89038D01*
X41455Y89057D01*
X41501Y89131D01*
X41548Y89205D01*
X41622Y89381D01*
X41668Y89565D01*
X41705Y89750D01*
X41723Y89917D01*
X41733Y89991D01*
X41742Y90046D01*
Y90176D01*
X41733Y90435D01*
X41696Y90666D01*
X41640Y90851D01*
X41585Y91008D01*
X41529Y91128D01*
X41474Y91220D01*
X41437Y91267D01*
X41427Y91285D01*
X41298Y91414D01*
X41159Y91516D01*
X41011Y91600D01*
X40863Y91655D01*
X40725Y91692D01*
X40623Y91720D01*
X40577Y91729D01*
X40549Y91738D01*
X40531D01*
X40521D01*
X40586Y92552D01*
X40789Y92533D01*
X40974Y92487D01*
X41150Y92441D01*
X41298Y92376D01*
X41418Y92321D01*
X41511Y92274D01*
X41538Y92256D01*
X41566Y92237D01*
X41575Y92228D01*
X41585D01*
X41742Y92108D01*
X41880Y91979D01*
X42001Y91840D01*
X42093Y91701D01*
X42176Y91581D01*
X42223Y91489D01*
X42241Y91452D01*
X42260Y91424D01*
X42269Y91405D01*
Y91396D01*
X42343Y91193D01*
X42398Y90971D01*
X42445Y90767D01*
X42472Y90573D01*
X42491Y90398D01*
Y90333D01*
X42500Y90268D01*
Y90148D01*
X42491Y89908D01*
X42463Y89695D01*
X42426Y89492D01*
X42389Y89316D01*
X42352Y89177D01*
X42333Y89112D01*
X42315Y89066D01*
X42297Y89029D01*
X42287Y89001D01*
X42278Y88983D01*
Y88974D01*
X42186Y88789D01*
X42084Y88622D01*
X41973Y88484D01*
X41871Y88373D01*
X41779Y88289D01*
X41705Y88225D01*
X41649Y88179D01*
X41640Y88169D01*
X41631D01*
X41474Y88077D01*
X41316Y88012D01*
X41159Y87966D01*
X41021Y87938D01*
X40901Y87920D01*
X40808Y87901D01*
X40771D01*
X40743D01*
X40734D01*
X40725D01*
X40568Y87910D01*
X40420Y87938D01*
X40281Y87975D01*
X40161Y88012D01*
X40068Y88049D01*
X39994Y88086D01*
X39948Y88114D01*
X39930Y88123D01*
X39800Y88216D01*
X39680Y88327D01*
X39578Y88438D01*
X39495Y88548D01*
X39421Y88641D01*
X39375Y88724D01*
X39338Y88780D01*
X39329Y88789D01*
Y88798D01*
X39292Y88872D01*
X39255Y88955D01*
X39190Y89140D01*
X39125Y89353D01*
X39061Y89556D01*
X39005Y89741D01*
X38987Y89824D01*
X38968Y89898D01*
X38950Y89954D01*
X38940Y90000D01*
X38931Y90028D01*
Y90037D01*
X38894Y90194D01*
X38857Y90342D01*
X38820Y90471D01*
X38793Y90582D01*
X38765Y90693D01*
X38737Y90786D01*
X38719Y90869D01*
X38691Y90934D01*
X38672Y90998D01*
X38663Y91045D01*
X38635Y91119D01*
X38626Y91165D01*
X38617Y91174D01*
X38561Y91313D01*
X38497Y91433D01*
X38432Y91535D01*
X38376Y91609D01*
X38321Y91673D01*
X38284Y91710D01*
X38256Y91738D01*
X38247Y91747D01*
X38164Y91812D01*
X38071Y91858D01*
X37979Y91886D01*
X37905Y91914D01*
X37831Y91923D01*
X37775Y91932D01*
X37729D01*
X37720D01*
X37609Y91923D01*
X37507Y91905D01*
X37415Y91877D01*
X37341Y91840D01*
X37267Y91803D01*
X37221Y91775D01*
X37184Y91757D01*
X37174Y91747D01*
X37082Y91673D01*
X37008Y91581D01*
X36943Y91489D01*
X36879Y91405D01*
X36842Y91322D01*
X36805Y91257D01*
X36786Y91211D01*
X36777Y91193D01*
X36731Y91054D01*
X36694Y90906D01*
X36675Y90758D01*
X36657Y90629D01*
X36648Y90518D01*
X36638Y90425D01*
Y90342D01*
X36648Y90139D01*
X36666Y89954D01*
X36694Y89787D01*
X36731Y89639D01*
X36768Y89519D01*
X36795Y89427D01*
X36805Y89399D01*
X36814Y89371D01*
X36823Y89362D01*
Y89353D01*
X36897Y89205D01*
X36980Y89066D01*
X37064Y88965D01*
X37147Y88872D01*
X37211Y88798D01*
X37276Y88752D01*
X37313Y88724D01*
X37322Y88715D01*
X37443Y88650D01*
X37572Y88585D01*
X37711Y88548D01*
X37831Y88511D01*
X37951Y88484D01*
X38034Y88465D01*
X38071D01*
X38099Y88456D01*
X38108D01*
X38118D01*
X38044Y87661D01*
X37812Y87679D01*
X37591Y87716D01*
X37396Y87772D01*
X37221Y87837D01*
X37082Y87901D01*
X37027Y87929D01*
X36980Y87947D01*
X36943Y87975D01*
X36916Y87984D01*
X36897Y88003D01*
X36888D01*
X36712Y88142D01*
X36555Y88289D01*
X36426Y88447D01*
X36315Y88595D01*
X36231Y88724D01*
X36176Y88835D01*
X36158Y88872D01*
X36139Y88900D01*
X36130Y88918D01*
Y88927D01*
X36047Y89159D01*
X35982Y89399D01*
X35945Y89639D01*
X35908Y89871D01*
X35899Y89981D01*
X35889Y90074D01*
Y90157D01*
X35880Y90231D01*
Y90379D01*
X35889Y90629D01*
X35917Y90860D01*
X35963Y91073D01*
X36010Y91248D01*
X36047Y91396D01*
X36074Y91461D01*
X36093Y91516D01*
X36111Y91553D01*
X36121Y91581D01*
X36130Y91600D01*
Y91609D01*
X36231Y91803D01*
X36342Y91969D01*
X36463Y92117D01*
X36574Y92237D01*
X36666Y92330D01*
X36749Y92395D01*
X36805Y92441D01*
X36814Y92450D01*
X36823D01*
X36999Y92552D01*
X37165Y92626D01*
X37322Y92672D01*
X37470Y92709D01*
X37600Y92727D01*
X37701Y92746D01*
X37738D01*
X37766D01*
X37775D01*
X37785D01*
X37970Y92737D01*
D02*
G37*
G36*
X37729Y86024D02*
X37914Y85895D01*
X38081Y85775D01*
X38219Y85654D01*
X38349Y85553D01*
X38441Y85460D01*
X38515Y85386D01*
X38561Y85340D01*
X38580Y85322D01*
X38635Y85248D01*
X38700Y85164D01*
X38802Y84998D01*
X38839Y84924D01*
X38876Y84869D01*
X38894Y84832D01*
X38903Y84813D01*
X38931Y84980D01*
X38959Y85137D01*
X39005Y85275D01*
X39042Y85414D01*
X39088Y85534D01*
X39144Y85645D01*
X39190Y85747D01*
X39236Y85840D01*
X39292Y85913D01*
X39338Y85987D01*
X39375Y86043D01*
X39412Y86089D01*
X39440Y86126D01*
X39467Y86154D01*
X39477Y86163D01*
X39486Y86172D01*
X39578Y86246D01*
X39671Y86320D01*
X39865Y86431D01*
X40059Y86505D01*
X40244Y86561D01*
X40401Y86598D01*
X40466Y86607D01*
X40531D01*
X40577Y86616D01*
X40614D01*
X40632D01*
X40642D01*
X40836Y86607D01*
X41011Y86579D01*
X41178Y86533D01*
X41316Y86487D01*
X41437Y86431D01*
X41529Y86394D01*
X41585Y86357D01*
X41594Y86348D01*
X41603D01*
X41751Y86237D01*
X41880Y86126D01*
X41992Y86006D01*
X42075Y85895D01*
X42139Y85793D01*
X42176Y85710D01*
X42204Y85654D01*
X42213Y85645D01*
Y85636D01*
X42241Y85553D01*
X42269Y85451D01*
X42315Y85248D01*
X42343Y85026D01*
X42371Y84822D01*
X42380Y84628D01*
Y84545D01*
X42389Y84471D01*
Y81503D01*
X35991D01*
Y82354D01*
X38830D01*
Y83445D01*
X38820Y83546D01*
Y83621D01*
X38811Y83685D01*
X38802Y83731D01*
Y83768D01*
X38793Y83787D01*
Y83796D01*
X38746Y83944D01*
X38719Y84009D01*
X38691Y84064D01*
X38663Y84120D01*
X38645Y84157D01*
X38635Y84175D01*
X38626Y84185D01*
X38571Y84258D01*
X38506Y84332D01*
X38367Y84471D01*
X38303Y84536D01*
X38247Y84582D01*
X38210Y84610D01*
X38201Y84619D01*
X38071Y84712D01*
X37933Y84813D01*
X37785Y84915D01*
X37646Y85017D01*
X37517Y85100D01*
X37415Y85164D01*
X37378Y85192D01*
X37350Y85211D01*
X37332Y85229D01*
X37322D01*
X35991Y86071D01*
Y87125D01*
X37729Y86024D01*
D02*
G37*
G36*
X39523Y119883D02*
X39846Y119846D01*
X39994Y119818D01*
X40142Y119781D01*
X40272Y119744D01*
X40392Y119716D01*
X40503Y119679D01*
X40605Y119642D01*
X40688Y119614D01*
X40762Y119578D01*
X40817Y119559D01*
X40854Y119541D01*
X40882Y119522D01*
X40891D01*
X41159Y119374D01*
X41400Y119198D01*
X41603Y119014D01*
X41770Y118847D01*
X41899Y118690D01*
X41954Y118616D01*
X42001Y118560D01*
X42028Y118505D01*
X42056Y118468D01*
X42065Y118449D01*
X42075Y118440D01*
X42149Y118302D01*
X42213Y118163D01*
X42324Y117895D01*
X42398Y117617D01*
X42445Y117377D01*
X42463Y117266D01*
X42481Y117155D01*
X42491Y117072D01*
Y116989D01*
X42500Y116924D01*
Y116841D01*
X42491Y116591D01*
X42463Y116360D01*
X42417Y116138D01*
X42361Y115926D01*
X42287Y115731D01*
X42213Y115546D01*
X42130Y115380D01*
X42047Y115232D01*
X41964Y115093D01*
X41880Y114973D01*
X41807Y114872D01*
X41733Y114788D01*
X41677Y114724D01*
X41631Y114668D01*
X41603Y114640D01*
X41594Y114631D01*
X41418Y114483D01*
X41233Y114354D01*
X41030Y114234D01*
X40827Y114141D01*
X40614Y114058D01*
X40410Y113984D01*
X40207Y113928D01*
X40013Y113891D01*
X39828Y113855D01*
X39652Y113827D01*
X39495Y113808D01*
X39366Y113790D01*
X39255D01*
X39172Y113780D01*
X39116D01*
X39107D01*
X39098D01*
X38783Y113799D01*
X38497Y113836D01*
X38219Y113891D01*
X38099Y113928D01*
X37979Y113965D01*
X37877Y113993D01*
X37785Y114030D01*
X37701Y114058D01*
X37628Y114086D01*
X37572Y114104D01*
X37535Y114123D01*
X37507Y114141D01*
X37498D01*
X37230Y114298D01*
X36999Y114465D01*
X36795Y114650D01*
X36629Y114825D01*
X36490Y114982D01*
X36435Y115047D01*
X36398Y115103D01*
X36361Y115158D01*
X36333Y115195D01*
X36324Y115214D01*
X36315Y115223D01*
X36241Y115361D01*
X36176Y115500D01*
X36065Y115778D01*
X35991Y116046D01*
X35936Y116295D01*
X35917Y116416D01*
X35908Y116517D01*
X35889Y116610D01*
Y116693D01*
X35880Y116748D01*
Y116841D01*
X35899Y117146D01*
X35945Y117432D01*
X36000Y117701D01*
X36037Y117821D01*
X36074Y117932D01*
X36111Y118034D01*
X36148Y118126D01*
X36176Y118200D01*
X36204Y118265D01*
X36232Y118320D01*
X36250Y118366D01*
X36268Y118385D01*
Y118394D01*
X36435Y118653D01*
X36620Y118875D01*
X36814Y119060D01*
X36999Y119217D01*
X37174Y119346D01*
X37239Y119393D01*
X37304Y119430D01*
X37359Y119466D01*
X37396Y119485D01*
X37424Y119503D01*
X37433D01*
X37581Y119578D01*
X37729Y119633D01*
X38025Y119735D01*
X38321Y119809D01*
X38589Y119855D01*
X38709Y119864D01*
X38820Y119883D01*
X38922Y119892D01*
X39005D01*
X39079Y119901D01*
X39125D01*
X39162D01*
X39172D01*
X39523Y119883D01*
D02*
G37*
G36*
X42389Y111691D02*
X35991D01*
Y112542D01*
X42389D01*
Y111691D01*
D02*
G37*
G36*
X39532Y110378D02*
X39819Y110350D01*
X40078Y110304D01*
X40198Y110286D01*
X40300Y110258D01*
X40401Y110230D01*
X40484Y110212D01*
X40558Y110193D01*
X40623Y110166D01*
X40679Y110156D01*
X40716Y110138D01*
X40734Y110128D01*
X40743D01*
X40984Y110027D01*
X41196Y109907D01*
X41381Y109777D01*
X41538Y109657D01*
X41668Y109546D01*
X41760Y109454D01*
X41788Y109417D01*
X41816Y109389D01*
X41825Y109380D01*
X41834Y109370D01*
X41954Y109222D01*
X42047Y109065D01*
X42130Y108908D01*
X42195Y108760D01*
X42241Y108631D01*
X42269Y108529D01*
X42287Y108492D01*
Y108464D01*
X42297Y108446D01*
Y108436D01*
X42324Y108279D01*
X42352Y108094D01*
X42371Y107909D01*
X42380Y107725D01*
X42389Y107558D01*
Y105099D01*
X35991D01*
Y107401D01*
X36000Y107614D01*
X36010Y107808D01*
X36028Y107984D01*
X36047Y108131D01*
X36065Y108261D01*
X36074Y108353D01*
X36084Y108381D01*
X36093Y108409D01*
Y108427D01*
X36139Y108594D01*
X36195Y108742D01*
X36241Y108871D01*
X36296Y108982D01*
X36342Y109074D01*
X36379Y109139D01*
X36407Y109176D01*
X36416Y109195D01*
X36500Y109315D01*
X36601Y109417D01*
X36694Y109518D01*
X36786Y109601D01*
X36869Y109675D01*
X36934Y109731D01*
X36980Y109768D01*
X36999Y109777D01*
X37147Y109870D01*
X37304Y109962D01*
X37452Y110036D01*
X37600Y110091D01*
X37729Y110147D01*
X37831Y110184D01*
X37868Y110193D01*
X37896Y110202D01*
X37914Y110212D01*
X37923D01*
X38145Y110267D01*
X38367Y110313D01*
X38580Y110341D01*
X38783Y110369D01*
X38959Y110378D01*
X39033D01*
X39098Y110387D01*
X39144D01*
X39190D01*
X39209D01*
X39218D01*
X39532Y110378D01*
D02*
G37*
G36*
X39791Y140663D02*
X42389Y143344D01*
Y142188D01*
X39209Y139026D01*
X42389D01*
Y138176D01*
X35991D01*
Y139026D01*
X38210D01*
X39218Y140071D01*
X35991Y142346D01*
Y143464D01*
X39791Y140663D01*
D02*
G37*
G36*
X36749Y134052D02*
X42389D01*
Y133202D01*
X35991D01*
Y137205D01*
X36749D01*
Y134052D01*
D02*
G37*
G36*
X38228Y131343D02*
X38081Y131306D01*
X37942Y131260D01*
X37812Y131214D01*
X37692Y131168D01*
X37581Y131112D01*
X37489Y131057D01*
X37396Y130992D01*
X37313Y130936D01*
X37239Y130890D01*
X37184Y130835D01*
X37128Y130789D01*
X37082Y130752D01*
X37054Y130715D01*
X37027Y130687D01*
X37017Y130678D01*
X37008Y130668D01*
X36934Y130576D01*
X36879Y130474D01*
X36777Y130271D01*
X36703Y130077D01*
X36657Y129882D01*
X36620Y129716D01*
X36611Y129651D01*
Y129587D01*
X36601Y129531D01*
Y129466D01*
X36611Y129254D01*
X36648Y129050D01*
X36694Y128865D01*
X36749Y128699D01*
X36805Y128570D01*
X36832Y128514D01*
X36851Y128468D01*
X36869Y128431D01*
X36888Y128403D01*
X36897Y128385D01*
Y128376D01*
X37027Y128200D01*
X37165Y128052D01*
X37322Y127922D01*
X37470Y127821D01*
X37600Y127738D01*
X37711Y127682D01*
X37757Y127664D01*
X37785Y127645D01*
X37803Y127636D01*
X37812D01*
X38053Y127562D01*
X38293Y127506D01*
X38534Y127460D01*
X38756Y127432D01*
X38857Y127423D01*
X38950Y127414D01*
X39033D01*
X39098Y127405D01*
X39153D01*
X39199D01*
X39227D01*
X39236D01*
X39477Y127414D01*
X39699Y127432D01*
X39902Y127469D01*
X40087Y127506D01*
X40244Y127534D01*
X40309Y127553D01*
X40364Y127571D01*
X40410Y127580D01*
X40438Y127590D01*
X40457Y127599D01*
X40466D01*
X40679Y127691D01*
X40873Y127793D01*
X41030Y127904D01*
X41169Y128024D01*
X41280Y128126D01*
X41354Y128209D01*
X41400Y128274D01*
X41418Y128283D01*
Y128292D01*
X41538Y128486D01*
X41631Y128699D01*
X41696Y128903D01*
X41733Y129097D01*
X41760Y129272D01*
X41770Y129346D01*
Y129411D01*
X41779Y129457D01*
Y129531D01*
X41770Y129762D01*
X41733Y129975D01*
X41677Y130151D01*
X41622Y130308D01*
X41557Y130428D01*
X41511Y130520D01*
X41474Y130576D01*
X41455Y130594D01*
X41317Y130742D01*
X41159Y130881D01*
X40993Y130992D01*
X40827Y131084D01*
X40679Y131158D01*
X40605Y131186D01*
X40549Y131205D01*
X40503Y131223D01*
X40466Y131242D01*
X40448Y131251D01*
X40438D01*
X40632Y132083D01*
X40799Y132028D01*
X40947Y131972D01*
X41085Y131898D01*
X41224Y131833D01*
X41344Y131759D01*
X41455Y131676D01*
X41566Y131602D01*
X41659Y131528D01*
X41733Y131454D01*
X41807Y131390D01*
X41871Y131325D01*
X41918Y131279D01*
X41964Y131232D01*
X41992Y131195D01*
X42001Y131177D01*
X42010Y131168D01*
X42093Y131038D01*
X42176Y130909D01*
X42241Y130779D01*
X42297Y130641D01*
X42380Y130363D01*
X42435Y130114D01*
X42463Y129993D01*
X42472Y129892D01*
X42481Y129790D01*
X42491Y129707D01*
X42500Y129642D01*
Y129550D01*
X42481Y129245D01*
X42435Y128949D01*
X42380Y128690D01*
X42343Y128570D01*
X42306Y128459D01*
X42269Y128357D01*
X42232Y128265D01*
X42204Y128191D01*
X42176Y128117D01*
X42149Y128070D01*
X42130Y128033D01*
X42121Y128006D01*
X42112Y127996D01*
X41954Y127747D01*
X41770Y127534D01*
X41585Y127349D01*
X41400Y127192D01*
X41233Y127072D01*
X41159Y127026D01*
X41095Y126989D01*
X41048Y126952D01*
X41011Y126933D01*
X40984Y126924D01*
X40974Y126915D01*
X40688Y126785D01*
X40392Y126693D01*
X40096Y126628D01*
X39828Y126582D01*
X39708Y126563D01*
X39588Y126554D01*
X39495Y126545D01*
X39403D01*
X39338Y126536D01*
X39283D01*
X39246D01*
X39236D01*
X38904Y126554D01*
X38580Y126591D01*
X38293Y126637D01*
X38155Y126674D01*
X38034Y126702D01*
X37923Y126730D01*
X37822Y126767D01*
X37729Y126795D01*
X37655Y126813D01*
X37600Y126841D01*
X37554Y126850D01*
X37526Y126868D01*
X37517D01*
X37239Y127007D01*
X36990Y127164D01*
X36777Y127331D01*
X36694Y127414D01*
X36611Y127488D01*
X36537Y127562D01*
X36472Y127636D01*
X36416Y127701D01*
X36379Y127756D01*
X36342Y127793D01*
X36315Y127830D01*
X36305Y127849D01*
X36296Y127858D01*
X36222Y127987D01*
X36158Y128117D01*
X36056Y128394D01*
X35982Y128671D01*
X35936Y128940D01*
X35917Y129069D01*
X35899Y129180D01*
X35889Y129282D01*
Y129365D01*
X35880Y129439D01*
Y129540D01*
X35889Y129725D01*
X35908Y129901D01*
X35926Y130067D01*
X35963Y130225D01*
X36010Y130372D01*
X36056Y130511D01*
X36102Y130641D01*
X36158Y130761D01*
X36204Y130863D01*
X36250Y130964D01*
X36296Y131038D01*
X36342Y131112D01*
X36379Y131158D01*
X36398Y131205D01*
X36416Y131223D01*
X36426Y131232D01*
X36537Y131362D01*
X36648Y131473D01*
X36777Y131574D01*
X36906Y131676D01*
X37165Y131843D01*
X37424Y131972D01*
X37544Y132028D01*
X37655Y132074D01*
X37757Y132111D01*
X37840Y132138D01*
X37914Y132166D01*
X37970Y132185D01*
X38007Y132194D01*
X38016D01*
X38228Y131343D01*
D02*
G37*
G36*
X39532Y74449D02*
X39819Y74421D01*
X40078Y74375D01*
X40198Y74356D01*
X40300Y74329D01*
X40401Y74301D01*
X40484Y74283D01*
X40558Y74264D01*
X40623Y74236D01*
X40679Y74227D01*
X40716Y74209D01*
X40734Y74199D01*
X40743D01*
X40984Y74098D01*
X41196Y73977D01*
X41381Y73848D01*
X41538Y73728D01*
X41668Y73617D01*
X41760Y73524D01*
X41788Y73487D01*
X41816Y73460D01*
X41825Y73450D01*
X41834Y73441D01*
X41954Y73293D01*
X42047Y73136D01*
X42130Y72979D01*
X42195Y72831D01*
X42241Y72702D01*
X42269Y72600D01*
X42287Y72563D01*
Y72535D01*
X42297Y72517D01*
Y72507D01*
X42324Y72350D01*
X42352Y72165D01*
X42371Y71980D01*
X42380Y71796D01*
X42389Y71629D01*
Y69170D01*
X35991D01*
Y71472D01*
X36000Y71684D01*
X36010Y71879D01*
X36028Y72054D01*
X36047Y72202D01*
X36065Y72332D01*
X36074Y72424D01*
X36084Y72452D01*
X36093Y72480D01*
Y72498D01*
X36139Y72665D01*
X36195Y72812D01*
X36241Y72942D01*
X36296Y73053D01*
X36342Y73145D01*
X36379Y73210D01*
X36407Y73247D01*
X36416Y73266D01*
X36500Y73386D01*
X36601Y73487D01*
X36694Y73589D01*
X36786Y73672D01*
X36869Y73746D01*
X36934Y73802D01*
X36980Y73839D01*
X36999Y73848D01*
X37147Y73941D01*
X37304Y74033D01*
X37452Y74107D01*
X37600Y74162D01*
X37729Y74218D01*
X37831Y74255D01*
X37868Y74264D01*
X37896Y74273D01*
X37914Y74283D01*
X37923D01*
X38145Y74338D01*
X38367Y74384D01*
X38580Y74412D01*
X38783Y74440D01*
X38959Y74449D01*
X39033D01*
X39098Y74458D01*
X39144D01*
X39190D01*
X39209D01*
X39218D01*
X39532Y74449D01*
D02*
G37*
G36*
X42389Y66932D02*
X37359D01*
X42389Y63576D01*
Y62707D01*
X35991D01*
Y63521D01*
X41011D01*
X35991Y66868D01*
Y67746D01*
X42389D01*
Y66932D01*
D02*
G37*
G36*
X39255Y58750D02*
X38497D01*
Y60636D01*
X37295D01*
X37202Y60525D01*
X37119Y60396D01*
X37045Y60257D01*
X36980Y60128D01*
X36925Y60017D01*
X36879Y59915D01*
X36860Y59878D01*
X36851Y59859D01*
X36842Y59841D01*
Y59832D01*
X36777Y59637D01*
X36721Y59443D01*
X36685Y59268D01*
X36666Y59101D01*
X36648Y58963D01*
Y58907D01*
X36638Y58852D01*
Y58759D01*
X36648Y58528D01*
X36685Y58306D01*
X36731Y58103D01*
X36777Y57918D01*
X36832Y57770D01*
X36851Y57705D01*
X36869Y57659D01*
X36888Y57613D01*
X36906Y57585D01*
X36916Y57566D01*
Y57557D01*
X37036Y57363D01*
X37165Y57187D01*
X37304Y57039D01*
X37443Y56919D01*
X37572Y56818D01*
X37674Y56753D01*
X37711Y56725D01*
X37738Y56716D01*
X37757Y56697D01*
X37766D01*
X37997Y56605D01*
X38238Y56531D01*
X38478Y56485D01*
X38709Y56448D01*
X38811Y56438D01*
X38903Y56429D01*
X38996Y56420D01*
X39070D01*
X39125Y56411D01*
X39172D01*
X39199D01*
X39209D01*
X39467Y56420D01*
X39699Y56448D01*
X39920Y56485D01*
X40115Y56531D01*
X40198Y56550D01*
X40272Y56577D01*
X40336Y56596D01*
X40392Y56614D01*
X40438Y56633D01*
X40466Y56642D01*
X40484Y56651D01*
X40494D01*
X40623Y56716D01*
X40743Y56781D01*
X40854Y56845D01*
X40947Y56910D01*
X41021Y56965D01*
X41085Y57012D01*
X41122Y57049D01*
X41132Y57058D01*
X41233Y57160D01*
X41326Y57271D01*
X41400Y57391D01*
X41474Y57502D01*
X41520Y57594D01*
X41566Y57668D01*
X41585Y57724D01*
X41594Y57742D01*
X41659Y57909D01*
X41705Y58075D01*
X41733Y58251D01*
X41760Y58408D01*
X41770Y58547D01*
Y58602D01*
X41779Y58648D01*
Y58750D01*
X41770Y58926D01*
X41751Y59092D01*
X41723Y59240D01*
X41696Y59369D01*
X41659Y59480D01*
X41631Y59564D01*
X41612Y59610D01*
X41603Y59628D01*
X41538Y59767D01*
X41465Y59887D01*
X41391Y59998D01*
X41316Y60081D01*
X41252Y60146D01*
X41206Y60202D01*
X41169Y60229D01*
X41159Y60238D01*
X41048Y60322D01*
X40919Y60386D01*
X40799Y60451D01*
X40669Y60507D01*
X40558Y60544D01*
X40475Y60571D01*
X40438Y60581D01*
X40410Y60590D01*
X40401Y60599D01*
X40392D01*
X40595Y61367D01*
X40827Y61302D01*
X41030Y61219D01*
X41215Y61135D01*
X41363Y61061D01*
X41483Y60987D01*
X41566Y60932D01*
X41622Y60895D01*
X41640Y60876D01*
X41788Y60747D01*
X41908Y60608D01*
X42019Y60460D01*
X42112Y60322D01*
X42176Y60192D01*
X42232Y60091D01*
X42250Y60054D01*
X42260Y60026D01*
X42269Y60007D01*
Y59998D01*
X42343Y59785D01*
X42398Y59564D01*
X42445Y59360D01*
X42472Y59166D01*
X42491Y58990D01*
Y58916D01*
X42500Y58861D01*
Y58565D01*
X42481Y58399D01*
X42435Y58075D01*
X42407Y57927D01*
X42371Y57788D01*
X42343Y57659D01*
X42306Y57539D01*
X42269Y57428D01*
X42232Y57335D01*
X42195Y57252D01*
X42167Y57178D01*
X42139Y57123D01*
X42121Y57086D01*
X42112Y57058D01*
X42102Y57049D01*
X42019Y56919D01*
X41936Y56790D01*
X41742Y56568D01*
X41548Y56374D01*
X41344Y56217D01*
X41169Y56087D01*
X41095Y56041D01*
X41021Y56004D01*
X40965Y55967D01*
X40928Y55949D01*
X40901Y55939D01*
X40891Y55930D01*
X40586Y55801D01*
X40281Y55708D01*
X39985Y55634D01*
X39846Y55616D01*
X39717Y55588D01*
X39597Y55579D01*
X39495Y55560D01*
X39393Y55551D01*
X39310D01*
X39246Y55542D01*
X39199D01*
X39162D01*
X39153D01*
X38811Y55560D01*
X38487Y55606D01*
X38339Y55634D01*
X38201Y55662D01*
X38062Y55699D01*
X37942Y55736D01*
X37831Y55773D01*
X37738Y55810D01*
X37646Y55838D01*
X37581Y55865D01*
X37517Y55893D01*
X37480Y55911D01*
X37452Y55930D01*
X37443D01*
X37174Y56097D01*
X36943Y56281D01*
X36740Y56476D01*
X36574Y56660D01*
X36444Y56836D01*
X36398Y56901D01*
X36352Y56965D01*
X36324Y57021D01*
X36296Y57058D01*
X36287Y57086D01*
X36278Y57095D01*
X36204Y57243D01*
X36148Y57391D01*
X36047Y57687D01*
X35982Y57973D01*
X35926Y58241D01*
X35917Y58362D01*
X35899Y58473D01*
X35889Y58574D01*
Y58657D01*
X35880Y58722D01*
Y58815D01*
X35889Y59074D01*
X35917Y59323D01*
X35963Y59554D01*
X36010Y59758D01*
X36028Y59841D01*
X36047Y59924D01*
X36074Y59998D01*
X36093Y60063D01*
X36111Y60109D01*
X36121Y60146D01*
X36130Y60164D01*
Y60174D01*
X36231Y60423D01*
X36352Y60655D01*
X36481Y60876D01*
X36601Y61071D01*
X36657Y61154D01*
X36712Y61237D01*
X36758Y61302D01*
X36795Y61357D01*
X36832Y61403D01*
X36860Y61440D01*
X36869Y61459D01*
X36879Y61468D01*
X39255D01*
Y58750D01*
D02*
G37*
G36*
X38182Y47554D02*
X38386Y47517D01*
X38561Y47461D01*
X38709Y47406D01*
X38830Y47350D01*
X38922Y47295D01*
X38977Y47258D01*
X38996Y47249D01*
X39135Y47119D01*
X39255Y46980D01*
X39347Y46832D01*
X39421Y46684D01*
X39477Y46555D01*
X39514Y46453D01*
X39523Y46416D01*
X39532Y46389D01*
X39541Y46370D01*
Y46361D01*
X39625Y46518D01*
X39708Y46648D01*
X39800Y46758D01*
X39883Y46851D01*
X39957Y46925D01*
X40022Y46980D01*
X40059Y47008D01*
X40078Y47017D01*
X40207Y47091D01*
X40336Y47147D01*
X40466Y47193D01*
X40586Y47221D01*
X40688Y47239D01*
X40762Y47249D01*
X40817D01*
X40836D01*
X40993Y47239D01*
X41150Y47211D01*
X41289Y47175D01*
X41409Y47128D01*
X41511Y47082D01*
X41594Y47045D01*
X41640Y47017D01*
X41659Y47008D01*
X41797Y46916D01*
X41918Y46805D01*
X42019Y46694D01*
X42112Y46583D01*
X42176Y46490D01*
X42232Y46407D01*
X42260Y46352D01*
X42269Y46343D01*
Y46333D01*
X42343Y46167D01*
X42398Y46000D01*
X42445Y45834D01*
X42472Y45686D01*
X42491Y45566D01*
X42500Y45464D01*
Y45233D01*
X42481Y45104D01*
X42435Y44854D01*
X42361Y44641D01*
X42287Y44456D01*
X42241Y44373D01*
X42204Y44308D01*
X42167Y44244D01*
X42130Y44198D01*
X42102Y44160D01*
X42084Y44133D01*
X42075Y44114D01*
X42065Y44105D01*
X41890Y43929D01*
X41696Y43791D01*
X41492Y43680D01*
X41289Y43587D01*
X41113Y43532D01*
X41039Y43504D01*
X40974Y43486D01*
X40919Y43476D01*
X40882Y43467D01*
X40854Y43458D01*
X40845D01*
X40706Y44244D01*
X40910Y44281D01*
X41085Y44336D01*
X41233Y44401D01*
X41354Y44466D01*
X41446Y44530D01*
X41511Y44586D01*
X41557Y44623D01*
X41566Y44632D01*
X41659Y44752D01*
X41733Y44882D01*
X41779Y45002D01*
X41816Y45122D01*
X41834Y45233D01*
X41853Y45316D01*
Y45390D01*
X41844Y45557D01*
X41807Y45704D01*
X41760Y45834D01*
X41714Y45945D01*
X41659Y46028D01*
X41612Y46093D01*
X41575Y46139D01*
X41566Y46148D01*
X41455Y46250D01*
X41335Y46324D01*
X41215Y46370D01*
X41104Y46407D01*
X41002Y46426D01*
X40928Y46444D01*
X40873D01*
X40863D01*
X40854D01*
X40753D01*
X40660Y46426D01*
X40503Y46379D01*
X40364Y46315D01*
X40244Y46241D01*
X40161Y46167D01*
X40096Y46102D01*
X40059Y46056D01*
X40050Y46047D01*
Y46037D01*
X39967Y45880D01*
X39902Y45732D01*
X39856Y45575D01*
X39828Y45436D01*
X39810Y45316D01*
X39791Y45215D01*
Y45094D01*
X39800Y45057D01*
Y45011D01*
X39107Y44919D01*
X39135Y45039D01*
X39153Y45150D01*
X39172Y45242D01*
X39181Y45325D01*
X39190Y45390D01*
Y45473D01*
X39172Y45668D01*
X39135Y45843D01*
X39079Y46000D01*
X39014Y46130D01*
X38950Y46231D01*
X38894Y46305D01*
X38857Y46352D01*
X38839Y46370D01*
X38700Y46490D01*
X38552Y46583D01*
X38404Y46648D01*
X38256Y46684D01*
X38136Y46712D01*
X38034Y46722D01*
X37997Y46731D01*
X37970D01*
X37951D01*
X37942D01*
X37738Y46712D01*
X37554Y46666D01*
X37396Y46611D01*
X37258Y46537D01*
X37147Y46463D01*
X37064Y46407D01*
X37008Y46361D01*
X36990Y46343D01*
X36860Y46195D01*
X36768Y46037D01*
X36703Y45880D01*
X36657Y45732D01*
X36629Y45603D01*
X36620Y45501D01*
X36611Y45464D01*
Y45409D01*
X36620Y45242D01*
X36657Y45085D01*
X36703Y44946D01*
X36758Y44835D01*
X36805Y44743D01*
X36851Y44669D01*
X36888Y44632D01*
X36897Y44613D01*
X37027Y44503D01*
X37174Y44410D01*
X37332Y44327D01*
X37498Y44262D01*
X37637Y44216D01*
X37701Y44198D01*
X37757Y44188D01*
X37803Y44179D01*
X37840Y44170D01*
X37859Y44160D01*
X37868D01*
X37766Y43375D01*
X37618Y43393D01*
X37480Y43421D01*
X37221Y43504D01*
X36999Y43606D01*
X36906Y43661D01*
X36814Y43717D01*
X36731Y43772D01*
X36666Y43828D01*
X36601Y43874D01*
X36555Y43920D01*
X36518Y43948D01*
X36490Y43976D01*
X36472Y43994D01*
X36463Y44003D01*
X36379Y44114D01*
X36296Y44225D01*
X36231Y44336D01*
X36176Y44456D01*
X36084Y44688D01*
X36028Y44909D01*
X36010Y45011D01*
X35991Y45104D01*
X35982Y45187D01*
X35973Y45261D01*
X35963Y45316D01*
Y45399D01*
X35973Y45575D01*
X35991Y45732D01*
X36019Y45889D01*
X36056Y46037D01*
X36102Y46176D01*
X36148Y46296D01*
X36204Y46416D01*
X36259Y46518D01*
X36305Y46620D01*
X36361Y46703D01*
X36407Y46777D01*
X36453Y46832D01*
X36490Y46879D01*
X36518Y46916D01*
X36537Y46934D01*
X36546Y46943D01*
X36657Y47054D01*
X36777Y47147D01*
X36897Y47230D01*
X37017Y47304D01*
X37128Y47359D01*
X37248Y47415D01*
X37470Y47489D01*
X37572Y47507D01*
X37664Y47526D01*
X37748Y47544D01*
X37822Y47554D01*
X37877Y47563D01*
X37923D01*
X37951D01*
X37960D01*
X38182Y47554D01*
D02*
G37*
G36*
X42472Y42062D02*
X37822Y40324D01*
X37627Y40250D01*
X37443Y40185D01*
X37267Y40129D01*
X37110Y40083D01*
X36971Y40037D01*
X36869Y40009D01*
X36832Y40000D01*
X36805Y39991D01*
X36786Y39982D01*
X36777D01*
X37147Y39871D01*
X37322Y39815D01*
X37480Y39760D01*
X37618Y39713D01*
X37674Y39695D01*
X37729Y39686D01*
X37766Y39667D01*
X37794Y39658D01*
X37812Y39649D01*
X37822D01*
X42472Y37984D01*
Y37060D01*
X36074Y39538D01*
Y40425D01*
X42472Y42922D01*
Y42062D01*
D02*
G37*
G36*
X38182Y36616D02*
X38386Y36579D01*
X38561Y36524D01*
X38709Y36468D01*
X38830Y36413D01*
X38922Y36357D01*
X38977Y36320D01*
X38996Y36311D01*
X39135Y36181D01*
X39255Y36043D01*
X39347Y35895D01*
X39421Y35747D01*
X39477Y35618D01*
X39514Y35516D01*
X39523Y35479D01*
X39532Y35451D01*
X39541Y35433D01*
Y35423D01*
X39625Y35581D01*
X39708Y35710D01*
X39800Y35821D01*
X39883Y35913D01*
X39957Y35987D01*
X40022Y36043D01*
X40059Y36071D01*
X40078Y36080D01*
X40207Y36154D01*
X40336Y36209D01*
X40466Y36256D01*
X40586Y36283D01*
X40688Y36302D01*
X40762Y36311D01*
X40817D01*
X40836D01*
X40993Y36302D01*
X41150Y36274D01*
X41289Y36237D01*
X41409Y36191D01*
X41511Y36145D01*
X41594Y36108D01*
X41640Y36080D01*
X41659Y36071D01*
X41797Y35978D01*
X41918Y35867D01*
X42019Y35756D01*
X42112Y35645D01*
X42176Y35553D01*
X42232Y35470D01*
X42260Y35414D01*
X42269Y35405D01*
Y35396D01*
X42343Y35229D01*
X42398Y35063D01*
X42445Y34896D01*
X42472Y34748D01*
X42491Y34628D01*
X42500Y34527D01*
Y34295D01*
X42481Y34166D01*
X42435Y33916D01*
X42361Y33704D01*
X42287Y33519D01*
X42241Y33436D01*
X42204Y33371D01*
X42167Y33306D01*
X42130Y33260D01*
X42102Y33223D01*
X42084Y33195D01*
X42075Y33177D01*
X42065Y33168D01*
X41890Y32992D01*
X41696Y32853D01*
X41492Y32742D01*
X41289Y32650D01*
X41113Y32594D01*
X41039Y32566D01*
X40974Y32548D01*
X40919Y32539D01*
X40882Y32529D01*
X40854Y32520D01*
X40845D01*
X40706Y33306D01*
X40910Y33343D01*
X41085Y33399D01*
X41233Y33463D01*
X41354Y33528D01*
X41446Y33593D01*
X41511Y33648D01*
X41557Y33685D01*
X41566Y33695D01*
X41659Y33815D01*
X41733Y33944D01*
X41779Y34064D01*
X41816Y34185D01*
X41834Y34295D01*
X41853Y34379D01*
Y34453D01*
X41844Y34619D01*
X41807Y34767D01*
X41760Y34896D01*
X41714Y35007D01*
X41659Y35091D01*
X41612Y35155D01*
X41575Y35201D01*
X41566Y35211D01*
X41455Y35312D01*
X41335Y35386D01*
X41215Y35433D01*
X41104Y35470D01*
X41002Y35488D01*
X40928Y35507D01*
X40873D01*
X40863D01*
X40854D01*
X40753D01*
X40660Y35488D01*
X40503Y35442D01*
X40364Y35377D01*
X40244Y35303D01*
X40161Y35229D01*
X40096Y35164D01*
X40059Y35118D01*
X40050Y35109D01*
Y35100D01*
X39967Y34943D01*
X39902Y34795D01*
X39856Y34637D01*
X39828Y34499D01*
X39810Y34379D01*
X39791Y34277D01*
Y34157D01*
X39800Y34120D01*
Y34074D01*
X39107Y33981D01*
X39135Y34101D01*
X39153Y34212D01*
X39172Y34305D01*
X39181Y34388D01*
X39190Y34453D01*
Y34536D01*
X39172Y34730D01*
X39135Y34906D01*
X39079Y35063D01*
X39014Y35192D01*
X38950Y35294D01*
X38894Y35368D01*
X38857Y35414D01*
X38839Y35433D01*
X38700Y35553D01*
X38552Y35645D01*
X38404Y35710D01*
X38256Y35747D01*
X38136Y35775D01*
X38034Y35784D01*
X37997Y35793D01*
X37970D01*
X37951D01*
X37942D01*
X37738Y35775D01*
X37554Y35728D01*
X37396Y35673D01*
X37258Y35599D01*
X37147Y35525D01*
X37064Y35470D01*
X37008Y35423D01*
X36990Y35405D01*
X36860Y35257D01*
X36768Y35100D01*
X36703Y34943D01*
X36657Y34795D01*
X36629Y34665D01*
X36620Y34564D01*
X36611Y34527D01*
Y34471D01*
X36620Y34305D01*
X36657Y34148D01*
X36703Y34009D01*
X36758Y33898D01*
X36805Y33805D01*
X36851Y33732D01*
X36888Y33695D01*
X36897Y33676D01*
X37027Y33565D01*
X37174Y33473D01*
X37332Y33389D01*
X37498Y33325D01*
X37637Y33278D01*
X37701Y33260D01*
X37757Y33251D01*
X37803Y33241D01*
X37840Y33232D01*
X37859Y33223D01*
X37868D01*
X37766Y32437D01*
X37618Y32456D01*
X37480Y32483D01*
X37221Y32566D01*
X36999Y32668D01*
X36906Y32724D01*
X36814Y32779D01*
X36731Y32835D01*
X36666Y32890D01*
X36601Y32936D01*
X36555Y32983D01*
X36518Y33010D01*
X36490Y33038D01*
X36472Y33056D01*
X36463Y33066D01*
X36379Y33177D01*
X36296Y33288D01*
X36231Y33399D01*
X36176Y33519D01*
X36084Y33750D01*
X36028Y33972D01*
X36010Y34074D01*
X35991Y34166D01*
X35982Y34249D01*
X35973Y34323D01*
X35963Y34379D01*
Y34462D01*
X35973Y34637D01*
X35991Y34795D01*
X36019Y34952D01*
X36056Y35100D01*
X36102Y35238D01*
X36148Y35359D01*
X36204Y35479D01*
X36259Y35581D01*
X36305Y35682D01*
X36361Y35766D01*
X36407Y35840D01*
X36453Y35895D01*
X36490Y35941D01*
X36518Y35978D01*
X36537Y35997D01*
X36546Y36006D01*
X36657Y36117D01*
X36777Y36209D01*
X36897Y36293D01*
X37017Y36366D01*
X37128Y36422D01*
X37248Y36477D01*
X37470Y36551D01*
X37572Y36570D01*
X37664Y36588D01*
X37748Y36607D01*
X37822Y36616D01*
X37877Y36625D01*
X37923D01*
X37951D01*
X37960D01*
X38182Y36616D01*
D02*
G37*
G36*
X184550Y160732D02*
X184800Y160685D01*
X185013Y160611D01*
X185198Y160537D01*
X185281Y160491D01*
X185345Y160454D01*
X185410Y160417D01*
X185456Y160380D01*
X185493Y160352D01*
X185521Y160334D01*
X185540Y160325D01*
X185549Y160315D01*
X185725Y160140D01*
X185863Y159946D01*
X185974Y159742D01*
X186067Y159539D01*
X186122Y159363D01*
X186150Y159289D01*
X186168Y159225D01*
X186178Y159169D01*
X186187Y159132D01*
X186196Y159104D01*
Y159095D01*
X185410Y158956D01*
X185373Y159160D01*
X185318Y159335D01*
X185253Y159483D01*
X185188Y159604D01*
X185124Y159696D01*
X185068Y159761D01*
X185031Y159807D01*
X185022Y159816D01*
X184902Y159909D01*
X184772Y159983D01*
X184652Y160029D01*
X184532Y160066D01*
X184421Y160084D01*
X184338Y160103D01*
X184264D01*
X184097Y160094D01*
X183949Y160057D01*
X183820Y160010D01*
X183709Y159964D01*
X183626Y159909D01*
X183561Y159862D01*
X183515Y159825D01*
X183505Y159816D01*
X183404Y159705D01*
X183330Y159585D01*
X183284Y159465D01*
X183247Y159354D01*
X183228Y159252D01*
X183210Y159178D01*
Y159123D01*
Y159114D01*
Y159104D01*
Y159003D01*
X183228Y158910D01*
X183274Y158753D01*
X183339Y158614D01*
X183413Y158494D01*
X183487Y158411D01*
X183552Y158346D01*
X183598Y158309D01*
X183607Y158300D01*
X183617D01*
X183774Y158217D01*
X183922Y158152D01*
X184079Y158106D01*
X184217Y158078D01*
X184338Y158060D01*
X184439Y158041D01*
X184559D01*
X184597Y158050D01*
X184643D01*
X184735Y157357D01*
X184615Y157385D01*
X184504Y157403D01*
X184412Y157422D01*
X184328Y157431D01*
X184264Y157440D01*
X184181D01*
X183986Y157422D01*
X183811Y157385D01*
X183654Y157329D01*
X183524Y157264D01*
X183422Y157200D01*
X183348Y157144D01*
X183302Y157107D01*
X183284Y157089D01*
X183163Y156950D01*
X183071Y156802D01*
X183006Y156654D01*
X182969Y156506D01*
X182941Y156386D01*
X182932Y156284D01*
X182923Y156247D01*
Y156220D01*
Y156201D01*
Y156192D01*
X182941Y155989D01*
X182988Y155804D01*
X183043Y155646D01*
X183117Y155508D01*
X183191Y155397D01*
X183247Y155314D01*
X183293Y155258D01*
X183311Y155240D01*
X183459Y155110D01*
X183617Y155018D01*
X183774Y154953D01*
X183922Y154907D01*
X184051Y154879D01*
X184153Y154870D01*
X184190Y154860D01*
X184245D01*
X184412Y154870D01*
X184569Y154907D01*
X184708Y154953D01*
X184818Y155008D01*
X184911Y155055D01*
X184985Y155101D01*
X185022Y155138D01*
X185040Y155147D01*
X185151Y155277D01*
X185244Y155424D01*
X185327Y155582D01*
X185392Y155748D01*
X185438Y155887D01*
X185456Y155951D01*
X185466Y156007D01*
X185475Y156053D01*
X185484Y156090D01*
X185493Y156109D01*
Y156118D01*
X186279Y156016D01*
X186261Y155868D01*
X186233Y155730D01*
X186150Y155471D01*
X186048Y155249D01*
X185993Y155156D01*
X185937Y155064D01*
X185882Y154981D01*
X185826Y154916D01*
X185780Y154851D01*
X185734Y154805D01*
X185706Y154768D01*
X185678Y154740D01*
X185660Y154722D01*
X185651Y154713D01*
X185540Y154629D01*
X185429Y154546D01*
X185318Y154481D01*
X185198Y154426D01*
X184966Y154333D01*
X184744Y154278D01*
X184643Y154260D01*
X184550Y154241D01*
X184467Y154232D01*
X184393Y154223D01*
X184338Y154213D01*
X184254D01*
X184079Y154223D01*
X183922Y154241D01*
X183764Y154269D01*
X183617Y154306D01*
X183478Y154352D01*
X183358Y154398D01*
X183237Y154454D01*
X183136Y154509D01*
X183034Y154555D01*
X182951Y154611D01*
X182877Y154657D01*
X182821Y154703D01*
X182775Y154740D01*
X182738Y154768D01*
X182720Y154787D01*
X182710Y154796D01*
X182600Y154907D01*
X182507Y155027D01*
X182424Y155147D01*
X182350Y155267D01*
X182294Y155378D01*
X182239Y155499D01*
X182165Y155720D01*
X182146Y155822D01*
X182128Y155914D01*
X182109Y155998D01*
X182100Y156072D01*
X182091Y156127D01*
Y156173D01*
Y156201D01*
Y156210D01*
X182100Y156432D01*
X182137Y156636D01*
X182193Y156811D01*
X182248Y156959D01*
X182304Y157079D01*
X182359Y157172D01*
X182396Y157227D01*
X182405Y157246D01*
X182535Y157385D01*
X182673Y157505D01*
X182821Y157597D01*
X182969Y157671D01*
X183099Y157727D01*
X183200Y157764D01*
X183237Y157773D01*
X183265Y157782D01*
X183284Y157791D01*
X183293D01*
X183136Y157875D01*
X183006Y157958D01*
X182895Y158050D01*
X182803Y158133D01*
X182729Y158208D01*
X182673Y158272D01*
X182646Y158309D01*
X182636Y158328D01*
X182563Y158457D01*
X182507Y158587D01*
X182461Y158716D01*
X182433Y158836D01*
X182414Y158938D01*
X182405Y159012D01*
Y159067D01*
Y159086D01*
X182414Y159243D01*
X182442Y159400D01*
X182479Y159539D01*
X182526Y159659D01*
X182572Y159761D01*
X182609Y159844D01*
X182636Y159890D01*
X182646Y159909D01*
X182738Y160047D01*
X182849Y160168D01*
X182960Y160269D01*
X183071Y160362D01*
X183163Y160426D01*
X183247Y160482D01*
X183302Y160510D01*
X183311Y160519D01*
X183321D01*
X183487Y160593D01*
X183654Y160648D01*
X183820Y160695D01*
X183968Y160722D01*
X184088Y160741D01*
X184190Y160750D01*
X184421D01*
X184550Y160732D01*
D02*
G37*
G36*
X192409Y157024D02*
Y156839D01*
X192400Y156663D01*
X192390Y156497D01*
X192372Y156340D01*
X192354Y156201D01*
X192335Y156072D01*
X192307Y155951D01*
X192289Y155841D01*
X192270Y155739D01*
X192243Y155656D01*
X192224Y155582D01*
X192206Y155526D01*
X192187Y155480D01*
X192178Y155443D01*
X192169Y155424D01*
Y155415D01*
X192067Y155212D01*
X191938Y155027D01*
X191808Y154879D01*
X191669Y154750D01*
X191549Y154648D01*
X191448Y154574D01*
X191411Y154555D01*
X191383Y154537D01*
X191364Y154518D01*
X191355D01*
X191124Y154417D01*
X190884Y154343D01*
X190634Y154287D01*
X190403Y154250D01*
X190301Y154241D01*
X190199Y154232D01*
X190107Y154223D01*
X190033D01*
X189968Y154213D01*
X189885D01*
X189552Y154232D01*
X189404Y154250D01*
X189265Y154269D01*
X189127Y154297D01*
X189007Y154324D01*
X188896Y154352D01*
X188794Y154389D01*
X188702Y154426D01*
X188628Y154454D01*
X188554Y154481D01*
X188498Y154509D01*
X188452Y154537D01*
X188424Y154546D01*
X188406Y154565D01*
X188396D01*
X188193Y154703D01*
X188027Y154860D01*
X187897Y155008D01*
X187786Y155156D01*
X187703Y155286D01*
X187648Y155387D01*
X187629Y155424D01*
X187611Y155452D01*
X187601Y155471D01*
Y155480D01*
X187564Y155591D01*
X187527Y155711D01*
X187472Y155961D01*
X187435Y156220D01*
X187407Y156469D01*
X187398Y156580D01*
X187389Y156691D01*
Y156784D01*
X187379Y156867D01*
Y156932D01*
Y156978D01*
Y157015D01*
Y157024D01*
Y160722D01*
X188230D01*
Y157024D01*
Y156811D01*
X188249Y156608D01*
X188267Y156432D01*
X188295Y156266D01*
X188323Y156118D01*
X188360Y155979D01*
X188387Y155859D01*
X188424Y155757D01*
X188461Y155674D01*
X188498Y155591D01*
X188535Y155535D01*
X188563Y155480D01*
X188591Y155443D01*
X188609Y155415D01*
X188618Y155406D01*
X188628Y155397D01*
X188711Y155323D01*
X188803Y155258D01*
X189007Y155156D01*
X189219Y155082D01*
X189441Y155036D01*
X189645Y154999D01*
X189728Y154990D01*
X189811D01*
X189867Y154981D01*
X189959D01*
X190153Y154990D01*
X190329Y155018D01*
X190495Y155045D01*
X190625Y155092D01*
X190736Y155129D01*
X190819Y155156D01*
X190865Y155184D01*
X190884Y155193D01*
X191013Y155277D01*
X191124Y155378D01*
X191216Y155480D01*
X191281Y155573D01*
X191336Y155665D01*
X191383Y155730D01*
X191401Y155776D01*
X191411Y155794D01*
X191438Y155878D01*
X191457Y155961D01*
X191494Y156155D01*
X191521Y156358D01*
X191540Y156562D01*
X191549Y156737D01*
Y156821D01*
X191558Y156885D01*
Y156941D01*
Y156987D01*
Y157015D01*
Y157024D01*
Y160722D01*
X192409D01*
Y157024D01*
D02*
G37*
G36*
X136332Y50630D02*
X136490Y50741D01*
X136554Y50796D01*
X136619Y50843D01*
X136674Y50889D01*
X136712Y50926D01*
X136739Y50954D01*
X136749Y50963D01*
X136795Y51009D01*
X136841Y51065D01*
X136961Y51194D01*
X137100Y51342D01*
X137239Y51499D01*
X137359Y51647D01*
X137414Y51712D01*
X137470Y51767D01*
X137507Y51814D01*
X137534Y51851D01*
X137553Y51869D01*
X137562Y51878D01*
X137691Y52026D01*
X137812Y52174D01*
X137932Y52304D01*
X138034Y52424D01*
X138135Y52535D01*
X138228Y52627D01*
X138311Y52720D01*
X138385Y52794D01*
X138459Y52867D01*
X138514Y52923D01*
X138561Y52969D01*
X138607Y53015D01*
X138662Y53062D01*
X138681Y53080D01*
X138838Y53210D01*
X138977Y53321D01*
X139115Y53413D01*
X139226Y53487D01*
X139328Y53542D01*
X139402Y53579D01*
X139448Y53598D01*
X139467Y53607D01*
X139605Y53663D01*
X139744Y53700D01*
X139874Y53737D01*
X139985Y53755D01*
X140086Y53764D01*
X140160Y53774D01*
X140206D01*
X140225D01*
X140364Y53764D01*
X140493Y53746D01*
X140622Y53727D01*
X140733Y53690D01*
X140955Y53598D01*
X141131Y53506D01*
X141214Y53450D01*
X141279Y53404D01*
X141344Y53358D01*
X141390Y53311D01*
X141427Y53274D01*
X141464Y53256D01*
X141473Y53237D01*
X141482Y53228D01*
X141575Y53126D01*
X141658Y53015D01*
X141723Y52895D01*
X141778Y52775D01*
X141871Y52535D01*
X141935Y52294D01*
X141954Y52193D01*
X141972Y52091D01*
X141981Y51998D01*
X141991Y51925D01*
X142000Y51860D01*
Y51767D01*
X141991Y51601D01*
X141981Y51444D01*
X141954Y51296D01*
X141926Y51157D01*
X141889Y51028D01*
X141852Y50908D01*
X141806Y50796D01*
X141760Y50695D01*
X141713Y50602D01*
X141667Y50528D01*
X141630Y50464D01*
X141593Y50408D01*
X141566Y50362D01*
X141538Y50334D01*
X141529Y50316D01*
X141519Y50307D01*
X141427Y50214D01*
X141325Y50131D01*
X141214Y50048D01*
X141103Y49983D01*
X140881Y49872D01*
X140659Y49798D01*
X140558Y49770D01*
X140456Y49742D01*
X140373Y49724D01*
X140299Y49706D01*
X140234Y49696D01*
X140188D01*
X140160Y49687D01*
X140151D01*
X140068Y50491D01*
X140280Y50510D01*
X140465Y50547D01*
X140632Y50602D01*
X140761Y50667D01*
X140872Y50723D01*
X140946Y50778D01*
X140992Y50815D01*
X141011Y50834D01*
X141122Y50972D01*
X141205Y51120D01*
X141270Y51277D01*
X141307Y51416D01*
X141334Y51545D01*
X141344Y51656D01*
X141353Y51693D01*
Y51749D01*
X141344Y51943D01*
X141307Y52119D01*
X141251Y52267D01*
X141196Y52396D01*
X141131Y52498D01*
X141085Y52562D01*
X141048Y52609D01*
X141029Y52627D01*
X140900Y52738D01*
X140770Y52821D01*
X140641Y52886D01*
X140512Y52923D01*
X140410Y52951D01*
X140317Y52960D01*
X140262Y52969D01*
X140253D01*
X140243D01*
X140077Y52951D01*
X139901Y52914D01*
X139744Y52849D01*
X139596Y52784D01*
X139476Y52710D01*
X139374Y52646D01*
X139337Y52627D01*
X139310Y52609D01*
X139300Y52590D01*
X139291D01*
X139189Y52516D01*
X139088Y52424D01*
X138977Y52322D01*
X138866Y52211D01*
X138644Y51980D01*
X138422Y51749D01*
X138320Y51629D01*
X138228Y51527D01*
X138145Y51425D01*
X138071Y51342D01*
X138015Y51277D01*
X137969Y51222D01*
X137941Y51185D01*
X137932Y51176D01*
X137738Y50944D01*
X137553Y50732D01*
X137386Y50556D01*
X137248Y50417D01*
X137128Y50297D01*
X137044Y50214D01*
X136989Y50168D01*
X136980Y50149D01*
X136970D01*
X136813Y50020D01*
X136665Y49918D01*
X136517Y49826D01*
X136388Y49752D01*
X136277Y49696D01*
X136194Y49659D01*
X136138Y49641D01*
X136129Y49632D01*
X136120D01*
X136018Y49595D01*
X135926Y49576D01*
X135833Y49558D01*
X135750Y49548D01*
X135676Y49539D01*
X135620D01*
X135583D01*
X135574D01*
Y53783D01*
X136332D01*
Y50630D01*
D02*
G37*
G36*
X141972Y47709D02*
X138274D01*
X138061D01*
X137858Y47690D01*
X137682Y47671D01*
X137516Y47644D01*
X137368Y47616D01*
X137229Y47579D01*
X137109Y47551D01*
X137007Y47514D01*
X136924Y47477D01*
X136841Y47440D01*
X136785Y47403D01*
X136730Y47376D01*
X136693Y47348D01*
X136665Y47329D01*
X136656Y47320D01*
X136647Y47311D01*
X136573Y47228D01*
X136508Y47135D01*
X136406Y46932D01*
X136332Y46719D01*
X136286Y46497D01*
X136249Y46294D01*
X136240Y46211D01*
Y46128D01*
X136231Y46072D01*
Y45980D01*
X136240Y45785D01*
X136268Y45610D01*
X136295Y45443D01*
X136342Y45314D01*
X136379Y45203D01*
X136406Y45120D01*
X136434Y45073D01*
X136443Y45055D01*
X136527Y44926D01*
X136628Y44815D01*
X136730Y44722D01*
X136823Y44657D01*
X136915Y44602D01*
X136980Y44556D01*
X137026Y44537D01*
X137044Y44528D01*
X137128Y44500D01*
X137211Y44482D01*
X137405Y44445D01*
X137608Y44417D01*
X137812Y44399D01*
X137987Y44389D01*
X138071D01*
X138135Y44380D01*
X138191D01*
X138237D01*
X138265D01*
X138274D01*
X141972D01*
Y43530D01*
X138274D01*
X138089D01*
X137913Y43539D01*
X137747Y43548D01*
X137590Y43566D01*
X137451Y43585D01*
X137322Y43603D01*
X137201Y43631D01*
X137091Y43650D01*
X136989Y43668D01*
X136906Y43696D01*
X136832Y43714D01*
X136776Y43733D01*
X136730Y43751D01*
X136693Y43761D01*
X136674Y43770D01*
X136665D01*
X136462Y43872D01*
X136277Y44001D01*
X136129Y44130D01*
X136000Y44269D01*
X135898Y44389D01*
X135824Y44491D01*
X135805Y44528D01*
X135787Y44556D01*
X135768Y44574D01*
Y44584D01*
X135667Y44815D01*
X135593Y45055D01*
X135537Y45305D01*
X135500Y45536D01*
X135491Y45637D01*
X135482Y45739D01*
X135473Y45832D01*
Y45906D01*
X135463Y45970D01*
Y46054D01*
X135482Y46386D01*
X135500Y46534D01*
X135519Y46673D01*
X135547Y46812D01*
X135574Y46932D01*
X135602Y47043D01*
X135639Y47144D01*
X135676Y47237D01*
X135704Y47311D01*
X135731Y47385D01*
X135759Y47440D01*
X135787Y47487D01*
X135796Y47514D01*
X135815Y47533D01*
Y47542D01*
X135953Y47745D01*
X136110Y47912D01*
X136258Y48041D01*
X136406Y48152D01*
X136536Y48236D01*
X136637Y48291D01*
X136674Y48309D01*
X136702Y48328D01*
X136721Y48337D01*
X136730D01*
X136841Y48374D01*
X136961Y48411D01*
X137211Y48467D01*
X137470Y48504D01*
X137719Y48531D01*
X137830Y48541D01*
X137941Y48550D01*
X138034D01*
X138117Y48559D01*
X138182D01*
X138228D01*
X138265D01*
X138274D01*
X141972D01*
Y47709D01*
D02*
G37*
G36*
X112108Y75276D02*
X116250D01*
Y74638D01*
X112108Y71707D01*
X111387D01*
Y74490D01*
X109852D01*
Y75276D01*
X111387D01*
Y76145D01*
X112108D01*
Y75276D01*
D02*
G37*
G36*
X116250Y70034D02*
X112552D01*
X112339D01*
X112136Y70015D01*
X111960Y69997D01*
X111794Y69969D01*
X111646Y69941D01*
X111507Y69904D01*
X111387Y69877D01*
X111285Y69840D01*
X111202Y69803D01*
X111119Y69766D01*
X111063Y69729D01*
X111008Y69701D01*
X110971Y69673D01*
X110943Y69655D01*
X110934Y69646D01*
X110925Y69636D01*
X110851Y69553D01*
X110786Y69461D01*
X110684Y69257D01*
X110610Y69045D01*
X110564Y68823D01*
X110527Y68619D01*
X110518Y68536D01*
Y68453D01*
X110508Y68397D01*
Y68305D01*
X110518Y68111D01*
X110546Y67935D01*
X110573Y67769D01*
X110619Y67639D01*
X110656Y67528D01*
X110684Y67445D01*
X110712Y67399D01*
X110721Y67380D01*
X110804Y67251D01*
X110906Y67140D01*
X111008Y67048D01*
X111100Y66983D01*
X111193Y66927D01*
X111257Y66881D01*
X111304Y66863D01*
X111322Y66853D01*
X111405Y66826D01*
X111489Y66807D01*
X111683Y66770D01*
X111886Y66742D01*
X112090Y66724D01*
X112265Y66715D01*
X112348D01*
X112413Y66705D01*
X112469D01*
X112515D01*
X112542D01*
X112552D01*
X116250D01*
Y65855D01*
X112552D01*
X112367D01*
X112191Y65864D01*
X112025Y65873D01*
X111868Y65892D01*
X111729Y65910D01*
X111600Y65929D01*
X111479Y65957D01*
X111368Y65975D01*
X111267Y65993D01*
X111183Y66021D01*
X111110Y66040D01*
X111054Y66058D01*
X111008Y66077D01*
X110971Y66086D01*
X110952Y66095D01*
X110943D01*
X110740Y66197D01*
X110555Y66326D01*
X110407Y66456D01*
X110277Y66595D01*
X110176Y66715D01*
X110102Y66816D01*
X110083Y66853D01*
X110065Y66881D01*
X110046Y66900D01*
Y66909D01*
X109944Y67140D01*
X109871Y67380D01*
X109815Y67630D01*
X109778Y67861D01*
X109769Y67963D01*
X109760Y68064D01*
X109750Y68157D01*
Y68231D01*
X109741Y68296D01*
Y68379D01*
X109760Y68712D01*
X109778Y68860D01*
X109797Y68998D01*
X109824Y69137D01*
X109852Y69257D01*
X109880Y69368D01*
X109917Y69470D01*
X109954Y69562D01*
X109981Y69636D01*
X110009Y69710D01*
X110037Y69766D01*
X110065Y69812D01*
X110074Y69840D01*
X110092Y69858D01*
Y69867D01*
X110231Y70071D01*
X110388Y70237D01*
X110536Y70367D01*
X110684Y70478D01*
X110814Y70561D01*
X110915Y70616D01*
X110952Y70635D01*
X110980Y70653D01*
X110998Y70662D01*
X111008D01*
X111119Y70700D01*
X111239Y70736D01*
X111489Y70792D01*
X111747Y70829D01*
X111997Y70857D01*
X112108Y70866D01*
X112219Y70875D01*
X112311D01*
X112395Y70884D01*
X112459D01*
X112506D01*
X112542D01*
X112552D01*
X116250D01*
Y70034D01*
D02*
G37*
G36*
X235561Y107093D02*
X235663Y106945D01*
X235783Y106797D01*
X235894Y106667D01*
X236005Y106557D01*
X236088Y106464D01*
X236125Y106436D01*
X236153Y106409D01*
X236162Y106399D01*
X236172Y106390D01*
X236366Y106233D01*
X236560Y106085D01*
X236745Y105956D01*
X236930Y105854D01*
X237087Y105761D01*
X237152Y105724D01*
X237207Y105697D01*
X237253Y105669D01*
X237290Y105660D01*
X237309Y105641D01*
X237318D01*
Y104883D01*
X237179Y104939D01*
X237041Y105003D01*
X236902Y105068D01*
X236773Y105133D01*
X236662Y105188D01*
X236569Y105234D01*
X236514Y105271D01*
X236504Y105281D01*
X236495D01*
X236329Y105382D01*
X236181Y105484D01*
X236051Y105576D01*
X235950Y105660D01*
X235857Y105724D01*
X235802Y105780D01*
X235756Y105817D01*
X235746Y105826D01*
Y100824D01*
X234960D01*
Y107250D01*
X235469D01*
X235561Y107093D01*
D02*
G37*
G36*
X244040Y103524D02*
Y103339D01*
X244030Y103163D01*
X244021Y102997D01*
X244003Y102840D01*
X243984Y102701D01*
X243966Y102572D01*
X243938Y102451D01*
X243919Y102341D01*
X243901Y102239D01*
X243873Y102156D01*
X243855Y102082D01*
X243836Y102026D01*
X243818Y101980D01*
X243808Y101943D01*
X243799Y101924D01*
Y101915D01*
X243697Y101712D01*
X243568Y101527D01*
X243439Y101379D01*
X243300Y101250D01*
X243180Y101148D01*
X243078Y101074D01*
X243041Y101055D01*
X243013Y101037D01*
X242995Y101018D01*
X242986D01*
X242754Y100917D01*
X242514Y100843D01*
X242264Y100787D01*
X242033Y100750D01*
X241932Y100741D01*
X241830Y100732D01*
X241737Y100723D01*
X241663D01*
X241599Y100713D01*
X241516D01*
X241183Y100732D01*
X241035Y100750D01*
X240896Y100769D01*
X240757Y100797D01*
X240637Y100824D01*
X240526Y100852D01*
X240425Y100889D01*
X240332Y100926D01*
X240258Y100954D01*
X240184Y100982D01*
X240129Y101009D01*
X240082Y101037D01*
X240055Y101046D01*
X240036Y101065D01*
X240027D01*
X239824Y101203D01*
X239657Y101361D01*
X239528Y101509D01*
X239417Y101656D01*
X239334Y101786D01*
X239278Y101888D01*
X239260Y101924D01*
X239241Y101952D01*
X239232Y101971D01*
Y101980D01*
X239195Y102091D01*
X239158Y102211D01*
X239102Y102461D01*
X239065Y102720D01*
X239038Y102969D01*
X239028Y103080D01*
X239019Y103191D01*
Y103284D01*
X239010Y103367D01*
Y103432D01*
Y103478D01*
Y103515D01*
Y103524D01*
Y107222D01*
X239861D01*
Y103524D01*
Y103311D01*
X239879Y103108D01*
X239898Y102932D01*
X239925Y102766D01*
X239953Y102618D01*
X239990Y102479D01*
X240018Y102359D01*
X240055Y102257D01*
X240092Y102174D01*
X240129Y102091D01*
X240166Y102036D01*
X240193Y101980D01*
X240221Y101943D01*
X240240Y101915D01*
X240249Y101906D01*
X240258Y101897D01*
X240341Y101823D01*
X240434Y101758D01*
X240637Y101656D01*
X240850Y101582D01*
X241072Y101536D01*
X241275Y101499D01*
X241358Y101490D01*
X241442D01*
X241497Y101481D01*
X241590D01*
X241784Y101490D01*
X241959Y101518D01*
X242126Y101545D01*
X242255Y101592D01*
X242366Y101629D01*
X242449Y101656D01*
X242496Y101684D01*
X242514Y101693D01*
X242644Y101777D01*
X242754Y101878D01*
X242847Y101980D01*
X242912Y102072D01*
X242967Y102165D01*
X243013Y102230D01*
X243032Y102276D01*
X243041Y102294D01*
X243069Y102378D01*
X243087Y102461D01*
X243124Y102655D01*
X243152Y102858D01*
X243171Y103062D01*
X243180Y103237D01*
Y103321D01*
X243189Y103385D01*
Y103441D01*
Y103487D01*
Y103515D01*
Y103524D01*
Y107222D01*
X244040D01*
Y103524D01*
D02*
G37*
G36*
X104249Y33908D02*
X106422D01*
Y37449D01*
X107180D01*
Y33908D01*
X109131D01*
Y37690D01*
X109889D01*
Y33057D01*
X103491D01*
Y37838D01*
X104249D01*
Y33908D01*
D02*
G37*
G36*
X107032Y31874D02*
X107319Y31846D01*
X107578Y31800D01*
X107698Y31782D01*
X107800Y31754D01*
X107901Y31726D01*
X107985Y31708D01*
X108059Y31689D01*
X108123Y31661D01*
X108179Y31652D01*
X108216Y31634D01*
X108234Y31624D01*
X108243D01*
X108484Y31523D01*
X108696Y31403D01*
X108881Y31273D01*
X109038Y31153D01*
X109168Y31042D01*
X109260Y30949D01*
X109288Y30912D01*
X109316Y30885D01*
X109325Y30876D01*
X109334Y30866D01*
X109454Y30718D01*
X109547Y30561D01*
X109630Y30404D01*
X109695Y30256D01*
X109741Y30127D01*
X109769Y30025D01*
X109787Y29988D01*
Y29960D01*
X109797Y29942D01*
Y29932D01*
X109824Y29775D01*
X109852Y29590D01*
X109871Y29406D01*
X109880Y29221D01*
X109889Y29054D01*
Y26595D01*
X103491D01*
Y28897D01*
X103500Y29110D01*
X103510Y29304D01*
X103528Y29479D01*
X103547Y29627D01*
X103565Y29757D01*
X103574Y29849D01*
X103584Y29877D01*
X103593Y29905D01*
Y29923D01*
X103639Y30090D01*
X103694Y30238D01*
X103741Y30367D01*
X103796Y30478D01*
X103842Y30570D01*
X103879Y30635D01*
X103907Y30672D01*
X103916Y30691D01*
X104000Y30811D01*
X104101Y30912D01*
X104194Y31014D01*
X104286Y31097D01*
X104369Y31171D01*
X104434Y31227D01*
X104480Y31264D01*
X104499Y31273D01*
X104647Y31366D01*
X104804Y31458D01*
X104952Y31532D01*
X105100Y31588D01*
X105229Y31643D01*
X105331Y31680D01*
X105368Y31689D01*
X105396Y31698D01*
X105414Y31708D01*
X105423D01*
X105645Y31763D01*
X105867Y31809D01*
X106080Y31837D01*
X106283Y31865D01*
X106459Y31874D01*
X106533D01*
X106598Y31883D01*
X106644D01*
X106690D01*
X106709D01*
X106718D01*
X107032Y31874D01*
D02*
G37*
G36*
X107023Y25485D02*
X107346Y25448D01*
X107494Y25421D01*
X107642Y25384D01*
X107772Y25347D01*
X107892Y25319D01*
X108003Y25282D01*
X108105Y25245D01*
X108188Y25217D01*
X108262Y25180D01*
X108317Y25162D01*
X108354Y25143D01*
X108382Y25125D01*
X108391D01*
X108659Y24977D01*
X108900Y24801D01*
X109103Y24616D01*
X109270Y24450D01*
X109399Y24293D01*
X109454Y24219D01*
X109501Y24163D01*
X109529Y24108D01*
X109556Y24071D01*
X109565Y24052D01*
X109575Y24043D01*
X109649Y23904D01*
X109713Y23766D01*
X109824Y23498D01*
X109898Y23220D01*
X109945Y22980D01*
X109963Y22869D01*
X109981Y22758D01*
X109991Y22675D01*
Y22592D01*
X110000Y22527D01*
Y22444D01*
X109991Y22194D01*
X109963Y21963D01*
X109917Y21741D01*
X109861Y21528D01*
X109787Y21334D01*
X109713Y21149D01*
X109630Y20983D01*
X109547Y20835D01*
X109464Y20696D01*
X109381Y20576D01*
X109307Y20474D01*
X109233Y20391D01*
X109177Y20326D01*
X109131Y20271D01*
X109103Y20243D01*
X109094Y20234D01*
X108918Y20086D01*
X108733Y19957D01*
X108530Y19836D01*
X108327Y19744D01*
X108114Y19661D01*
X107910Y19587D01*
X107707Y19531D01*
X107513Y19494D01*
X107328Y19457D01*
X107152Y19430D01*
X106995Y19411D01*
X106866Y19392D01*
X106755D01*
X106672Y19383D01*
X106616D01*
X106607D01*
X106598D01*
X106283Y19402D01*
X105997Y19439D01*
X105719Y19494D01*
X105599Y19531D01*
X105479Y19568D01*
X105377Y19596D01*
X105285Y19633D01*
X105202Y19661D01*
X105128Y19688D01*
X105072Y19707D01*
X105035Y19725D01*
X105007Y19744D01*
X104998D01*
X104730Y19901D01*
X104499Y20067D01*
X104296Y20252D01*
X104129Y20428D01*
X103990Y20585D01*
X103935Y20650D01*
X103898Y20705D01*
X103861Y20761D01*
X103833Y20798D01*
X103824Y20816D01*
X103815Y20826D01*
X103741Y20964D01*
X103676Y21103D01*
X103565Y21380D01*
X103491Y21648D01*
X103436Y21898D01*
X103417Y22018D01*
X103408Y22120D01*
X103389Y22212D01*
Y22296D01*
X103380Y22351D01*
Y22444D01*
X103399Y22749D01*
X103445Y23035D01*
X103500Y23303D01*
X103537Y23424D01*
X103574Y23535D01*
X103611Y23636D01*
X103648Y23729D01*
X103676Y23803D01*
X103704Y23867D01*
X103731Y23923D01*
X103750Y23969D01*
X103769Y23988D01*
Y23997D01*
X103935Y24256D01*
X104120Y24478D01*
X104314Y24662D01*
X104499Y24820D01*
X104675Y24949D01*
X104739Y24995D01*
X104804Y25032D01*
X104860Y25069D01*
X104896Y25088D01*
X104924Y25106D01*
X104933D01*
X105081Y25180D01*
X105229Y25236D01*
X105525Y25337D01*
X105821Y25411D01*
X106089Y25458D01*
X106209Y25467D01*
X106320Y25485D01*
X106422Y25495D01*
X106505D01*
X106579Y25504D01*
X106625D01*
X106662D01*
X106672D01*
X107023Y25485D01*
D02*
G37*
G36*
X109889Y17127D02*
X105433Y15593D01*
X105192Y15509D01*
X104989Y15445D01*
X104813Y15380D01*
X104665Y15334D01*
X104554Y15297D01*
X104471Y15269D01*
X104425Y15260D01*
X104406Y15251D01*
X104536Y15214D01*
X104684Y15167D01*
X104841Y15112D01*
X104998Y15066D01*
X105137Y15019D01*
X105248Y14982D01*
X105294Y14964D01*
X105322Y14955D01*
X105340Y14945D01*
X105350D01*
X109889Y13429D01*
Y12162D01*
X103491D01*
Y12976D01*
X108937D01*
X103491Y14825D01*
Y15583D01*
X108844Y17451D01*
X103491D01*
Y18265D01*
X109889D01*
Y17127D01*
D02*
G37*
G36*
Y159394D02*
X109131D01*
Y161502D01*
X103491D01*
Y162352D01*
X109131D01*
Y164460D01*
X109889D01*
Y159394D01*
D02*
G37*
G36*
X104249Y154771D02*
X106422D01*
Y158312D01*
X107180D01*
Y154771D01*
X109131D01*
Y158552D01*
X109889D01*
Y153920D01*
X103491D01*
Y158700D01*
X104249D01*
Y154771D01*
D02*
G37*
G36*
X105470Y152737D02*
X105645Y152709D01*
X105802Y152663D01*
X105932Y152617D01*
X106043Y152561D01*
X106126Y152524D01*
X106172Y152487D01*
X106191Y152478D01*
X106329Y152367D01*
X106459Y152237D01*
X106570Y152099D01*
X106672Y151960D01*
X106746Y151840D01*
X106801Y151738D01*
X106819Y151701D01*
X106838Y151673D01*
X106847Y151655D01*
Y151646D01*
X106884Y151572D01*
X106912Y151479D01*
X106949Y151378D01*
X106986Y151267D01*
X107051Y151035D01*
X107115Y150795D01*
X107143Y150684D01*
X107171Y150583D01*
X107199Y150481D01*
X107217Y150398D01*
X107236Y150333D01*
X107245Y150277D01*
X107254Y150240D01*
Y150231D01*
X107300Y150046D01*
X107337Y149880D01*
X107383Y149732D01*
X107421Y149602D01*
X107467Y149482D01*
X107504Y149381D01*
X107541Y149288D01*
X107568Y149205D01*
X107605Y149140D01*
X107633Y149085D01*
X107652Y149048D01*
X107679Y149011D01*
X107707Y148965D01*
X107716Y148955D01*
X107809Y148872D01*
X107901Y148816D01*
X107994Y148770D01*
X108086Y148743D01*
X108160Y148724D01*
X108225Y148715D01*
X108262D01*
X108280D01*
X108428Y148733D01*
X108558Y148770D01*
X108669Y148826D01*
X108770Y148890D01*
X108844Y148946D01*
X108909Y149002D01*
X108946Y149038D01*
X108955Y149057D01*
X109002Y149131D01*
X109048Y149205D01*
X109122Y149381D01*
X109168Y149565D01*
X109205Y149750D01*
X109223Y149917D01*
X109233Y149991D01*
X109242Y150046D01*
Y150176D01*
X109233Y150435D01*
X109196Y150666D01*
X109140Y150851D01*
X109085Y151008D01*
X109029Y151128D01*
X108974Y151220D01*
X108937Y151267D01*
X108927Y151285D01*
X108798Y151415D01*
X108659Y151516D01*
X108511Y151600D01*
X108364Y151655D01*
X108225Y151692D01*
X108123Y151720D01*
X108077Y151729D01*
X108049Y151738D01*
X108031D01*
X108021D01*
X108086Y152552D01*
X108290Y152533D01*
X108475Y152487D01*
X108650Y152441D01*
X108798Y152376D01*
X108918Y152321D01*
X109011Y152274D01*
X109038Y152256D01*
X109066Y152237D01*
X109075Y152228D01*
X109085D01*
X109242Y152108D01*
X109381Y151979D01*
X109501Y151840D01*
X109593Y151701D01*
X109676Y151581D01*
X109723Y151489D01*
X109741Y151452D01*
X109760Y151424D01*
X109769Y151405D01*
Y151396D01*
X109843Y151193D01*
X109898Y150971D01*
X109945Y150767D01*
X109972Y150573D01*
X109991Y150398D01*
Y150333D01*
X110000Y150268D01*
Y150148D01*
X109991Y149908D01*
X109963Y149695D01*
X109926Y149492D01*
X109889Y149316D01*
X109852Y149177D01*
X109834Y149112D01*
X109815Y149066D01*
X109797Y149029D01*
X109787Y149002D01*
X109778Y148983D01*
Y148974D01*
X109686Y148789D01*
X109584Y148622D01*
X109473Y148484D01*
X109371Y148373D01*
X109279Y148289D01*
X109205Y148225D01*
X109149Y148179D01*
X109140Y148169D01*
X109131D01*
X108974Y148077D01*
X108817Y148012D01*
X108659Y147966D01*
X108521Y147938D01*
X108400Y147920D01*
X108308Y147901D01*
X108271D01*
X108243D01*
X108234D01*
X108225D01*
X108068Y147910D01*
X107920Y147938D01*
X107781Y147975D01*
X107661Y148012D01*
X107568Y148049D01*
X107494Y148086D01*
X107448Y148114D01*
X107430Y148123D01*
X107300Y148216D01*
X107180Y148327D01*
X107078Y148438D01*
X106995Y148548D01*
X106921Y148641D01*
X106875Y148724D01*
X106838Y148780D01*
X106829Y148789D01*
Y148798D01*
X106792Y148872D01*
X106755Y148955D01*
X106690Y149140D01*
X106625Y149353D01*
X106561Y149556D01*
X106505Y149741D01*
X106487Y149824D01*
X106468Y149898D01*
X106450Y149954D01*
X106440Y150000D01*
X106431Y150028D01*
Y150037D01*
X106394Y150194D01*
X106357Y150342D01*
X106320Y150471D01*
X106292Y150583D01*
X106265Y150693D01*
X106237Y150786D01*
X106219Y150869D01*
X106191Y150934D01*
X106172Y150998D01*
X106163Y151045D01*
X106135Y151119D01*
X106126Y151165D01*
X106117Y151174D01*
X106061Y151313D01*
X105997Y151433D01*
X105932Y151535D01*
X105877Y151609D01*
X105821Y151673D01*
X105784Y151710D01*
X105756Y151738D01*
X105747Y151747D01*
X105664Y151812D01*
X105571Y151858D01*
X105479Y151886D01*
X105405Y151914D01*
X105331Y151923D01*
X105275Y151932D01*
X105229D01*
X105220D01*
X105109Y151923D01*
X105007Y151905D01*
X104915Y151877D01*
X104841Y151840D01*
X104767Y151803D01*
X104721Y151775D01*
X104684Y151757D01*
X104675Y151747D01*
X104582Y151673D01*
X104508Y151581D01*
X104443Y151489D01*
X104379Y151405D01*
X104342Y151322D01*
X104305Y151257D01*
X104286Y151211D01*
X104277Y151193D01*
X104231Y151054D01*
X104194Y150906D01*
X104175Y150758D01*
X104157Y150629D01*
X104148Y150518D01*
X104138Y150425D01*
Y150342D01*
X104148Y150139D01*
X104166Y149954D01*
X104194Y149787D01*
X104231Y149639D01*
X104268Y149519D01*
X104296Y149427D01*
X104305Y149399D01*
X104314Y149371D01*
X104323Y149362D01*
Y149353D01*
X104397Y149205D01*
X104480Y149066D01*
X104564Y148965D01*
X104647Y148872D01*
X104712Y148798D01*
X104776Y148752D01*
X104813Y148724D01*
X104823Y148715D01*
X104943Y148650D01*
X105072Y148585D01*
X105211Y148548D01*
X105331Y148511D01*
X105451Y148484D01*
X105534Y148465D01*
X105571D01*
X105599Y148456D01*
X105608D01*
X105618D01*
X105544Y147661D01*
X105312Y147679D01*
X105091Y147716D01*
X104896Y147772D01*
X104721Y147837D01*
X104582Y147901D01*
X104527Y147929D01*
X104480Y147948D01*
X104443Y147975D01*
X104416Y147984D01*
X104397Y148003D01*
X104388D01*
X104212Y148142D01*
X104055Y148289D01*
X103926Y148447D01*
X103815Y148595D01*
X103731Y148724D01*
X103676Y148835D01*
X103658Y148872D01*
X103639Y148900D01*
X103630Y148918D01*
Y148927D01*
X103547Y149159D01*
X103482Y149399D01*
X103445Y149639D01*
X103408Y149871D01*
X103399Y149981D01*
X103389Y150074D01*
Y150157D01*
X103380Y150231D01*
Y150379D01*
X103389Y150629D01*
X103417Y150860D01*
X103463Y151073D01*
X103510Y151248D01*
X103547Y151396D01*
X103574Y151461D01*
X103593Y151516D01*
X103611Y151553D01*
X103621Y151581D01*
X103630Y151600D01*
Y151609D01*
X103731Y151803D01*
X103842Y151969D01*
X103963Y152117D01*
X104074Y152237D01*
X104166Y152330D01*
X104249Y152395D01*
X104305Y152441D01*
X104314Y152450D01*
X104323D01*
X104499Y152552D01*
X104665Y152626D01*
X104823Y152672D01*
X104970Y152709D01*
X105100Y152727D01*
X105202Y152746D01*
X105239D01*
X105266D01*
X105275D01*
X105285D01*
X105470Y152737D01*
D02*
G37*
G36*
X104249Y142844D02*
X106422D01*
Y146385D01*
X107180D01*
Y142844D01*
X109131D01*
Y146625D01*
X109889D01*
Y141993D01*
X103491D01*
Y146773D01*
X104249D01*
Y142844D01*
D02*
G37*
G36*
X105229Y140061D02*
X105414Y139931D01*
X105581Y139811D01*
X105719Y139691D01*
X105849Y139589D01*
X105941Y139497D01*
X106015Y139423D01*
X106061Y139377D01*
X106080Y139358D01*
X106135Y139284D01*
X106200Y139201D01*
X106302Y139035D01*
X106339Y138961D01*
X106376Y138905D01*
X106394Y138868D01*
X106404Y138850D01*
X106431Y139016D01*
X106459Y139173D01*
X106505Y139312D01*
X106542Y139451D01*
X106588Y139571D01*
X106644Y139682D01*
X106690Y139784D01*
X106736Y139876D01*
X106792Y139950D01*
X106838Y140024D01*
X106875Y140079D01*
X106912Y140126D01*
X106940Y140163D01*
X106967Y140190D01*
X106977Y140200D01*
X106986Y140209D01*
X107078Y140283D01*
X107171Y140357D01*
X107365Y140468D01*
X107559Y140542D01*
X107744Y140597D01*
X107901Y140634D01*
X107966Y140643D01*
X108031D01*
X108077Y140653D01*
X108114D01*
X108132D01*
X108142D01*
X108336Y140643D01*
X108511Y140616D01*
X108678Y140569D01*
X108817Y140523D01*
X108937Y140468D01*
X109029Y140431D01*
X109085Y140394D01*
X109094Y140385D01*
X109103D01*
X109251Y140274D01*
X109381Y140163D01*
X109492Y140042D01*
X109575Y139931D01*
X109640Y139830D01*
X109676Y139747D01*
X109704Y139691D01*
X109713Y139682D01*
Y139673D01*
X109741Y139589D01*
X109769Y139488D01*
X109815Y139284D01*
X109843Y139062D01*
X109871Y138859D01*
X109880Y138665D01*
Y138582D01*
X109889Y138508D01*
Y135540D01*
X103491D01*
Y136390D01*
X106329D01*
Y137481D01*
X106320Y137583D01*
Y137657D01*
X106311Y137722D01*
X106302Y137768D01*
Y137805D01*
X106292Y137823D01*
Y137833D01*
X106246Y137981D01*
X106219Y138045D01*
X106191Y138101D01*
X106163Y138156D01*
X106145Y138193D01*
X106135Y138212D01*
X106126Y138221D01*
X106071Y138295D01*
X106006Y138369D01*
X105867Y138508D01*
X105802Y138572D01*
X105747Y138619D01*
X105710Y138646D01*
X105701Y138656D01*
X105571Y138748D01*
X105433Y138850D01*
X105285Y138952D01*
X105146Y139053D01*
X105017Y139136D01*
X104915Y139201D01*
X104878Y139229D01*
X104850Y139247D01*
X104832Y139266D01*
X104823D01*
X103491Y140107D01*
Y141161D01*
X105229Y140061D01*
D02*
G37*
G36*
X193750Y114008D02*
X193593Y113915D01*
X193445Y113814D01*
X193297Y113693D01*
X193168Y113582D01*
X193057Y113471D01*
X192964Y113388D01*
X192936Y113351D01*
X192909Y113324D01*
X192899Y113314D01*
X192890Y113305D01*
X192733Y113111D01*
X192585Y112917D01*
X192456Y112732D01*
X192354Y112547D01*
X192262Y112390D01*
X192225Y112325D01*
X192197Y112270D01*
X192169Y112223D01*
X192160Y112186D01*
X192141Y112168D01*
Y112159D01*
X191383D01*
X191439Y112297D01*
X191503Y112436D01*
X191568Y112575D01*
X191633Y112704D01*
X191688Y112815D01*
X191735Y112907D01*
X191772Y112963D01*
X191781Y112972D01*
Y112982D01*
X191882Y113148D01*
X191984Y113296D01*
X192077Y113425D01*
X192160Y113527D01*
X192225Y113619D01*
X192280Y113675D01*
X192317Y113721D01*
X192326Y113730D01*
X187324D01*
Y114516D01*
X193750D01*
Y114008D01*
D02*
G37*
G36*
X193722Y109644D02*
X188693D01*
X193722Y106288D01*
Y105419D01*
X187324D01*
Y106232D01*
X192345D01*
X187324Y109579D01*
Y110457D01*
X193722D01*
Y109644D01*
D02*
G37*
G36*
X189062Y103505D02*
X189247Y103375D01*
X189414Y103255D01*
X189552Y103135D01*
X189682Y103033D01*
X189774Y102941D01*
X189848Y102867D01*
X189895Y102821D01*
X189913Y102802D01*
X189969Y102728D01*
X190033Y102645D01*
X190135Y102479D01*
X190172Y102404D01*
X190209Y102349D01*
X190228Y102312D01*
X190237Y102294D01*
X190264Y102460D01*
X190292Y102617D01*
X190338Y102756D01*
X190375Y102895D01*
X190422Y103015D01*
X190477Y103126D01*
X190523Y103227D01*
X190569Y103320D01*
X190625Y103394D01*
X190671Y103468D01*
X190708Y103523D01*
X190745Y103569D01*
X190773Y103607D01*
X190801Y103634D01*
X190810Y103644D01*
X190819Y103653D01*
X190912Y103727D01*
X191004Y103801D01*
X191198Y103912D01*
X191392Y103986D01*
X191577Y104041D01*
X191735Y104078D01*
X191799Y104087D01*
X191864D01*
X191910Y104096D01*
X191947D01*
X191966D01*
X191975D01*
X192169Y104087D01*
X192345Y104059D01*
X192511Y104013D01*
X192650Y103967D01*
X192770Y103912D01*
X192862Y103875D01*
X192918Y103838D01*
X192927Y103828D01*
X192936D01*
X193084Y103717D01*
X193214Y103607D01*
X193325Y103486D01*
X193408Y103375D01*
X193473Y103274D01*
X193510Y103190D01*
X193537Y103135D01*
X193547Y103126D01*
Y103117D01*
X193574Y103033D01*
X193602Y102931D01*
X193648Y102728D01*
X193676Y102506D01*
X193704Y102303D01*
X193713Y102109D01*
Y102025D01*
X193722Y101952D01*
Y98984D01*
X187324D01*
Y99834D01*
X190163D01*
Y100925D01*
X190154Y101027D01*
Y101101D01*
X190144Y101166D01*
X190135Y101212D01*
Y101249D01*
X190126Y101267D01*
Y101277D01*
X190079Y101425D01*
X190052Y101489D01*
X190024Y101545D01*
X189996Y101600D01*
X189978Y101637D01*
X189969Y101656D01*
X189959Y101665D01*
X189904Y101739D01*
X189839Y101813D01*
X189701Y101952D01*
X189636Y102016D01*
X189580Y102063D01*
X189543Y102090D01*
X189534Y102099D01*
X189405Y102192D01*
X189266Y102294D01*
X189118Y102395D01*
X188979Y102497D01*
X188850Y102580D01*
X188748Y102645D01*
X188711Y102673D01*
X188683Y102691D01*
X188665Y102710D01*
X188656D01*
X187324Y103551D01*
Y104605D01*
X189062Y103505D01*
D02*
G37*
G36*
X131423Y158375D02*
X130683Y158274D01*
X130618Y158375D01*
X130535Y158459D01*
X130461Y158542D01*
X130387Y158607D01*
X130313Y158653D01*
X130258Y158699D01*
X130221Y158717D01*
X130212Y158727D01*
X130091Y158782D01*
X129971Y158828D01*
X129860Y158856D01*
X129749Y158884D01*
X129657Y158893D01*
X129583Y158902D01*
X129407D01*
X129296Y158884D01*
X129102Y158838D01*
X128936Y158773D01*
X128788Y158708D01*
X128677Y158634D01*
X128594Y158569D01*
X128547Y158523D01*
X128529Y158514D01*
Y158505D01*
X128400Y158348D01*
X128307Y158181D01*
X128242Y158006D01*
X128196Y157830D01*
X128168Y157682D01*
X128159Y157617D01*
Y157562D01*
X128150Y157515D01*
Y157479D01*
Y157460D01*
Y157451D01*
Y157321D01*
X128168Y157201D01*
X128215Y156970D01*
X128279Y156776D01*
X128344Y156619D01*
X128418Y156489D01*
X128483Y156388D01*
X128511Y156360D01*
X128529Y156332D01*
X128538Y156323D01*
X128547Y156314D01*
X128622Y156240D01*
X128695Y156175D01*
X128862Y156064D01*
X129019Y155990D01*
X129176Y155944D01*
X129306Y155907D01*
X129417Y155898D01*
X129454Y155888D01*
X129509D01*
X129685Y155898D01*
X129842Y155934D01*
X129981Y155981D01*
X130091Y156036D01*
X130193Y156092D01*
X130267Y156138D01*
X130304Y156175D01*
X130323Y156184D01*
X130434Y156314D01*
X130526Y156452D01*
X130600Y156609D01*
X130655Y156748D01*
X130693Y156887D01*
X130720Y156988D01*
X130730Y157035D01*
X130739Y157063D01*
Y157081D01*
Y157090D01*
X131562Y157025D01*
X131543Y156878D01*
X131515Y156739D01*
X131432Y156480D01*
X131330Y156258D01*
X131275Y156156D01*
X131220Y156073D01*
X131173Y155990D01*
X131118Y155916D01*
X131072Y155861D01*
X131025Y155814D01*
X130988Y155777D01*
X130970Y155740D01*
X130951Y155731D01*
X130942Y155722D01*
X130831Y155639D01*
X130720Y155565D01*
X130600Y155500D01*
X130480Y155444D01*
X130249Y155361D01*
X130017Y155306D01*
X129916Y155278D01*
X129814Y155269D01*
X129731Y155260D01*
X129657Y155250D01*
X129592Y155241D01*
X129509D01*
X129315Y155250D01*
X129130Y155278D01*
X128954Y155315D01*
X128797Y155361D01*
X128649Y155426D01*
X128511Y155491D01*
X128381Y155555D01*
X128270Y155629D01*
X128168Y155703D01*
X128076Y155768D01*
X128002Y155842D01*
X127937Y155898D01*
X127891Y155944D01*
X127854Y155981D01*
X127836Y156009D01*
X127826Y156018D01*
X127734Y156138D01*
X127660Y156267D01*
X127586Y156388D01*
X127530Y156517D01*
X127438Y156767D01*
X127382Y157007D01*
X127364Y157109D01*
X127346Y157210D01*
X127336Y157294D01*
X127327Y157368D01*
X127318Y157432D01*
Y157479D01*
Y157506D01*
Y157515D01*
X127327Y157682D01*
X127346Y157839D01*
X127373Y157996D01*
X127410Y158135D01*
X127457Y158264D01*
X127503Y158394D01*
X127558Y158505D01*
X127604Y158607D01*
X127660Y158699D01*
X127715Y158782D01*
X127762Y158847D01*
X127808Y158912D01*
X127845Y158958D01*
X127873Y158986D01*
X127891Y159004D01*
X127900Y159013D01*
X128011Y159115D01*
X128122Y159207D01*
X128242Y159281D01*
X128363Y159346D01*
X128483Y159411D01*
X128603Y159457D01*
X128825Y159522D01*
X128927Y159550D01*
X129019Y159568D01*
X129102Y159577D01*
X129176Y159586D01*
X129232Y159596D01*
X129435D01*
X129546Y159577D01*
X129768Y159531D01*
X129971Y159466D01*
X130156Y159392D01*
X130304Y159318D01*
X130369Y159281D01*
X130424Y159254D01*
X130471Y159226D01*
X130498Y159207D01*
X130517Y159198D01*
X130526Y159189D01*
X130184Y160918D01*
X127623D01*
Y161667D01*
X130803D01*
X131423Y158375D01*
D02*
G37*
G36*
X137682Y155352D02*
X136832D01*
Y158190D01*
X135741D01*
X135639Y158181D01*
X135565D01*
X135500Y158172D01*
X135454Y158163D01*
X135417D01*
X135399Y158153D01*
X135389D01*
X135241Y158107D01*
X135177Y158080D01*
X135121Y158052D01*
X135066Y158024D01*
X135029Y158006D01*
X135010Y157996D01*
X135001Y157987D01*
X134927Y157932D01*
X134853Y157867D01*
X134714Y157728D01*
X134650Y157663D01*
X134603Y157608D01*
X134576Y157571D01*
X134566Y157562D01*
X134474Y157432D01*
X134372Y157294D01*
X134270Y157146D01*
X134169Y157007D01*
X134086Y156878D01*
X134021Y156776D01*
X133993Y156739D01*
X133975Y156711D01*
X133956Y156693D01*
Y156683D01*
X133115Y155352D01*
X132061D01*
X133161Y157090D01*
X133291Y157275D01*
X133411Y157442D01*
X133531Y157580D01*
X133633Y157710D01*
X133725Y157802D01*
X133799Y157876D01*
X133845Y157922D01*
X133864Y157941D01*
X133938Y157996D01*
X134021Y158061D01*
X134187Y158163D01*
X134261Y158200D01*
X134317Y158237D01*
X134354Y158255D01*
X134372Y158264D01*
X134206Y158292D01*
X134049Y158320D01*
X133910Y158366D01*
X133771Y158403D01*
X133651Y158449D01*
X133540Y158505D01*
X133438Y158551D01*
X133346Y158597D01*
X133272Y158653D01*
X133198Y158699D01*
X133143Y158736D01*
X133096Y158773D01*
X133059Y158801D01*
X133032Y158828D01*
X133022Y158838D01*
X133013Y158847D01*
X132939Y158939D01*
X132865Y159032D01*
X132754Y159226D01*
X132680Y159420D01*
X132625Y159605D01*
X132588Y159762D01*
X132579Y159827D01*
Y159892D01*
X132569Y159938D01*
Y159975D01*
Y159993D01*
Y160003D01*
X132579Y160197D01*
X132606Y160372D01*
X132653Y160539D01*
X132699Y160678D01*
X132754Y160798D01*
X132791Y160890D01*
X132828Y160946D01*
X132837Y160955D01*
Y160964D01*
X132948Y161112D01*
X133059Y161241D01*
X133180Y161352D01*
X133291Y161436D01*
X133392Y161500D01*
X133475Y161537D01*
X133531Y161565D01*
X133540Y161574D01*
X133549D01*
X133633Y161602D01*
X133734Y161630D01*
X133938Y161676D01*
X134160Y161704D01*
X134363Y161731D01*
X134557Y161741D01*
X134640D01*
X134714Y161750D01*
X137682D01*
Y155352D01*
D02*
G37*
G36*
X137583Y74224D02*
X137740Y74335D01*
X137804Y74390D01*
X137869Y74437D01*
X137924Y74483D01*
X137962Y74520D01*
X137989Y74548D01*
X137999Y74557D01*
X138045Y74603D01*
X138091Y74658D01*
X138211Y74788D01*
X138350Y74936D01*
X138489Y75093D01*
X138609Y75241D01*
X138664Y75306D01*
X138720Y75361D01*
X138757Y75407D01*
X138784Y75444D01*
X138803Y75463D01*
X138812Y75472D01*
X138942Y75620D01*
X139062Y75768D01*
X139182Y75897D01*
X139284Y76018D01*
X139385Y76129D01*
X139478Y76221D01*
X139561Y76313D01*
X139635Y76387D01*
X139709Y76461D01*
X139764Y76517D01*
X139811Y76563D01*
X139857Y76609D01*
X139912Y76656D01*
X139931Y76674D01*
X140088Y76803D01*
X140227Y76914D01*
X140365Y77007D01*
X140476Y77081D01*
X140578Y77136D01*
X140652Y77173D01*
X140698Y77192D01*
X140717Y77201D01*
X140855Y77256D01*
X140994Y77294D01*
X141124Y77330D01*
X141235Y77349D01*
X141336Y77358D01*
X141410Y77367D01*
X141456D01*
X141475D01*
X141614Y77358D01*
X141743Y77340D01*
X141872Y77321D01*
X141983Y77284D01*
X142205Y77192D01*
X142381Y77099D01*
X142464Y77044D01*
X142529Y76998D01*
X142594Y76951D01*
X142640Y76905D01*
X142677Y76868D01*
X142714Y76850D01*
X142723Y76831D01*
X142732Y76822D01*
X142825Y76720D01*
X142908Y76609D01*
X142973Y76489D01*
X143028Y76369D01*
X143121Y76129D01*
X143185Y75888D01*
X143204Y75786D01*
X143222Y75685D01*
X143231Y75592D01*
X143241Y75518D01*
X143250Y75454D01*
Y75361D01*
X143241Y75195D01*
X143231Y75037D01*
X143204Y74890D01*
X143176Y74751D01*
X143139Y74622D01*
X143102Y74501D01*
X143056Y74390D01*
X143010Y74289D01*
X142963Y74196D01*
X142917Y74122D01*
X142880Y74057D01*
X142843Y74002D01*
X142816Y73956D01*
X142788Y73928D01*
X142779Y73910D01*
X142769Y73900D01*
X142677Y73808D01*
X142575Y73725D01*
X142464Y73642D01*
X142353Y73577D01*
X142131Y73466D01*
X141909Y73392D01*
X141808Y73364D01*
X141706Y73336D01*
X141623Y73318D01*
X141549Y73299D01*
X141484Y73290D01*
X141438D01*
X141410Y73281D01*
X141401D01*
X141318Y74085D01*
X141530Y74104D01*
X141715Y74141D01*
X141882Y74196D01*
X142011Y74261D01*
X142122Y74316D01*
X142196Y74372D01*
X142242Y74409D01*
X142261Y74427D01*
X142372Y74566D01*
X142455Y74714D01*
X142520Y74871D01*
X142557Y75010D01*
X142584Y75139D01*
X142594Y75250D01*
X142603Y75287D01*
Y75343D01*
X142594Y75537D01*
X142557Y75712D01*
X142501Y75860D01*
X142446Y75990D01*
X142381Y76091D01*
X142335Y76156D01*
X142298Y76203D01*
X142279Y76221D01*
X142150Y76332D01*
X142020Y76415D01*
X141891Y76480D01*
X141762Y76517D01*
X141660Y76545D01*
X141567Y76554D01*
X141512Y76563D01*
X141503D01*
X141493D01*
X141327Y76545D01*
X141151Y76508D01*
X140994Y76443D01*
X140846Y76378D01*
X140726Y76304D01*
X140624Y76240D01*
X140587Y76221D01*
X140560Y76203D01*
X140550Y76184D01*
X140541D01*
X140439Y76110D01*
X140338Y76018D01*
X140227Y75916D01*
X140116Y75805D01*
X139894Y75574D01*
X139672Y75343D01*
X139570Y75223D01*
X139478Y75121D01*
X139395Y75019D01*
X139321Y74936D01*
X139265Y74871D01*
X139219Y74816D01*
X139191Y74779D01*
X139182Y74769D01*
X138988Y74538D01*
X138803Y74326D01*
X138637Y74150D01*
X138498Y74011D01*
X138378Y73891D01*
X138294Y73808D01*
X138239Y73762D01*
X138230Y73743D01*
X138220D01*
X138063Y73614D01*
X137915Y73512D01*
X137767Y73420D01*
X137638Y73346D01*
X137527Y73290D01*
X137444Y73253D01*
X137388Y73235D01*
X137379Y73225D01*
X137370D01*
X137268Y73188D01*
X137176Y73170D01*
X137083Y73151D01*
X137000Y73142D01*
X136926Y73133D01*
X136870D01*
X136834D01*
X136824D01*
Y77377D01*
X137583D01*
Y74224D01*
D02*
G37*
G36*
X138562Y71644D02*
X138747Y71515D01*
X138914Y71395D01*
X139052Y71275D01*
X139182Y71173D01*
X139274Y71080D01*
X139348Y71006D01*
X139395Y70960D01*
X139413Y70942D01*
X139469Y70868D01*
X139533Y70785D01*
X139635Y70618D01*
X139672Y70544D01*
X139709Y70489D01*
X139727Y70452D01*
X139737Y70433D01*
X139764Y70600D01*
X139792Y70757D01*
X139838Y70896D01*
X139875Y71034D01*
X139922Y71154D01*
X139977Y71265D01*
X140023Y71367D01*
X140070Y71459D01*
X140125Y71533D01*
X140171Y71607D01*
X140208Y71663D01*
X140245Y71709D01*
X140273Y71746D01*
X140301Y71774D01*
X140310Y71783D01*
X140319Y71792D01*
X140412Y71866D01*
X140504Y71940D01*
X140698Y72051D01*
X140892Y72125D01*
X141077Y72181D01*
X141235Y72218D01*
X141299Y72227D01*
X141364D01*
X141410Y72236D01*
X141447D01*
X141466D01*
X141475D01*
X141669Y72227D01*
X141845Y72199D01*
X142011Y72153D01*
X142150Y72107D01*
X142270Y72051D01*
X142362Y72014D01*
X142418Y71977D01*
X142427Y71968D01*
X142436D01*
X142584Y71857D01*
X142714Y71746D01*
X142825Y71626D01*
X142908Y71515D01*
X142973Y71413D01*
X143010Y71330D01*
X143037Y71275D01*
X143047Y71265D01*
Y71256D01*
X143074Y71173D01*
X143102Y71071D01*
X143148Y70868D01*
X143176Y70646D01*
X143204Y70443D01*
X143213Y70248D01*
Y70165D01*
X143222Y70091D01*
Y67123D01*
X136824D01*
Y67974D01*
X139663D01*
Y69065D01*
X139654Y69167D01*
Y69241D01*
X139644Y69305D01*
X139635Y69352D01*
Y69388D01*
X139626Y69407D01*
Y69416D01*
X139579Y69564D01*
X139552Y69629D01*
X139524Y69684D01*
X139496Y69740D01*
X139478Y69777D01*
X139469Y69795D01*
X139459Y69805D01*
X139404Y69879D01*
X139339Y69953D01*
X139200Y70091D01*
X139136Y70156D01*
X139080Y70202D01*
X139043Y70230D01*
X139034Y70239D01*
X138905Y70332D01*
X138766Y70433D01*
X138618Y70535D01*
X138479Y70637D01*
X138350Y70720D01*
X138248Y70785D01*
X138211Y70812D01*
X138183Y70831D01*
X138165Y70849D01*
X138156D01*
X136824Y71691D01*
Y72745D01*
X138562Y71644D01*
D02*
G37*
G36*
X120958Y50991D02*
X121134Y50972D01*
X121300Y50935D01*
X121458Y50889D01*
X121596Y50824D01*
X121735Y50769D01*
X121855Y50695D01*
X121966Y50630D01*
X122058Y50566D01*
X122151Y50491D01*
X122225Y50436D01*
X122280Y50381D01*
X122327Y50325D01*
X122364Y50288D01*
X122382Y50270D01*
X122391Y50260D01*
X122512Y50094D01*
X122613Y49900D01*
X122706Y49696D01*
X122789Y49484D01*
X122854Y49262D01*
X122909Y49040D01*
X122955Y48809D01*
X122992Y48596D01*
X123020Y48383D01*
X123039Y48189D01*
X123057Y48014D01*
X123066Y47866D01*
Y47736D01*
X123075Y47644D01*
Y47607D01*
Y47579D01*
Y47570D01*
Y47561D01*
X123066Y47265D01*
X123048Y46987D01*
X123020Y46729D01*
X122974Y46488D01*
X122928Y46276D01*
X122881Y46081D01*
X122826Y45906D01*
X122761Y45749D01*
X122706Y45619D01*
X122650Y45499D01*
X122604Y45406D01*
X122548Y45323D01*
X122512Y45258D01*
X122484Y45222D01*
X122465Y45194D01*
X122456Y45184D01*
X122336Y45055D01*
X122206Y44944D01*
X122077Y44852D01*
X121947Y44769D01*
X121809Y44694D01*
X121679Y44639D01*
X121550Y44593D01*
X121420Y44556D01*
X121309Y44528D01*
X121199Y44500D01*
X121106Y44482D01*
X121023Y44473D01*
X120949D01*
X120903Y44463D01*
X120857D01*
X120644Y44473D01*
X120450Y44510D01*
X120274Y44547D01*
X120117Y44602D01*
X119997Y44648D01*
X119904Y44694D01*
X119867Y44704D01*
X119839Y44722D01*
X119830Y44731D01*
X119821D01*
X119664Y44843D01*
X119516Y44972D01*
X119396Y45101D01*
X119294Y45231D01*
X119211Y45351D01*
X119155Y45443D01*
X119137Y45480D01*
X119118Y45508D01*
X119109Y45517D01*
Y45527D01*
X119017Y45721D01*
X118952Y45924D01*
X118906Y46109D01*
X118878Y46285D01*
X118850Y46433D01*
Y46488D01*
X118841Y46544D01*
Y46590D01*
Y46618D01*
Y46636D01*
Y46645D01*
X118850Y46812D01*
X118869Y46969D01*
X118896Y47126D01*
X118924Y47265D01*
X118970Y47394D01*
X119017Y47524D01*
X119063Y47635D01*
X119118Y47736D01*
X119174Y47829D01*
X119220Y47912D01*
X119266Y47977D01*
X119312Y48041D01*
X119340Y48088D01*
X119368Y48115D01*
X119387Y48134D01*
X119396Y48143D01*
X119497Y48245D01*
X119608Y48337D01*
X119728Y48411D01*
X119839Y48476D01*
X119950Y48541D01*
X120061Y48587D01*
X120274Y48652D01*
X120366Y48679D01*
X120459Y48698D01*
X120533Y48707D01*
X120607Y48716D01*
X120662Y48726D01*
X120736D01*
X120903Y48716D01*
X121060Y48689D01*
X121208Y48661D01*
X121337Y48624D01*
X121448Y48578D01*
X121531Y48550D01*
X121587Y48522D01*
X121596Y48513D01*
X121605D01*
X121753Y48421D01*
X121883Y48319D01*
X122003Y48217D01*
X122095Y48106D01*
X122179Y48014D01*
X122243Y47940D01*
X122280Y47884D01*
X122290Y47875D01*
Y48041D01*
X122280Y48208D01*
X122271Y48356D01*
X122253Y48504D01*
X122243Y48633D01*
X122225Y48753D01*
X122206Y48864D01*
X122179Y48966D01*
X122160Y49058D01*
X122142Y49132D01*
X122123Y49197D01*
X122114Y49253D01*
X122095Y49290D01*
X122086Y49317D01*
X122077Y49336D01*
Y49345D01*
X121985Y49530D01*
X121892Y49696D01*
X121790Y49826D01*
X121698Y49937D01*
X121615Y50029D01*
X121550Y50094D01*
X121504Y50131D01*
X121485Y50140D01*
X121374Y50214D01*
X121263Y50260D01*
X121152Y50297D01*
X121041Y50325D01*
X120958Y50344D01*
X120884Y50353D01*
X120820D01*
X120653Y50334D01*
X120496Y50297D01*
X120366Y50242D01*
X120246Y50186D01*
X120154Y50122D01*
X120089Y50066D01*
X120052Y50029D01*
X120034Y50011D01*
X119969Y49928D01*
X119904Y49826D01*
X119849Y49715D01*
X119812Y49604D01*
X119775Y49502D01*
X119747Y49419D01*
X119738Y49364D01*
X119728Y49354D01*
Y49345D01*
X118943Y49410D01*
X118998Y49669D01*
X119081Y49900D01*
X119174Y50103D01*
X119276Y50270D01*
X119377Y50399D01*
X119414Y50455D01*
X119460Y50501D01*
X119488Y50528D01*
X119516Y50556D01*
X119525Y50566D01*
X119534Y50575D01*
X119627Y50649D01*
X119728Y50713D01*
X119932Y50824D01*
X120135Y50898D01*
X120330Y50945D01*
X120505Y50981D01*
X120579Y50991D01*
X120644D01*
X120699Y51000D01*
X120773D01*
X120958Y50991D01*
D02*
G37*
G36*
X129159Y44574D02*
X128308D01*
Y47413D01*
X127218D01*
X127116Y47403D01*
X127042D01*
X126977Y47394D01*
X126931Y47385D01*
X126894D01*
X126875Y47376D01*
X126866D01*
X126718Y47330D01*
X126653Y47302D01*
X126598Y47274D01*
X126543Y47246D01*
X126506Y47228D01*
X126487Y47219D01*
X126478Y47209D01*
X126404Y47154D01*
X126330Y47089D01*
X126191Y46950D01*
X126126Y46886D01*
X126080Y46830D01*
X126053Y46793D01*
X126043Y46784D01*
X125951Y46655D01*
X125849Y46516D01*
X125747Y46368D01*
X125646Y46229D01*
X125562Y46100D01*
X125498Y45998D01*
X125470Y45961D01*
X125452Y45933D01*
X125433Y45915D01*
Y45906D01*
X124592Y44574D01*
X123538D01*
X124638Y46312D01*
X124767Y46497D01*
X124888Y46664D01*
X125008Y46803D01*
X125110Y46932D01*
X125202Y47024D01*
X125276Y47098D01*
X125322Y47145D01*
X125341Y47163D01*
X125415Y47219D01*
X125498Y47283D01*
X125664Y47385D01*
X125738Y47422D01*
X125794Y47459D01*
X125831Y47477D01*
X125849Y47487D01*
X125683Y47514D01*
X125526Y47542D01*
X125387Y47588D01*
X125248Y47625D01*
X125128Y47672D01*
X125017Y47727D01*
X124915Y47773D01*
X124823Y47819D01*
X124749Y47875D01*
X124675Y47921D01*
X124620Y47958D01*
X124573Y47995D01*
X124536Y48023D01*
X124508Y48051D01*
X124499Y48060D01*
X124490Y48069D01*
X124416Y48162D01*
X124342Y48254D01*
X124231Y48448D01*
X124157Y48642D01*
X124102Y48827D01*
X124065Y48984D01*
X124056Y49049D01*
Y49114D01*
X124046Y49160D01*
Y49197D01*
Y49216D01*
Y49225D01*
X124056Y49419D01*
X124083Y49595D01*
X124129Y49761D01*
X124176Y49900D01*
X124231Y50020D01*
X124268Y50112D01*
X124305Y50168D01*
X124314Y50177D01*
Y50186D01*
X124425Y50334D01*
X124536Y50464D01*
X124656Y50575D01*
X124767Y50658D01*
X124869Y50723D01*
X124952Y50760D01*
X125008Y50787D01*
X125017Y50797D01*
X125026D01*
X125110Y50824D01*
X125211Y50852D01*
X125415Y50898D01*
X125637Y50926D01*
X125840Y50954D01*
X126034Y50963D01*
X126117D01*
X126191Y50972D01*
X129159D01*
Y44574D01*
D02*
G37*
G36*
X38521Y25271D02*
X38706Y25252D01*
X38882Y25234D01*
X39039Y25215D01*
X39187Y25197D01*
X39325Y25169D01*
X39446Y25141D01*
X39547Y25114D01*
X39640Y25095D01*
X39723Y25068D01*
X39788Y25049D01*
X39834Y25031D01*
X39871Y25012D01*
X39890Y25003D01*
X39899D01*
X40121Y24892D01*
X40315Y24772D01*
X40481Y24633D01*
X40620Y24513D01*
X40722Y24393D01*
X40796Y24300D01*
X40823Y24263D01*
X40842Y24235D01*
X40860Y24226D01*
Y24217D01*
X40971Y24023D01*
X41055Y23829D01*
X41119Y23634D01*
X41156Y23459D01*
X41184Y23302D01*
X41193Y23237D01*
Y23191D01*
X41202Y23144D01*
Y23080D01*
X41193Y22922D01*
X41175Y22775D01*
X41147Y22627D01*
X41110Y22497D01*
X41008Y22248D01*
X40962Y22137D01*
X40907Y22044D01*
X40842Y21952D01*
X40796Y21878D01*
X40740Y21804D01*
X40694Y21748D01*
X40657Y21702D01*
X40629Y21674D01*
X40611Y21656D01*
X40601Y21647D01*
X40490Y21545D01*
X40361Y21462D01*
X40241Y21379D01*
X40111Y21314D01*
X39973Y21258D01*
X39843Y21212D01*
X39603Y21147D01*
X39483Y21120D01*
X39381Y21101D01*
X39279Y21092D01*
X39196Y21083D01*
X39131Y21073D01*
X39085D01*
X39048D01*
X39039D01*
X38863Y21083D01*
X38706Y21101D01*
X38549Y21120D01*
X38401Y21157D01*
X38272Y21203D01*
X38142Y21249D01*
X38031Y21295D01*
X37929Y21351D01*
X37837Y21397D01*
X37754Y21443D01*
X37689Y21490D01*
X37624Y21536D01*
X37578Y21573D01*
X37550Y21591D01*
X37532Y21610D01*
X37523Y21619D01*
X37421Y21721D01*
X37338Y21832D01*
X37255Y21943D01*
X37190Y22063D01*
X37134Y22174D01*
X37088Y22285D01*
X37023Y22497D01*
X36996Y22590D01*
X36977Y22682D01*
X36968Y22756D01*
X36959Y22830D01*
X36949Y22886D01*
Y22959D01*
X36959Y23135D01*
X36986Y23302D01*
X37023Y23449D01*
X37070Y23588D01*
X37107Y23690D01*
X37144Y23773D01*
X37171Y23829D01*
X37181Y23847D01*
X37273Y23995D01*
X37375Y24125D01*
X37476Y24235D01*
X37569Y24328D01*
X37661Y24393D01*
X37726Y24448D01*
X37772Y24485D01*
X37791Y24494D01*
X37717D01*
X37671D01*
X37643D01*
X37634D01*
X37449Y24485D01*
X37273Y24476D01*
X37116Y24457D01*
X36968Y24439D01*
X36848Y24411D01*
X36755Y24393D01*
X36718Y24383D01*
X36691D01*
X36681Y24374D01*
X36672D01*
X36506Y24328D01*
X36358Y24282D01*
X36228Y24235D01*
X36117Y24189D01*
X36034Y24152D01*
X35969Y24115D01*
X35923Y24097D01*
X35914Y24088D01*
X35812Y24014D01*
X35729Y23940D01*
X35655Y23866D01*
X35590Y23792D01*
X35535Y23736D01*
X35498Y23681D01*
X35479Y23644D01*
X35470Y23634D01*
X35415Y23533D01*
X35378Y23422D01*
X35350Y23320D01*
X35331Y23218D01*
X35322Y23135D01*
X35313Y23070D01*
Y23006D01*
X35322Y22858D01*
X35350Y22719D01*
X35387Y22599D01*
X35433Y22497D01*
X35470Y22423D01*
X35507Y22359D01*
X35535Y22322D01*
X35544Y22312D01*
X35646Y22220D01*
X35766Y22146D01*
X35895Y22081D01*
X36025Y22035D01*
X36136Y21998D01*
X36237Y21970D01*
X36274Y21961D01*
X36293D01*
X36312Y21952D01*
X36321D01*
X36256Y21194D01*
X35988Y21249D01*
X35757Y21323D01*
X35553Y21416D01*
X35387Y21508D01*
X35257Y21600D01*
X35202Y21647D01*
X35156Y21684D01*
X35128Y21711D01*
X35100Y21739D01*
X35091Y21748D01*
X35082Y21758D01*
X35008Y21850D01*
X34943Y21952D01*
X34841Y22155D01*
X34767Y22359D01*
X34721Y22553D01*
X34684Y22728D01*
X34675Y22802D01*
Y22867D01*
X34666Y22913D01*
Y22987D01*
X34684Y23246D01*
X34721Y23477D01*
X34786Y23690D01*
X34860Y23866D01*
X34888Y23940D01*
X34925Y24014D01*
X34962Y24069D01*
X34989Y24125D01*
X35008Y24161D01*
X35026Y24189D01*
X35045Y24208D01*
Y24217D01*
X35202Y24402D01*
X35378Y24568D01*
X35563Y24698D01*
X35738Y24809D01*
X35895Y24901D01*
X35969Y24938D01*
X36025Y24966D01*
X36080Y24984D01*
X36117Y25003D01*
X36136Y25012D01*
X36145D01*
X36284Y25058D01*
X36441Y25104D01*
X36755Y25169D01*
X37088Y25215D01*
X37403Y25243D01*
X37541Y25262D01*
X37680Y25271D01*
X37800D01*
X37902Y25280D01*
X37985D01*
X38050D01*
X38096D01*
X38105D01*
X38318D01*
X38521Y25271D01*
D02*
G37*
G36*
X41202Y18549D02*
X41045Y18457D01*
X40897Y18355D01*
X40749Y18235D01*
X40620Y18124D01*
X40509Y18013D01*
X40416Y17930D01*
X40389Y17893D01*
X40361Y17865D01*
X40352Y17856D01*
X40343Y17847D01*
X40185Y17652D01*
X40037Y17458D01*
X39908Y17273D01*
X39806Y17089D01*
X39714Y16931D01*
X39677Y16867D01*
X39649Y16811D01*
X39621Y16765D01*
X39612Y16728D01*
X39594Y16710D01*
Y16700D01*
X38835D01*
X38891Y16839D01*
X38956Y16978D01*
X39020Y17116D01*
X39085Y17246D01*
X39141Y17357D01*
X39187Y17449D01*
X39224Y17505D01*
X39233Y17514D01*
Y17523D01*
X39335Y17689D01*
X39437Y17838D01*
X39529Y17967D01*
X39612Y18069D01*
X39677Y18161D01*
X39732Y18217D01*
X39769Y18263D01*
X39779Y18272D01*
X34777D01*
Y19058D01*
X41202D01*
Y18549D01*
D02*
G37*
G36*
X37014Y14527D02*
X36866Y14490D01*
X36727Y14444D01*
X36598Y14398D01*
X36478Y14352D01*
X36367Y14296D01*
X36274Y14241D01*
X36182Y14176D01*
X36099Y14121D01*
X36025Y14074D01*
X35969Y14019D01*
X35914Y13973D01*
X35868Y13936D01*
X35840Y13899D01*
X35812Y13871D01*
X35803Y13862D01*
X35794Y13853D01*
X35720Y13760D01*
X35664Y13658D01*
X35563Y13455D01*
X35489Y13261D01*
X35442Y13067D01*
X35405Y12900D01*
X35396Y12836D01*
Y12771D01*
X35387Y12715D01*
Y12651D01*
X35396Y12438D01*
X35433Y12235D01*
X35479Y12050D01*
X35535Y11883D01*
X35590Y11754D01*
X35618Y11698D01*
X35637Y11652D01*
X35655Y11615D01*
X35673Y11587D01*
X35683Y11569D01*
Y11560D01*
X35812Y11384D01*
X35951Y11236D01*
X36108Y11107D01*
X36256Y11005D01*
X36385Y10922D01*
X36496Y10866D01*
X36543Y10848D01*
X36570Y10829D01*
X36589Y10820D01*
X36598D01*
X36839Y10746D01*
X37079Y10691D01*
X37319Y10644D01*
X37541Y10617D01*
X37643Y10607D01*
X37735Y10598D01*
X37819D01*
X37883Y10589D01*
X37939D01*
X37985D01*
X38013D01*
X38022D01*
X38262Y10598D01*
X38484Y10617D01*
X38688Y10654D01*
X38872Y10691D01*
X39030Y10718D01*
X39094Y10737D01*
X39150Y10755D01*
X39196Y10765D01*
X39224Y10774D01*
X39242Y10783D01*
X39252D01*
X39464Y10876D01*
X39658Y10977D01*
X39816Y11088D01*
X39954Y11208D01*
X40065Y11310D01*
X40139Y11393D01*
X40185Y11458D01*
X40204Y11467D01*
Y11477D01*
X40324Y11671D01*
X40416Y11883D01*
X40481Y12087D01*
X40518Y12281D01*
X40546Y12457D01*
X40555Y12530D01*
Y12595D01*
X40564Y12641D01*
Y12715D01*
X40555Y12946D01*
X40518Y13159D01*
X40463Y13335D01*
X40407Y13492D01*
X40343Y13612D01*
X40296Y13705D01*
X40259Y13760D01*
X40241Y13779D01*
X40102Y13927D01*
X39945Y14065D01*
X39779Y14176D01*
X39612Y14269D01*
X39464Y14343D01*
X39390Y14370D01*
X39335Y14389D01*
X39289Y14407D01*
X39252Y14426D01*
X39233Y14435D01*
X39224D01*
X39418Y15267D01*
X39584Y15212D01*
X39732Y15156D01*
X39871Y15082D01*
X40010Y15017D01*
X40130Y14944D01*
X40241Y14860D01*
X40352Y14786D01*
X40444Y14712D01*
X40518Y14639D01*
X40592Y14574D01*
X40657Y14509D01*
X40703Y14463D01*
X40749Y14417D01*
X40777Y14380D01*
X40786Y14361D01*
X40796Y14352D01*
X40879Y14222D01*
X40962Y14093D01*
X41027Y13964D01*
X41082Y13825D01*
X41165Y13548D01*
X41221Y13298D01*
X41249Y13178D01*
X41258Y13076D01*
X41267Y12974D01*
X41276Y12891D01*
X41286Y12826D01*
Y12734D01*
X41267Y12429D01*
X41221Y12133D01*
X41165Y11874D01*
X41128Y11754D01*
X41091Y11643D01*
X41055Y11541D01*
X41017Y11449D01*
X40990Y11375D01*
X40962Y11301D01*
X40934Y11255D01*
X40916Y11218D01*
X40907Y11190D01*
X40897Y11181D01*
X40740Y10931D01*
X40555Y10718D01*
X40370Y10533D01*
X40185Y10376D01*
X40019Y10256D01*
X39945Y10210D01*
X39880Y10173D01*
X39834Y10136D01*
X39797Y10117D01*
X39769Y10108D01*
X39760Y10099D01*
X39474Y9969D01*
X39178Y9877D01*
X38882Y9812D01*
X38614Y9766D01*
X38493Y9748D01*
X38373Y9738D01*
X38281Y9729D01*
X38188D01*
X38124Y9720D01*
X38068D01*
X38031D01*
X38022D01*
X37689Y9738D01*
X37366Y9775D01*
X37079Y9822D01*
X36940Y9858D01*
X36820Y9886D01*
X36709Y9914D01*
X36607Y9951D01*
X36515Y9979D01*
X36441Y9997D01*
X36385Y10025D01*
X36339Y10034D01*
X36312Y10053D01*
X36302D01*
X36025Y10191D01*
X35775Y10349D01*
X35563Y10515D01*
X35479Y10598D01*
X35396Y10672D01*
X35322Y10746D01*
X35257Y10820D01*
X35202Y10885D01*
X35165Y10940D01*
X35128Y10977D01*
X35100Y11014D01*
X35091Y11033D01*
X35082Y11042D01*
X35008Y11171D01*
X34943Y11301D01*
X34841Y11578D01*
X34767Y11856D01*
X34721Y12124D01*
X34703Y12253D01*
X34684Y12364D01*
X34675Y12466D01*
Y12549D01*
X34666Y12623D01*
Y12725D01*
X34675Y12909D01*
X34694Y13085D01*
X34712Y13252D01*
X34749Y13409D01*
X34795Y13557D01*
X34841Y13695D01*
X34888Y13825D01*
X34943Y13945D01*
X34989Y14047D01*
X35036Y14148D01*
X35082Y14222D01*
X35128Y14296D01*
X35165Y14343D01*
X35183Y14389D01*
X35202Y14407D01*
X35211Y14417D01*
X35322Y14546D01*
X35433Y14657D01*
X35563Y14759D01*
X35692Y14860D01*
X35951Y15027D01*
X36210Y15156D01*
X36330Y15212D01*
X36441Y15258D01*
X36543Y15295D01*
X36626Y15323D01*
X36700Y15350D01*
X36755Y15369D01*
X36792Y15378D01*
X36802D01*
X37014Y14527D01*
D02*
G37*
G36*
X193543Y127014D02*
X192804Y126913D01*
X192739Y127014D01*
X192656Y127098D01*
X192582Y127181D01*
X192508Y127246D01*
X192434Y127292D01*
X192379Y127338D01*
X192341Y127357D01*
X192332Y127366D01*
X192212Y127421D01*
X192092Y127467D01*
X191981Y127495D01*
X191870Y127523D01*
X191777Y127532D01*
X191704Y127541D01*
X191528D01*
X191417Y127523D01*
X191223Y127477D01*
X191056Y127412D01*
X190909Y127347D01*
X190798Y127273D01*
X190714Y127209D01*
X190668Y127162D01*
X190650Y127153D01*
Y127144D01*
X190520Y126987D01*
X190428Y126820D01*
X190363Y126645D01*
X190317Y126469D01*
X190289Y126321D01*
X190280Y126256D01*
Y126201D01*
X190271Y126155D01*
Y126118D01*
Y126099D01*
Y126090D01*
Y125960D01*
X190289Y125840D01*
X190335Y125609D01*
X190400Y125415D01*
X190465Y125258D01*
X190539Y125128D01*
X190603Y125027D01*
X190631Y124999D01*
X190650Y124971D01*
X190659Y124962D01*
X190668Y124953D01*
X190742Y124879D01*
X190816Y124814D01*
X190982Y124703D01*
X191140Y124629D01*
X191297Y124583D01*
X191426Y124546D01*
X191537Y124537D01*
X191574Y124527D01*
X191630D01*
X191805Y124537D01*
X191963Y124574D01*
X192101Y124620D01*
X192212Y124675D01*
X192314Y124731D01*
X192388Y124777D01*
X192425Y124814D01*
X192443Y124823D01*
X192554Y124953D01*
X192647Y125091D01*
X192721Y125248D01*
X192776Y125387D01*
X192813Y125526D01*
X192841Y125628D01*
X192850Y125674D01*
X192859Y125702D01*
Y125720D01*
Y125729D01*
X193682Y125665D01*
X193664Y125517D01*
X193636Y125378D01*
X193553Y125119D01*
X193451Y124897D01*
X193396Y124796D01*
X193340Y124712D01*
X193294Y124629D01*
X193238Y124555D01*
X193192Y124500D01*
X193146Y124453D01*
X193109Y124416D01*
X193090Y124379D01*
X193072Y124370D01*
X193063Y124361D01*
X192952Y124278D01*
X192841Y124204D01*
X192721Y124139D01*
X192600Y124083D01*
X192369Y124000D01*
X192138Y123945D01*
X192036Y123917D01*
X191935Y123908D01*
X191852Y123899D01*
X191777Y123889D01*
X191713Y123880D01*
X191630D01*
X191436Y123889D01*
X191250Y123917D01*
X191075Y123954D01*
X190918Y124000D01*
X190770Y124065D01*
X190631Y124130D01*
X190502Y124194D01*
X190391Y124269D01*
X190289Y124342D01*
X190196Y124407D01*
X190123Y124481D01*
X190058Y124537D01*
X190012Y124583D01*
X189975Y124620D01*
X189956Y124648D01*
X189947Y124657D01*
X189855Y124777D01*
X189781Y124906D01*
X189706Y125027D01*
X189651Y125156D01*
X189559Y125406D01*
X189503Y125646D01*
X189485Y125748D01*
X189466Y125850D01*
X189457Y125933D01*
X189448Y126007D01*
X189438Y126071D01*
Y126118D01*
Y126145D01*
Y126155D01*
X189448Y126321D01*
X189466Y126478D01*
X189494Y126635D01*
X189531Y126774D01*
X189577Y126903D01*
X189623Y127033D01*
X189679Y127144D01*
X189725Y127246D01*
X189781Y127338D01*
X189836Y127421D01*
X189882Y127486D01*
X189928Y127551D01*
X189965Y127597D01*
X189993Y127625D01*
X190012Y127643D01*
X190021Y127652D01*
X190132Y127754D01*
X190243Y127846D01*
X190363Y127921D01*
X190483Y127985D01*
X190603Y128050D01*
X190723Y128096D01*
X190945Y128161D01*
X191047Y128189D01*
X191140Y128207D01*
X191223Y128216D01*
X191297Y128226D01*
X191352Y128235D01*
X191556D01*
X191667Y128216D01*
X191889Y128170D01*
X192092Y128105D01*
X192277Y128031D01*
X192425Y127957D01*
X192489Y127921D01*
X192545Y127893D01*
X192591Y127865D01*
X192619Y127846D01*
X192637Y127837D01*
X192647Y127828D01*
X192304Y129557D01*
X189743D01*
Y130306D01*
X192924D01*
X193543Y127014D01*
D02*
G37*
G36*
X197353Y130482D02*
X197649Y130435D01*
X197907Y130380D01*
X198028Y130343D01*
X198139Y130306D01*
X198240Y130269D01*
X198333Y130232D01*
X198407Y130204D01*
X198481Y130176D01*
X198527Y130149D01*
X198564Y130130D01*
X198592Y130121D01*
X198601Y130112D01*
X198850Y129955D01*
X199063Y129770D01*
X199248Y129585D01*
X199405Y129400D01*
X199525Y129233D01*
X199572Y129159D01*
X199609Y129095D01*
X199646Y129048D01*
X199664Y129011D01*
X199673Y128984D01*
X199683Y128975D01*
X199812Y128688D01*
X199904Y128392D01*
X199969Y128096D01*
X200015Y127828D01*
X200034Y127708D01*
X200043Y127588D01*
X200052Y127495D01*
Y127403D01*
X200062Y127338D01*
Y127282D01*
Y127246D01*
Y127236D01*
X200043Y126903D01*
X200006Y126580D01*
X199960Y126293D01*
X199923Y126155D01*
X199895Y126034D01*
X199867Y125923D01*
X199830Y125822D01*
X199803Y125729D01*
X199784Y125655D01*
X199757Y125600D01*
X199747Y125554D01*
X199729Y125526D01*
Y125517D01*
X199590Y125239D01*
X199433Y124990D01*
X199266Y124777D01*
X199183Y124694D01*
X199109Y124611D01*
X199035Y124537D01*
X198961Y124472D01*
X198897Y124416D01*
X198841Y124379D01*
X198804Y124342D01*
X198767Y124315D01*
X198749Y124305D01*
X198739Y124296D01*
X198610Y124222D01*
X198481Y124157D01*
X198203Y124056D01*
X197926Y123982D01*
X197658Y123936D01*
X197528Y123917D01*
X197417Y123899D01*
X197316Y123889D01*
X197232D01*
X197159Y123880D01*
X197057D01*
X196872Y123889D01*
X196696Y123908D01*
X196530Y123926D01*
X196373Y123963D01*
X196225Y124010D01*
X196086Y124056D01*
X195957Y124102D01*
X195836Y124157D01*
X195735Y124204D01*
X195633Y124250D01*
X195559Y124296D01*
X195485Y124342D01*
X195439Y124379D01*
X195393Y124398D01*
X195374Y124416D01*
X195365Y124426D01*
X195235Y124537D01*
X195124Y124648D01*
X195023Y124777D01*
X194921Y124906D01*
X194755Y125165D01*
X194625Y125424D01*
X194570Y125544D01*
X194524Y125655D01*
X194487Y125757D01*
X194459Y125840D01*
X194431Y125914D01*
X194412Y125970D01*
X194403Y126007D01*
Y126016D01*
X195254Y126229D01*
X195291Y126081D01*
X195337Y125942D01*
X195383Y125813D01*
X195430Y125692D01*
X195485Y125581D01*
X195541Y125489D01*
X195605Y125396D01*
X195661Y125313D01*
X195707Y125239D01*
X195762Y125184D01*
X195809Y125128D01*
X195846Y125082D01*
X195883Y125054D01*
X195910Y125027D01*
X195920Y125017D01*
X195929Y125008D01*
X196021Y124934D01*
X196123Y124879D01*
X196326Y124777D01*
X196521Y124703D01*
X196715Y124657D01*
X196881Y124620D01*
X196946Y124611D01*
X197011D01*
X197066Y124601D01*
X197131D01*
X197343Y124611D01*
X197547Y124648D01*
X197732Y124694D01*
X197898Y124749D01*
X198028Y124805D01*
X198083Y124832D01*
X198129Y124851D01*
X198166Y124869D01*
X198194Y124888D01*
X198213Y124897D01*
X198222D01*
X198397Y125027D01*
X198545Y125165D01*
X198675Y125323D01*
X198776Y125470D01*
X198860Y125600D01*
X198915Y125711D01*
X198934Y125757D01*
X198952Y125785D01*
X198961Y125803D01*
Y125813D01*
X199035Y126053D01*
X199091Y126293D01*
X199137Y126534D01*
X199165Y126756D01*
X199174Y126857D01*
X199183Y126950D01*
Y127033D01*
X199193Y127098D01*
Y127153D01*
Y127199D01*
Y127227D01*
Y127236D01*
X199183Y127477D01*
X199165Y127699D01*
X199128Y127902D01*
X199091Y128087D01*
X199063Y128244D01*
X199045Y128309D01*
X199026Y128364D01*
X199017Y128411D01*
X199008Y128438D01*
X198998Y128457D01*
Y128466D01*
X198906Y128679D01*
X198804Y128873D01*
X198693Y129030D01*
X198573Y129169D01*
X198471Y129280D01*
X198388Y129354D01*
X198323Y129400D01*
X198314Y129418D01*
X198305D01*
X198111Y129538D01*
X197898Y129631D01*
X197695Y129696D01*
X197501Y129733D01*
X197325Y129760D01*
X197251Y129770D01*
X197186D01*
X197140Y129779D01*
X197066D01*
X196835Y129770D01*
X196622Y129733D01*
X196447Y129677D01*
X196289Y129622D01*
X196169Y129557D01*
X196077Y129511D01*
X196021Y129474D01*
X196003Y129455D01*
X195855Y129317D01*
X195716Y129159D01*
X195605Y128993D01*
X195513Y128827D01*
X195439Y128679D01*
X195411Y128605D01*
X195393Y128549D01*
X195374Y128503D01*
X195356Y128466D01*
X195346Y128448D01*
Y128438D01*
X194514Y128632D01*
X194570Y128799D01*
X194625Y128947D01*
X194699Y129085D01*
X194764Y129224D01*
X194838Y129344D01*
X194921Y129455D01*
X194995Y129566D01*
X195069Y129659D01*
X195143Y129733D01*
X195208Y129807D01*
X195272Y129871D01*
X195319Y129917D01*
X195365Y129964D01*
X195402Y129992D01*
X195420Y130001D01*
X195430Y130010D01*
X195559Y130093D01*
X195688Y130176D01*
X195818Y130241D01*
X195957Y130297D01*
X196234Y130380D01*
X196484Y130435D01*
X196604Y130463D01*
X196705Y130472D01*
X196807Y130482D01*
X196890Y130491D01*
X196955Y130500D01*
X197048D01*
X197353Y130482D01*
D02*
G37*
G36*
X274171Y164898D02*
X274421Y164852D01*
X274633Y164778D01*
X274818Y164704D01*
X274901Y164658D01*
X274966Y164621D01*
X275031Y164584D01*
X275077Y164547D01*
X275114Y164519D01*
X275142Y164501D01*
X275160Y164492D01*
X275169Y164482D01*
X275345Y164307D01*
X275484Y164112D01*
X275595Y163909D01*
X275687Y163706D01*
X275743Y163530D01*
X275770Y163456D01*
X275789Y163391D01*
X275798Y163336D01*
X275807Y163299D01*
X275817Y163271D01*
Y163262D01*
X275031Y163123D01*
X274994Y163326D01*
X274938Y163502D01*
X274874Y163650D01*
X274809Y163770D01*
X274744Y163863D01*
X274689Y163927D01*
X274652Y163974D01*
X274642Y163983D01*
X274522Y164075D01*
X274393Y164149D01*
X274273Y164196D01*
X274152Y164233D01*
X274041Y164251D01*
X273958Y164270D01*
X273884D01*
X273718Y164260D01*
X273570Y164223D01*
X273440Y164177D01*
X273330Y164131D01*
X273246Y164075D01*
X273182Y164029D01*
X273135Y163992D01*
X273126Y163983D01*
X273024Y163872D01*
X272950Y163752D01*
X272904Y163632D01*
X272867Y163521D01*
X272849Y163419D01*
X272830Y163345D01*
Y163290D01*
Y163280D01*
Y163271D01*
Y163169D01*
X272849Y163077D01*
X272895Y162920D01*
X272960Y162781D01*
X273034Y162661D01*
X273108Y162578D01*
X273172Y162513D01*
X273219Y162476D01*
X273228Y162467D01*
X273237D01*
X273394Y162383D01*
X273542Y162319D01*
X273699Y162272D01*
X273838Y162245D01*
X273958Y162226D01*
X274060Y162208D01*
X274180D01*
X274217Y162217D01*
X274263D01*
X274356Y161524D01*
X274236Y161551D01*
X274125Y161570D01*
X274032Y161588D01*
X273949Y161598D01*
X273884Y161607D01*
X273801D01*
X273607Y161588D01*
X273431Y161551D01*
X273274Y161496D01*
X273145Y161431D01*
X273043Y161367D01*
X272969Y161311D01*
X272923Y161274D01*
X272904Y161255D01*
X272784Y161117D01*
X272692Y160969D01*
X272627Y160821D01*
X272590Y160673D01*
X272562Y160553D01*
X272553Y160451D01*
X272544Y160414D01*
Y160386D01*
Y160368D01*
Y160359D01*
X272562Y160155D01*
X272608Y159970D01*
X272664Y159813D01*
X272738Y159675D01*
X272812Y159564D01*
X272867Y159480D01*
X272913Y159425D01*
X272932Y159406D01*
X273080Y159277D01*
X273237Y159185D01*
X273394Y159120D01*
X273542Y159074D01*
X273672Y159046D01*
X273773Y159037D01*
X273810Y159027D01*
X273866D01*
X274032Y159037D01*
X274189Y159074D01*
X274328Y159120D01*
X274439Y159175D01*
X274531Y159221D01*
X274605Y159268D01*
X274642Y159305D01*
X274661Y159314D01*
X274772Y159443D01*
X274864Y159591D01*
X274947Y159748D01*
X275012Y159915D01*
X275058Y160054D01*
X275077Y160118D01*
X275086Y160174D01*
X275095Y160220D01*
X275105Y160257D01*
X275114Y160275D01*
Y160285D01*
X275900Y160183D01*
X275881Y160035D01*
X275854Y159896D01*
X275770Y159638D01*
X275669Y159416D01*
X275613Y159323D01*
X275558Y159231D01*
X275502Y159148D01*
X275447Y159083D01*
X275401Y159018D01*
X275354Y158972D01*
X275327Y158935D01*
X275299Y158907D01*
X275280Y158889D01*
X275271Y158879D01*
X275160Y158796D01*
X275049Y158713D01*
X274938Y158648D01*
X274818Y158593D01*
X274587Y158500D01*
X274365Y158445D01*
X274263Y158426D01*
X274171Y158408D01*
X274088Y158399D01*
X274014Y158389D01*
X273958Y158380D01*
X273875D01*
X273699Y158389D01*
X273542Y158408D01*
X273385Y158436D01*
X273237Y158473D01*
X273098Y158519D01*
X272978Y158565D01*
X272858Y158621D01*
X272756Y158676D01*
X272655Y158722D01*
X272571Y158778D01*
X272497Y158824D01*
X272442Y158870D01*
X272396Y158907D01*
X272359Y158935D01*
X272340Y158953D01*
X272331Y158963D01*
X272220Y159074D01*
X272128Y159194D01*
X272044Y159314D01*
X271970Y159434D01*
X271915Y159545D01*
X271859Y159665D01*
X271786Y159887D01*
X271767Y159989D01*
X271749Y160081D01*
X271730Y160165D01*
X271721Y160238D01*
X271712Y160294D01*
Y160340D01*
Y160368D01*
Y160377D01*
X271721Y160599D01*
X271758Y160802D01*
X271813Y160978D01*
X271869Y161126D01*
X271924Y161246D01*
X271980Y161339D01*
X272017Y161394D01*
X272026Y161413D01*
X272155Y161551D01*
X272294Y161672D01*
X272442Y161764D01*
X272590Y161838D01*
X272719Y161894D01*
X272821Y161931D01*
X272858Y161940D01*
X272886Y161949D01*
X272904Y161958D01*
X272913D01*
X272756Y162041D01*
X272627Y162125D01*
X272516Y162217D01*
X272423Y162300D01*
X272349Y162374D01*
X272294Y162439D01*
X272266Y162476D01*
X272257Y162494D01*
X272183Y162624D01*
X272128Y162753D01*
X272081Y162883D01*
X272054Y163003D01*
X272035Y163105D01*
X272026Y163179D01*
Y163234D01*
Y163253D01*
X272035Y163410D01*
X272063Y163567D01*
X272100Y163706D01*
X272146Y163826D01*
X272192Y163927D01*
X272229Y164011D01*
X272257Y164057D01*
X272266Y164075D01*
X272359Y164214D01*
X272470Y164334D01*
X272581Y164436D01*
X272692Y164529D01*
X272784Y164593D01*
X272867Y164649D01*
X272923Y164676D01*
X272932Y164686D01*
X272941D01*
X273108Y164760D01*
X273274Y164815D01*
X273440Y164861D01*
X273588Y164889D01*
X273709Y164907D01*
X273810Y164917D01*
X274041D01*
X274171Y164898D01*
D02*
G37*
G36*
X279580Y164981D02*
X279875Y164935D01*
X280134Y164880D01*
X280254Y164843D01*
X280365Y164806D01*
X280467Y164769D01*
X280560Y164732D01*
X280634Y164704D01*
X280707Y164676D01*
X280754Y164649D01*
X280791Y164630D01*
X280818Y164621D01*
X280828Y164612D01*
X281077Y164454D01*
X281290Y164270D01*
X281475Y164085D01*
X281632Y163900D01*
X281752Y163733D01*
X281798Y163659D01*
X281835Y163595D01*
X281872Y163548D01*
X281891Y163512D01*
X281900Y163484D01*
X281909Y163475D01*
X282039Y163188D01*
X282131Y162892D01*
X282196Y162596D01*
X282242Y162328D01*
X282261Y162208D01*
X282270Y162088D01*
X282279Y161995D01*
Y161903D01*
X282288Y161838D01*
Y161782D01*
Y161745D01*
Y161736D01*
X282270Y161404D01*
X282233Y161080D01*
X282187Y160793D01*
X282150Y160655D01*
X282122Y160534D01*
X282094Y160423D01*
X282057Y160322D01*
X282030Y160229D01*
X282011Y160155D01*
X281983Y160100D01*
X281974Y160054D01*
X281956Y160026D01*
Y160017D01*
X281817Y159739D01*
X281660Y159490D01*
X281493Y159277D01*
X281410Y159194D01*
X281336Y159111D01*
X281262Y159037D01*
X281188Y158972D01*
X281124Y158916D01*
X281068Y158879D01*
X281031Y158842D01*
X280994Y158815D01*
X280976Y158805D01*
X280966Y158796D01*
X280837Y158722D01*
X280707Y158658D01*
X280430Y158556D01*
X280153Y158482D01*
X279885Y158436D01*
X279755Y158417D01*
X279644Y158399D01*
X279543Y158389D01*
X279459D01*
X279385Y158380D01*
X279284D01*
X279099Y158389D01*
X278923Y158408D01*
X278757Y158426D01*
X278599Y158463D01*
X278452Y158510D01*
X278313Y158556D01*
X278183Y158602D01*
X278063Y158658D01*
X277962Y158704D01*
X277860Y158750D01*
X277786Y158796D01*
X277712Y158842D01*
X277666Y158879D01*
X277619Y158898D01*
X277601Y158916D01*
X277592Y158926D01*
X277462Y159037D01*
X277351Y159148D01*
X277250Y159277D01*
X277148Y159406D01*
X276982Y159665D01*
X276852Y159924D01*
X276797Y160044D01*
X276750Y160155D01*
X276713Y160257D01*
X276686Y160340D01*
X276658Y160414D01*
X276639Y160470D01*
X276630Y160507D01*
Y160516D01*
X277481Y160728D01*
X277518Y160581D01*
X277564Y160442D01*
X277610Y160312D01*
X277656Y160192D01*
X277712Y160081D01*
X277767Y159989D01*
X277832Y159896D01*
X277888Y159813D01*
X277934Y159739D01*
X277989Y159684D01*
X278036Y159628D01*
X278072Y159582D01*
X278109Y159554D01*
X278137Y159527D01*
X278146Y159517D01*
X278156Y159508D01*
X278248Y159434D01*
X278350Y159379D01*
X278553Y159277D01*
X278747Y159203D01*
X278942Y159157D01*
X279108Y159120D01*
X279173Y159111D01*
X279237D01*
X279293Y159101D01*
X279358D01*
X279570Y159111D01*
X279774Y159148D01*
X279959Y159194D01*
X280125Y159249D01*
X280254Y159305D01*
X280310Y159332D01*
X280356Y159351D01*
X280393Y159369D01*
X280421Y159388D01*
X280439Y159397D01*
X280449D01*
X280624Y159527D01*
X280772Y159665D01*
X280902Y159823D01*
X281003Y159970D01*
X281087Y160100D01*
X281142Y160211D01*
X281161Y160257D01*
X281179Y160285D01*
X281188Y160303D01*
Y160312D01*
X281262Y160553D01*
X281318Y160793D01*
X281364Y161034D01*
X281392Y161255D01*
X281401Y161357D01*
X281410Y161450D01*
Y161533D01*
X281419Y161598D01*
Y161653D01*
Y161699D01*
Y161727D01*
Y161736D01*
X281410Y161977D01*
X281392Y162199D01*
X281355Y162402D01*
X281318Y162587D01*
X281290Y162744D01*
X281271Y162809D01*
X281253Y162864D01*
X281244Y162910D01*
X281234Y162938D01*
X281225Y162957D01*
Y162966D01*
X281133Y163179D01*
X281031Y163373D01*
X280920Y163530D01*
X280800Y163669D01*
X280698Y163780D01*
X280615Y163853D01*
X280550Y163900D01*
X280541Y163918D01*
X280532D01*
X280338Y164039D01*
X280125Y164131D01*
X279922Y164196D01*
X279727Y164233D01*
X279552Y164260D01*
X279478Y164270D01*
X279413D01*
X279367Y164279D01*
X279293D01*
X279062Y164270D01*
X278849Y164233D01*
X278673Y164177D01*
X278516Y164122D01*
X278396Y164057D01*
X278304Y164011D01*
X278248Y163974D01*
X278230Y163955D01*
X278082Y163817D01*
X277943Y163659D01*
X277832Y163493D01*
X277740Y163326D01*
X277666Y163179D01*
X277638Y163105D01*
X277619Y163049D01*
X277601Y163003D01*
X277582Y162966D01*
X277573Y162948D01*
Y162938D01*
X276741Y163132D01*
X276797Y163299D01*
X276852Y163447D01*
X276926Y163585D01*
X276991Y163724D01*
X277065Y163844D01*
X277148Y163955D01*
X277222Y164066D01*
X277296Y164159D01*
X277370Y164233D01*
X277435Y164307D01*
X277499Y164371D01*
X277546Y164417D01*
X277592Y164464D01*
X277629Y164492D01*
X277647Y164501D01*
X277656Y164510D01*
X277786Y164593D01*
X277915Y164676D01*
X278045Y164741D01*
X278183Y164797D01*
X278461Y164880D01*
X278710Y164935D01*
X278831Y164963D01*
X278932Y164972D01*
X279034Y164981D01*
X279117Y164991D01*
X279182Y165000D01*
X279274D01*
X279580Y164981D01*
D02*
G37*
G36*
X147176Y33908D02*
X147333Y33898D01*
X147481Y33871D01*
X147620Y33843D01*
X147749Y33806D01*
X147869Y33769D01*
X147980Y33723D01*
X148082Y33676D01*
X148174Y33630D01*
X148248Y33584D01*
X148313Y33547D01*
X148369Y33510D01*
X148415Y33482D01*
X148442Y33454D01*
X148461Y33445D01*
X148470Y33436D01*
X148563Y33344D01*
X148646Y33242D01*
X148729Y33131D01*
X148794Y33020D01*
X148905Y32798D01*
X148979Y32576D01*
X149007Y32475D01*
X149034Y32373D01*
X149053Y32290D01*
X149071Y32216D01*
X149080Y32151D01*
Y32105D01*
X149090Y32077D01*
Y32068D01*
X148285Y31985D01*
X148267Y32197D01*
X148230Y32382D01*
X148174Y32548D01*
X148110Y32678D01*
X148054Y32789D01*
X147999Y32863D01*
X147962Y32909D01*
X147943Y32927D01*
X147804Y33038D01*
X147657Y33122D01*
X147499Y33186D01*
X147361Y33223D01*
X147231Y33251D01*
X147120Y33260D01*
X147083Y33270D01*
X147028D01*
X146834Y33260D01*
X146658Y33223D01*
X146510Y33168D01*
X146381Y33112D01*
X146279Y33048D01*
X146214Y33001D01*
X146168Y32964D01*
X146150Y32946D01*
X146039Y32817D01*
X145955Y32687D01*
X145891Y32558D01*
X145854Y32428D01*
X145826Y32327D01*
X145817Y32234D01*
X145808Y32179D01*
Y32169D01*
Y32160D01*
X145826Y31994D01*
X145863Y31818D01*
X145928Y31661D01*
X145992Y31513D01*
X146066Y31393D01*
X146131Y31291D01*
X146150Y31254D01*
X146168Y31226D01*
X146187Y31217D01*
Y31208D01*
X146260Y31106D01*
X146353Y31004D01*
X146455Y30893D01*
X146566Y30782D01*
X146797Y30561D01*
X147028Y30339D01*
X147148Y30237D01*
X147250Y30145D01*
X147352Y30061D01*
X147435Y29987D01*
X147499Y29932D01*
X147555Y29886D01*
X147592Y29858D01*
X147601Y29849D01*
X147832Y29655D01*
X148045Y29470D01*
X148221Y29303D01*
X148359Y29165D01*
X148479Y29044D01*
X148563Y28961D01*
X148609Y28906D01*
X148627Y28896D01*
Y28887D01*
X148757Y28730D01*
X148858Y28582D01*
X148951Y28434D01*
X149025Y28305D01*
X149080Y28194D01*
X149117Y28111D01*
X149136Y28055D01*
X149145Y28046D01*
Y28037D01*
X149182Y27935D01*
X149201Y27842D01*
X149219Y27750D01*
X149228Y27667D01*
X149238Y27593D01*
Y27537D01*
Y27500D01*
Y27491D01*
X144994D01*
Y28249D01*
X148147D01*
X148036Y28406D01*
X147980Y28471D01*
X147934Y28536D01*
X147888Y28591D01*
X147851Y28628D01*
X147823Y28656D01*
X147814Y28665D01*
X147767Y28712D01*
X147712Y28758D01*
X147583Y28878D01*
X147435Y29017D01*
X147277Y29155D01*
X147130Y29276D01*
X147065Y29331D01*
X147009Y29386D01*
X146963Y29423D01*
X146926Y29451D01*
X146908Y29470D01*
X146898Y29479D01*
X146750Y29608D01*
X146603Y29729D01*
X146473Y29849D01*
X146353Y29950D01*
X146242Y30052D01*
X146150Y30145D01*
X146057Y30228D01*
X145983Y30302D01*
X145909Y30376D01*
X145854Y30431D01*
X145808Y30477D01*
X145761Y30524D01*
X145715Y30579D01*
X145696Y30598D01*
X145567Y30755D01*
X145456Y30893D01*
X145364Y31032D01*
X145290Y31143D01*
X145234Y31245D01*
X145197Y31319D01*
X145179Y31365D01*
X145169Y31384D01*
X145114Y31522D01*
X145077Y31661D01*
X145040Y31790D01*
X145022Y31901D01*
X145012Y32003D01*
X145003Y32077D01*
Y32123D01*
Y32142D01*
X145012Y32280D01*
X145031Y32410D01*
X145049Y32539D01*
X145086Y32650D01*
X145179Y32872D01*
X145271Y33048D01*
X145327Y33131D01*
X145373Y33196D01*
X145419Y33260D01*
X145465Y33307D01*
X145502Y33344D01*
X145521Y33381D01*
X145539Y33390D01*
X145549Y33399D01*
X145650Y33491D01*
X145761Y33575D01*
X145881Y33639D01*
X146002Y33695D01*
X146242Y33787D01*
X146482Y33852D01*
X146584Y33871D01*
X146686Y33889D01*
X146778Y33898D01*
X146852Y33908D01*
X146917Y33917D01*
X147009D01*
X147176Y33908D01*
D02*
G37*
G36*
X152797Y33981D02*
X153093Y33935D01*
X153352Y33880D01*
X153472Y33843D01*
X153583Y33806D01*
X153685Y33769D01*
X153777Y33732D01*
X153851Y33704D01*
X153925Y33676D01*
X153971Y33649D01*
X154008Y33630D01*
X154036Y33621D01*
X154045Y33612D01*
X154295Y33454D01*
X154508Y33270D01*
X154692Y33085D01*
X154850Y32900D01*
X154970Y32733D01*
X155016Y32659D01*
X155053Y32595D01*
X155090Y32548D01*
X155109Y32511D01*
X155118Y32484D01*
X155127Y32475D01*
X155257Y32188D01*
X155349Y31892D01*
X155414Y31596D01*
X155460Y31328D01*
X155478Y31208D01*
X155488Y31088D01*
X155497Y30995D01*
Y30903D01*
X155506Y30838D01*
Y30782D01*
Y30746D01*
Y30736D01*
X155488Y30403D01*
X155451Y30080D01*
X155404Y29793D01*
X155367Y29655D01*
X155340Y29534D01*
X155312Y29423D01*
X155275Y29322D01*
X155247Y29229D01*
X155229Y29155D01*
X155201Y29100D01*
X155192Y29054D01*
X155173Y29026D01*
Y29017D01*
X155035Y28739D01*
X154877Y28490D01*
X154711Y28277D01*
X154628Y28194D01*
X154554Y28111D01*
X154480Y28037D01*
X154406Y27972D01*
X154341Y27916D01*
X154286Y27879D01*
X154249Y27842D01*
X154212Y27815D01*
X154193Y27806D01*
X154184Y27796D01*
X154055Y27722D01*
X153925Y27657D01*
X153648Y27556D01*
X153370Y27482D01*
X153102Y27436D01*
X152973Y27417D01*
X152862Y27399D01*
X152760Y27389D01*
X152677D01*
X152603Y27380D01*
X152501D01*
X152316Y27389D01*
X152141Y27408D01*
X151974Y27426D01*
X151817Y27463D01*
X151669Y27510D01*
X151531Y27556D01*
X151401Y27602D01*
X151281Y27657D01*
X151179Y27704D01*
X151077Y27750D01*
X151004Y27796D01*
X150929Y27842D01*
X150883Y27879D01*
X150837Y27898D01*
X150819Y27916D01*
X150809Y27926D01*
X150680Y28037D01*
X150569Y28147D01*
X150467Y28277D01*
X150366Y28406D01*
X150199Y28665D01*
X150070Y28924D01*
X150014Y29044D01*
X149968Y29155D01*
X149931Y29257D01*
X149903Y29340D01*
X149875Y29414D01*
X149857Y29470D01*
X149848Y29507D01*
Y29516D01*
X150698Y29729D01*
X150735Y29581D01*
X150782Y29442D01*
X150828Y29313D01*
X150874Y29192D01*
X150929Y29081D01*
X150985Y28989D01*
X151050Y28896D01*
X151105Y28813D01*
X151151Y28739D01*
X151207Y28684D01*
X151253Y28628D01*
X151290Y28582D01*
X151327Y28554D01*
X151355Y28527D01*
X151364Y28517D01*
X151373Y28508D01*
X151466Y28434D01*
X151567Y28379D01*
X151771Y28277D01*
X151965Y28203D01*
X152159Y28157D01*
X152326Y28120D01*
X152390Y28111D01*
X152455D01*
X152510Y28101D01*
X152575D01*
X152788Y28111D01*
X152991Y28147D01*
X153176Y28194D01*
X153343Y28249D01*
X153472Y28305D01*
X153528Y28333D01*
X153574Y28351D01*
X153611Y28369D01*
X153638Y28388D01*
X153657Y28397D01*
X153666D01*
X153842Y28527D01*
X153990Y28665D01*
X154119Y28823D01*
X154221Y28970D01*
X154304Y29100D01*
X154360Y29211D01*
X154378Y29257D01*
X154397Y29285D01*
X154406Y29303D01*
Y29313D01*
X154480Y29553D01*
X154535Y29793D01*
X154582Y30034D01*
X154609Y30255D01*
X154619Y30357D01*
X154628Y30450D01*
Y30533D01*
X154637Y30598D01*
Y30653D01*
Y30699D01*
Y30727D01*
Y30736D01*
X154628Y30977D01*
X154609Y31199D01*
X154572Y31402D01*
X154535Y31587D01*
X154508Y31744D01*
X154489Y31809D01*
X154471Y31864D01*
X154461Y31911D01*
X154452Y31938D01*
X154443Y31957D01*
Y31966D01*
X154350Y32179D01*
X154249Y32373D01*
X154138Y32530D01*
X154018Y32669D01*
X153916Y32780D01*
X153833Y32854D01*
X153768Y32900D01*
X153759Y32918D01*
X153750D01*
X153555Y33038D01*
X153343Y33131D01*
X153139Y33196D01*
X152945Y33233D01*
X152769Y33260D01*
X152696Y33270D01*
X152631D01*
X152584Y33279D01*
X152510D01*
X152279Y33270D01*
X152067Y33233D01*
X151891Y33177D01*
X151734Y33122D01*
X151614Y33057D01*
X151521Y33011D01*
X151466Y32974D01*
X151447Y32955D01*
X151299Y32817D01*
X151161Y32659D01*
X151050Y32493D01*
X150957Y32327D01*
X150883Y32179D01*
X150856Y32105D01*
X150837Y32049D01*
X150819Y32003D01*
X150800Y31966D01*
X150791Y31948D01*
Y31938D01*
X149959Y32132D01*
X150014Y32299D01*
X150070Y32447D01*
X150144Y32585D01*
X150208Y32724D01*
X150282Y32844D01*
X150366Y32955D01*
X150440Y33066D01*
X150513Y33159D01*
X150588Y33233D01*
X150652Y33307D01*
X150717Y33371D01*
X150763Y33417D01*
X150809Y33464D01*
X150846Y33491D01*
X150865Y33501D01*
X150874Y33510D01*
X151004Y33593D01*
X151133Y33676D01*
X151262Y33741D01*
X151401Y33797D01*
X151678Y33880D01*
X151928Y33935D01*
X152048Y33963D01*
X152150Y33972D01*
X152252Y33981D01*
X152335Y33991D01*
X152400Y34000D01*
X152492D01*
X152797Y33981D01*
D02*
G37*
G36*
X274432Y134260D02*
X274534Y134112D01*
X274654Y133964D01*
X274765Y133834D01*
X274876Y133723D01*
X274959Y133631D01*
X274996Y133603D01*
X275024Y133575D01*
X275033Y133566D01*
X275042Y133557D01*
X275236Y133400D01*
X275431Y133252D01*
X275615Y133122D01*
X275800Y133021D01*
X275958Y132928D01*
X276022Y132891D01*
X276078Y132864D01*
X276124Y132836D01*
X276161Y132827D01*
X276179Y132808D01*
X276189D01*
Y132050D01*
X276050Y132105D01*
X275911Y132170D01*
X275772Y132235D01*
X275643Y132300D01*
X275532Y132355D01*
X275440Y132401D01*
X275384Y132438D01*
X275375Y132448D01*
X275366D01*
X275199Y132549D01*
X275051Y132651D01*
X274922Y132743D01*
X274820Y132827D01*
X274728Y132891D01*
X274672Y132947D01*
X274626Y132984D01*
X274617Y132993D01*
Y127991D01*
X273831D01*
Y134417D01*
X274340D01*
X274432Y134260D01*
D02*
G37*
G36*
X280460Y134481D02*
X280756Y134435D01*
X281015Y134380D01*
X281135Y134343D01*
X281246Y134306D01*
X281348Y134269D01*
X281440Y134232D01*
X281514Y134204D01*
X281588Y134176D01*
X281634Y134149D01*
X281671Y134130D01*
X281699Y134121D01*
X281708Y134112D01*
X281958Y133954D01*
X282171Y133770D01*
X282355Y133585D01*
X282513Y133400D01*
X282633Y133233D01*
X282679Y133159D01*
X282716Y133095D01*
X282753Y133048D01*
X282771Y133012D01*
X282781Y132984D01*
X282790Y132975D01*
X282919Y132688D01*
X283012Y132392D01*
X283077Y132096D01*
X283123Y131828D01*
X283141Y131708D01*
X283151Y131588D01*
X283160Y131495D01*
Y131403D01*
X283169Y131338D01*
Y131283D01*
Y131246D01*
Y131236D01*
X283151Y130904D01*
X283114Y130580D01*
X283067Y130293D01*
X283030Y130155D01*
X283003Y130034D01*
X282975Y129923D01*
X282938Y129822D01*
X282910Y129729D01*
X282892Y129655D01*
X282864Y129600D01*
X282855Y129554D01*
X282836Y129526D01*
Y129517D01*
X282698Y129239D01*
X282540Y128990D01*
X282374Y128777D01*
X282291Y128694D01*
X282217Y128611D01*
X282143Y128537D01*
X282069Y128472D01*
X282004Y128416D01*
X281949Y128379D01*
X281912Y128342D01*
X281875Y128315D01*
X281856Y128306D01*
X281847Y128296D01*
X281717Y128222D01*
X281588Y128158D01*
X281311Y128056D01*
X281033Y127982D01*
X280765Y127936D01*
X280636Y127917D01*
X280525Y127899D01*
X280423Y127889D01*
X280340D01*
X280266Y127880D01*
X280164D01*
X279979Y127889D01*
X279804Y127908D01*
X279637Y127926D01*
X279480Y127963D01*
X279332Y128010D01*
X279193Y128056D01*
X279064Y128102D01*
X278944Y128158D01*
X278842Y128204D01*
X278740Y128250D01*
X278666Y128296D01*
X278592Y128342D01*
X278546Y128379D01*
X278500Y128398D01*
X278482Y128416D01*
X278472Y128426D01*
X278343Y128537D01*
X278232Y128647D01*
X278130Y128777D01*
X278029Y128906D01*
X277862Y129165D01*
X277733Y129424D01*
X277677Y129544D01*
X277631Y129655D01*
X277594Y129757D01*
X277566Y129840D01*
X277539Y129914D01*
X277520Y129970D01*
X277511Y130007D01*
Y130016D01*
X278361Y130229D01*
X278398Y130081D01*
X278444Y129942D01*
X278491Y129812D01*
X278537Y129692D01*
X278592Y129581D01*
X278648Y129489D01*
X278713Y129396D01*
X278768Y129313D01*
X278814Y129239D01*
X278870Y129184D01*
X278916Y129128D01*
X278953Y129082D01*
X278990Y129054D01*
X279018Y129027D01*
X279027Y129017D01*
X279036Y129008D01*
X279129Y128934D01*
X279230Y128879D01*
X279434Y128777D01*
X279628Y128703D01*
X279822Y128657D01*
X279988Y128620D01*
X280053Y128611D01*
X280118D01*
X280173Y128601D01*
X280238D01*
X280451Y128611D01*
X280654Y128647D01*
X280839Y128694D01*
X281006Y128749D01*
X281135Y128805D01*
X281190Y128833D01*
X281237Y128851D01*
X281274Y128869D01*
X281301Y128888D01*
X281320Y128897D01*
X281329D01*
X281505Y129027D01*
X281653Y129165D01*
X281782Y129323D01*
X281884Y129470D01*
X281967Y129600D01*
X282023Y129711D01*
X282041Y129757D01*
X282060Y129785D01*
X282069Y129803D01*
Y129812D01*
X282143Y130053D01*
X282198Y130293D01*
X282244Y130534D01*
X282272Y130756D01*
X282281Y130857D01*
X282291Y130950D01*
Y131033D01*
X282300Y131098D01*
Y131153D01*
Y131199D01*
Y131227D01*
Y131236D01*
X282291Y131477D01*
X282272Y131699D01*
X282235Y131902D01*
X282198Y132087D01*
X282171Y132244D01*
X282152Y132309D01*
X282134Y132364D01*
X282124Y132410D01*
X282115Y132438D01*
X282106Y132457D01*
Y132466D01*
X282013Y132679D01*
X281912Y132873D01*
X281801Y133030D01*
X281681Y133169D01*
X281579Y133280D01*
X281496Y133354D01*
X281431Y133400D01*
X281422Y133418D01*
X281412D01*
X281218Y133539D01*
X281006Y133631D01*
X280802Y133696D01*
X280608Y133733D01*
X280432Y133760D01*
X280358Y133770D01*
X280294D01*
X280247Y133779D01*
X280173D01*
X279942Y133770D01*
X279730Y133733D01*
X279554Y133677D01*
X279397Y133622D01*
X279277Y133557D01*
X279184Y133511D01*
X279129Y133474D01*
X279110Y133455D01*
X278962Y133317D01*
X278824Y133159D01*
X278713Y132993D01*
X278620Y132827D01*
X278546Y132679D01*
X278519Y132605D01*
X278500Y132549D01*
X278482Y132503D01*
X278463Y132466D01*
X278454Y132448D01*
Y132438D01*
X277622Y132632D01*
X277677Y132799D01*
X277733Y132947D01*
X277807Y133085D01*
X277871Y133224D01*
X277945Y133344D01*
X278029Y133455D01*
X278102Y133566D01*
X278176Y133659D01*
X278250Y133733D01*
X278315Y133807D01*
X278380Y133871D01*
X278426Y133918D01*
X278472Y133964D01*
X278509Y133991D01*
X278528Y134001D01*
X278537Y134010D01*
X278666Y134093D01*
X278796Y134176D01*
X278925Y134241D01*
X279064Y134297D01*
X279341Y134380D01*
X279591Y134435D01*
X279711Y134463D01*
X279813Y134472D01*
X279915Y134481D01*
X279998Y134491D01*
X280063Y134500D01*
X280155D01*
X280460Y134481D01*
D02*
G37*
G36*
X36305Y164069D02*
X36462Y164051D01*
X36620Y164023D01*
X36758Y163995D01*
X36888Y163949D01*
X37017Y163903D01*
X37128Y163857D01*
X37230Y163801D01*
X37322Y163746D01*
X37405Y163699D01*
X37470Y163653D01*
X37535Y163607D01*
X37581Y163579D01*
X37609Y163551D01*
X37627Y163533D01*
X37637Y163524D01*
X37738Y163422D01*
X37831Y163311D01*
X37905Y163191D01*
X37969Y163080D01*
X38034Y162969D01*
X38080Y162858D01*
X38145Y162645D01*
X38173Y162553D01*
X38191Y162460D01*
X38201Y162386D01*
X38210Y162313D01*
X38219Y162257D01*
Y162183D01*
X38210Y162017D01*
X38182Y161859D01*
X38154Y161712D01*
X38117Y161582D01*
X38071Y161471D01*
X38043Y161388D01*
X38016Y161332D01*
X38006Y161323D01*
Y161314D01*
X37914Y161166D01*
X37812Y161037D01*
X37710Y160916D01*
X37600Y160824D01*
X37507Y160741D01*
X37433Y160676D01*
X37378Y160639D01*
X37368Y160630D01*
X37535D01*
X37701Y160639D01*
X37849Y160648D01*
X37997Y160667D01*
X38127Y160676D01*
X38247Y160695D01*
X38358Y160713D01*
X38459Y160741D01*
X38552Y160759D01*
X38626Y160778D01*
X38691Y160796D01*
X38746Y160805D01*
X38783Y160824D01*
X38811Y160833D01*
X38829Y160842D01*
X38839D01*
X39023Y160935D01*
X39190Y161027D01*
X39319Y161129D01*
X39430Y161222D01*
X39523Y161305D01*
X39587Y161369D01*
X39624Y161416D01*
X39634Y161434D01*
X39708Y161545D01*
X39754Y161656D01*
X39791Y161767D01*
X39818Y161878D01*
X39837Y161961D01*
X39846Y162035D01*
Y162100D01*
X39828Y162266D01*
X39791Y162423D01*
X39735Y162553D01*
X39680Y162673D01*
X39615Y162766D01*
X39560Y162830D01*
X39523Y162867D01*
X39504Y162886D01*
X39421Y162950D01*
X39319Y163015D01*
X39208Y163071D01*
X39097Y163108D01*
X38996Y163145D01*
X38912Y163172D01*
X38857Y163182D01*
X38848Y163191D01*
X38839D01*
X38903Y163977D01*
X39162Y163921D01*
X39393Y163838D01*
X39597Y163746D01*
X39763Y163644D01*
X39892Y163542D01*
X39948Y163505D01*
X39994Y163459D01*
X40022Y163431D01*
X40050Y163403D01*
X40059Y163394D01*
X40068Y163385D01*
X40142Y163293D01*
X40207Y163191D01*
X40318Y162987D01*
X40392Y162784D01*
X40438Y162590D01*
X40475Y162414D01*
X40484Y162340D01*
Y162276D01*
X40493Y162220D01*
Y162146D01*
X40484Y161961D01*
X40466Y161786D01*
X40429Y161619D01*
X40382Y161462D01*
X40318Y161323D01*
X40262Y161185D01*
X40188Y161064D01*
X40124Y160953D01*
X40059Y160861D01*
X39985Y160769D01*
X39929Y160695D01*
X39874Y160639D01*
X39818Y160593D01*
X39781Y160556D01*
X39763Y160537D01*
X39754Y160528D01*
X39587Y160408D01*
X39393Y160306D01*
X39190Y160214D01*
X38977Y160131D01*
X38755Y160066D01*
X38533Y160010D01*
X38302Y159964D01*
X38090Y159927D01*
X37877Y159899D01*
X37683Y159881D01*
X37507Y159862D01*
X37359Y159853D01*
X37230D01*
X37137Y159844D01*
X37100D01*
X37073D01*
X37063D01*
X37054D01*
X36758Y159853D01*
X36481Y159872D01*
X36222Y159899D01*
X35982Y159946D01*
X35769Y159992D01*
X35575Y160038D01*
X35399Y160094D01*
X35242Y160158D01*
X35113Y160214D01*
X34992Y160269D01*
X34900Y160315D01*
X34817Y160371D01*
X34752Y160408D01*
X34715Y160436D01*
X34687Y160454D01*
X34678Y160463D01*
X34548Y160584D01*
X34438Y160713D01*
X34345Y160842D01*
X34262Y160972D01*
X34188Y161111D01*
X34132Y161240D01*
X34086Y161369D01*
X34049Y161499D01*
X34021Y161610D01*
X33994Y161721D01*
X33975Y161813D01*
X33966Y161896D01*
Y161970D01*
X33957Y162017D01*
Y162063D01*
X33966Y162276D01*
X34003Y162470D01*
X34040Y162645D01*
X34095Y162803D01*
X34142Y162923D01*
X34188Y163015D01*
X34197Y163052D01*
X34216Y163080D01*
X34225Y163089D01*
Y163098D01*
X34336Y163256D01*
X34465Y163403D01*
X34595Y163524D01*
X34724Y163625D01*
X34844Y163709D01*
X34937Y163764D01*
X34974Y163783D01*
X35002Y163801D01*
X35011Y163810D01*
X35020D01*
X35214Y163903D01*
X35418Y163967D01*
X35603Y164014D01*
X35778Y164042D01*
X35926Y164069D01*
X35982D01*
X36037Y164078D01*
X36083D01*
X36111D01*
X36130D01*
X36139D01*
X36305Y164069D01*
D02*
G37*
G36*
Y158309D02*
X36157Y158272D01*
X36019Y158226D01*
X35889Y158180D01*
X35769Y158133D01*
X35658Y158078D01*
X35566Y158023D01*
X35473Y157958D01*
X35390Y157902D01*
X35316Y157856D01*
X35260Y157801D01*
X35205Y157754D01*
X35159Y157718D01*
X35131Y157681D01*
X35103Y157653D01*
X35094Y157643D01*
X35085Y157634D01*
X35011Y157542D01*
X34955Y157440D01*
X34854Y157237D01*
X34780Y157043D01*
X34733Y156848D01*
X34697Y156682D01*
X34687Y156617D01*
Y156552D01*
X34678Y156497D01*
Y156432D01*
X34687Y156220D01*
X34724Y156016D01*
X34770Y155831D01*
X34826Y155665D01*
X34881Y155535D01*
X34909Y155480D01*
X34928Y155434D01*
X34946Y155397D01*
X34965Y155369D01*
X34974Y155351D01*
Y155341D01*
X35103Y155166D01*
X35242Y155018D01*
X35399Y154888D01*
X35547Y154787D01*
X35677Y154703D01*
X35787Y154648D01*
X35834Y154629D01*
X35861Y154611D01*
X35880Y154602D01*
X35889D01*
X36130Y154528D01*
X36370Y154472D01*
X36610Y154426D01*
X36832Y154398D01*
X36934Y154389D01*
X37026Y154380D01*
X37110D01*
X37174Y154371D01*
X37230D01*
X37276D01*
X37304D01*
X37313D01*
X37553Y154380D01*
X37775Y154398D01*
X37979Y154435D01*
X38164Y154472D01*
X38321Y154500D01*
X38385Y154518D01*
X38441Y154537D01*
X38487Y154546D01*
X38515Y154556D01*
X38533Y154565D01*
X38543D01*
X38755Y154657D01*
X38949Y154759D01*
X39107Y154870D01*
X39245Y154990D01*
X39356Y155092D01*
X39430Y155175D01*
X39476Y155240D01*
X39495Y155249D01*
Y155258D01*
X39615Y155452D01*
X39708Y155665D01*
X39772Y155868D01*
X39809Y156062D01*
X39837Y156238D01*
X39846Y156312D01*
Y156377D01*
X39855Y156423D01*
Y156497D01*
X39846Y156728D01*
X39809Y156941D01*
X39754Y157116D01*
X39698Y157274D01*
X39634Y157394D01*
X39587Y157486D01*
X39550Y157542D01*
X39532Y157560D01*
X39393Y157708D01*
X39236Y157847D01*
X39070Y157958D01*
X38903Y158050D01*
X38755Y158124D01*
X38681Y158152D01*
X38626Y158170D01*
X38580Y158189D01*
X38543Y158208D01*
X38524Y158217D01*
X38515D01*
X38709Y159049D01*
X38876Y158993D01*
X39023Y158938D01*
X39162Y158864D01*
X39301Y158799D01*
X39421Y158725D01*
X39532Y158642D01*
X39643Y158568D01*
X39735Y158494D01*
X39809Y158420D01*
X39883Y158355D01*
X39948Y158291D01*
X39994Y158244D01*
X40040Y158198D01*
X40068Y158161D01*
X40077Y158143D01*
X40087Y158133D01*
X40170Y158004D01*
X40253Y157875D01*
X40318Y157745D01*
X40373Y157606D01*
X40457Y157329D01*
X40512Y157079D01*
X40540Y156959D01*
X40549Y156858D01*
X40558Y156756D01*
X40567Y156673D01*
X40577Y156608D01*
Y156516D01*
X40558Y156210D01*
X40512Y155915D01*
X40457Y155656D01*
X40420Y155535D01*
X40382Y155425D01*
X40346Y155323D01*
X40308Y155230D01*
X40281Y155156D01*
X40253Y155083D01*
X40225Y155036D01*
X40207Y154999D01*
X40198Y154972D01*
X40188Y154962D01*
X40031Y154713D01*
X39846Y154500D01*
X39661Y154315D01*
X39476Y154158D01*
X39310Y154038D01*
X39236Y153991D01*
X39171Y153954D01*
X39125Y153918D01*
X39088Y153899D01*
X39060Y153890D01*
X39051Y153881D01*
X38765Y153751D01*
X38469Y153659D01*
X38173Y153594D01*
X37905Y153548D01*
X37785Y153529D01*
X37664Y153520D01*
X37572Y153511D01*
X37479D01*
X37415Y153502D01*
X37359D01*
X37322D01*
X37313D01*
X36980Y153520D01*
X36656Y153557D01*
X36370Y153603D01*
X36231Y153640D01*
X36111Y153668D01*
X36000Y153696D01*
X35898Y153733D01*
X35806Y153760D01*
X35732Y153779D01*
X35677Y153807D01*
X35630Y153816D01*
X35603Y153834D01*
X35593D01*
X35316Y153973D01*
X35066Y154130D01*
X34854Y154297D01*
X34770Y154380D01*
X34687Y154454D01*
X34613Y154528D01*
X34548Y154602D01*
X34493Y154666D01*
X34456Y154722D01*
X34419Y154759D01*
X34391Y154796D01*
X34382Y154814D01*
X34373Y154824D01*
X34299Y154953D01*
X34234Y155083D01*
X34132Y155360D01*
X34058Y155637D01*
X34012Y155905D01*
X33994Y156035D01*
X33975Y156146D01*
X33966Y156247D01*
Y156331D01*
X33957Y156405D01*
Y156506D01*
X33966Y156691D01*
X33984Y156867D01*
X34003Y157033D01*
X34040Y157191D01*
X34086Y157338D01*
X34132Y157477D01*
X34179Y157606D01*
X34234Y157727D01*
X34280Y157828D01*
X34327Y157930D01*
X34373Y158004D01*
X34419Y158078D01*
X34456Y158124D01*
X34475Y158170D01*
X34493Y158189D01*
X34502Y158198D01*
X34613Y158328D01*
X34724Y158439D01*
X34854Y158540D01*
X34983Y158642D01*
X35242Y158808D01*
X35501Y158938D01*
X35621Y158993D01*
X35732Y159040D01*
X35834Y159077D01*
X35917Y159104D01*
X35991Y159132D01*
X36046Y159150D01*
X36083Y159160D01*
X36093D01*
X36305Y158309D01*
D02*
G37*
%LPC*%
G36*
X146467Y116322D02*
X146365D01*
X146282D01*
X146236D01*
X146217D01*
X145940D01*
X145690Y116313D01*
X145459Y116294D01*
X145256Y116276D01*
X145062Y116248D01*
X144895Y116229D01*
X144747Y116202D01*
X144618Y116174D01*
X144507Y116137D01*
X144415Y116109D01*
X144331Y116091D01*
X144276Y116063D01*
X144220Y116044D01*
X144193Y116026D01*
X144174Y116017D01*
X144165D01*
X144073Y115961D01*
X143989Y115897D01*
X143925Y115841D01*
X143860Y115776D01*
X143814Y115721D01*
X143767Y115656D01*
X143703Y115545D01*
X143666Y115443D01*
X143647Y115360D01*
X143638Y115305D01*
Y115286D01*
X143647Y115203D01*
X143657Y115120D01*
X143721Y114972D01*
X143804Y114833D01*
X143897Y114722D01*
X143989Y114639D01*
X144073Y114574D01*
X144137Y114537D01*
X144146Y114519D01*
X144156D01*
X144267Y114463D01*
X144396Y114417D01*
X144544Y114380D01*
X144701Y114353D01*
X145043Y114297D01*
X145385Y114260D01*
X145552Y114251D01*
X145709Y114242D01*
X145848Y114232D01*
X145968D01*
X146070Y114223D01*
X146153D01*
X146199D01*
X146217D01*
X146495D01*
X146744Y114232D01*
X146976Y114251D01*
X147179Y114269D01*
X147373Y114288D01*
X147540Y114316D01*
X147688Y114343D01*
X147817Y114371D01*
X147928Y114389D01*
X148020Y114417D01*
X148104Y114445D01*
X148168Y114463D01*
X148215Y114482D01*
X148242Y114500D01*
X148261Y114510D01*
X148270D01*
X148363Y114565D01*
X148446Y114630D01*
X148520Y114685D01*
X148584Y114750D01*
X148631Y114815D01*
X148677Y114870D01*
X148742Y114990D01*
X148778Y115083D01*
X148797Y115166D01*
X148806Y115222D01*
Y115240D01*
X148797Y115332D01*
X148788Y115416D01*
X148760Y115490D01*
X148723Y115564D01*
X148640Y115693D01*
X148547Y115813D01*
X148446Y115897D01*
X148363Y115961D01*
X148326Y115989D01*
X148298Y116007D01*
X148288Y116017D01*
X148279D01*
X148168Y116072D01*
X148039Y116118D01*
X147900Y116155D01*
X147743Y116192D01*
X147401Y116248D01*
X147059Y116285D01*
X146892Y116294D01*
X146735Y116303D01*
X146587Y116313D01*
X146467Y116322D01*
D02*
G37*
G36*
X147771Y110053D02*
X147734D01*
X147706D01*
X147697D01*
X147688D01*
X147567Y110044D01*
X147456Y110035D01*
X147355Y110007D01*
X147271Y109979D01*
X147198Y109952D01*
X147151Y109933D01*
X147114Y109915D01*
X147105Y109905D01*
X147022Y109850D01*
X146939Y109785D01*
X146883Y109711D01*
X146828Y109656D01*
X146791Y109591D01*
X146754Y109554D01*
X146744Y109517D01*
X146735Y109508D01*
X146698Y109406D01*
X146671Y109286D01*
X146652Y109166D01*
X146643Y109045D01*
X146634Y108935D01*
X146624Y108851D01*
Y107298D01*
X148723D01*
Y108935D01*
X148714Y109129D01*
X148677Y109295D01*
X148640Y109443D01*
X148584Y109563D01*
X148538Y109647D01*
X148492Y109711D01*
X148455Y109757D01*
X148446Y109767D01*
X148335Y109859D01*
X148215Y109933D01*
X148085Y109979D01*
X147965Y110016D01*
X147854Y110035D01*
X147771Y110053D01*
D02*
G37*
G36*
X146458Y104959D02*
X146393D01*
X146347D01*
X146310D01*
X146301D01*
X145977Y104950D01*
X145681Y104922D01*
X145552Y104903D01*
X145422Y104876D01*
X145302Y104857D01*
X145201Y104839D01*
X145099Y104811D01*
X145016Y104793D01*
X144942Y104765D01*
X144877Y104746D01*
X144831Y104737D01*
X144794Y104719D01*
X144775Y104709D01*
X144766D01*
X144600Y104635D01*
X144452Y104552D01*
X144331Y104460D01*
X144230Y104376D01*
X144156Y104293D01*
X144100Y104229D01*
X144073Y104192D01*
X144063Y104173D01*
X143989Y104034D01*
X143943Y103868D01*
X143906Y103702D01*
X143878Y103544D01*
X143860Y103397D01*
Y103332D01*
X143851Y103276D01*
Y102065D01*
X148668D01*
Y103147D01*
X148658Y103359D01*
X148649Y103535D01*
X148631Y103692D01*
X148603Y103813D01*
X148575Y103905D01*
X148557Y103970D01*
X148547Y104016D01*
X148538Y104025D01*
X148455Y104173D01*
X148344Y104303D01*
X148224Y104413D01*
X148104Y104515D01*
X147983Y104589D01*
X147891Y104645D01*
X147854Y104663D01*
X147826Y104682D01*
X147808Y104691D01*
X147799D01*
X147688Y104737D01*
X147577Y104783D01*
X147336Y104848D01*
X147087Y104894D01*
X146846Y104922D01*
X146735Y104941D01*
X146634Y104950D01*
X146541D01*
X146458Y104959D01*
D02*
G37*
G36*
X145690Y99254D02*
Y97470D01*
X147540Y98053D01*
X147761Y98117D01*
X147983Y98173D01*
X148187Y98228D01*
X148372Y98265D01*
X148529Y98293D01*
X148594Y98311D01*
X148649Y98321D01*
X148695Y98330D01*
X148723Y98339D01*
X148742D01*
X148751D01*
X148547Y98385D01*
X148335Y98450D01*
X148113Y98505D01*
X147900Y98570D01*
X147715Y98626D01*
X147641Y98644D01*
X147567Y98672D01*
X147512Y98681D01*
X147475Y98700D01*
X147447Y98709D01*
X147438D01*
X145690Y99254D01*
D02*
G37*
G36*
X40651Y85747D02*
X40642D01*
X40632D01*
X40521Y85738D01*
X40410Y85719D01*
X40318Y85691D01*
X40235Y85664D01*
X40161Y85627D01*
X40105Y85599D01*
X40068Y85581D01*
X40059Y85571D01*
X39967Y85507D01*
X39883Y85423D01*
X39819Y85340D01*
X39763Y85257D01*
X39726Y85183D01*
X39699Y85127D01*
X39680Y85091D01*
X39671Y85072D01*
X39634Y84943D01*
X39606Y84795D01*
X39588Y84647D01*
X39578Y84499D01*
X39569Y84369D01*
X39560Y84258D01*
Y82354D01*
X41677D01*
Y84369D01*
X41668Y84619D01*
X41631Y84832D01*
X41585Y85017D01*
X41529Y85155D01*
X41474Y85275D01*
X41427Y85349D01*
X41391Y85396D01*
X41381Y85414D01*
X41261Y85525D01*
X41141Y85608D01*
X41011Y85664D01*
X40901Y85710D01*
X40789Y85729D01*
X40706Y85738D01*
X40651Y85747D01*
D02*
G37*
G36*
X39310Y119032D02*
X39255D01*
X39218D01*
X39190D01*
X39181D01*
X38959Y119023D01*
X38746Y119004D01*
X38543Y118976D01*
X38358Y118940D01*
X38191Y118884D01*
X38034Y118838D01*
X37886Y118782D01*
X37757Y118727D01*
X37646Y118662D01*
X37544Y118607D01*
X37461Y118560D01*
X37396Y118514D01*
X37341Y118468D01*
X37295Y118440D01*
X37276Y118422D01*
X37267Y118413D01*
X37147Y118292D01*
X37045Y118163D01*
X36962Y118034D01*
X36879Y117904D01*
X36814Y117775D01*
X36768Y117636D01*
X36721Y117516D01*
X36685Y117386D01*
X36657Y117275D01*
X36638Y117164D01*
X36620Y117072D01*
X36611Y116989D01*
Y116924D01*
X36601Y116878D01*
Y116832D01*
X36611Y116656D01*
X36629Y116489D01*
X36666Y116341D01*
X36703Y116194D01*
X36758Y116055D01*
X36814Y115926D01*
X36869Y115805D01*
X36934Y115694D01*
X36999Y115602D01*
X37054Y115519D01*
X37110Y115445D01*
X37165Y115380D01*
X37202Y115334D01*
X37239Y115297D01*
X37258Y115278D01*
X37267Y115269D01*
X37396Y115158D01*
X37535Y115066D01*
X37683Y114982D01*
X37831Y114909D01*
X37988Y114853D01*
X38136Y114797D01*
X38432Y114724D01*
X38561Y114705D01*
X38691Y114687D01*
X38802Y114668D01*
X38894Y114659D01*
X38977Y114650D01*
X39042D01*
X39079D01*
X39088D01*
X39347Y114659D01*
X39588Y114677D01*
X39819Y114705D01*
X40022Y114751D01*
X40207Y114797D01*
X40374Y114853D01*
X40531Y114918D01*
X40660Y114973D01*
X40780Y115038D01*
X40882Y115093D01*
X40965Y115149D01*
X41030Y115195D01*
X41085Y115241D01*
X41122Y115269D01*
X41141Y115288D01*
X41150Y115297D01*
X41261Y115417D01*
X41354Y115546D01*
X41437Y115676D01*
X41511Y115815D01*
X41566Y115944D01*
X41622Y116073D01*
X41696Y116314D01*
X41714Y116425D01*
X41733Y116526D01*
X41751Y116610D01*
X41760Y116693D01*
X41770Y116758D01*
Y116841D01*
X41760Y117072D01*
X41723Y117294D01*
X41668Y117488D01*
X41612Y117654D01*
X41548Y117793D01*
X41520Y117849D01*
X41501Y117895D01*
X41474Y117941D01*
X41465Y117969D01*
X41446Y117978D01*
Y117987D01*
X41317Y118163D01*
X41169Y118320D01*
X41021Y118459D01*
X40873Y118570D01*
X40743Y118653D01*
X40632Y118718D01*
X40595Y118736D01*
X40568Y118755D01*
X40549Y118764D01*
X40540D01*
X40318Y118856D01*
X40078Y118921D01*
X39856Y118967D01*
X39643Y118995D01*
X39541Y119014D01*
X39458Y119023D01*
X39375D01*
X39310Y119032D01*
D02*
G37*
G36*
X39329Y109518D02*
X39283D01*
X39246D01*
X39236D01*
X38977Y109509D01*
X38737Y109490D01*
X38524Y109463D01*
X38340Y109435D01*
X38266Y109417D01*
X38201Y109398D01*
X38136Y109380D01*
X38090Y109370D01*
X38053Y109361D01*
X38025Y109352D01*
X38007Y109343D01*
X37997D01*
X37822Y109278D01*
X37664Y109204D01*
X37526Y109121D01*
X37406Y109047D01*
X37313Y108982D01*
X37248Y108927D01*
X37211Y108890D01*
X37193Y108880D01*
X37119Y108788D01*
X37054Y108695D01*
X36999Y108603D01*
X36943Y108511D01*
X36906Y108427D01*
X36879Y108363D01*
X36869Y108316D01*
X36860Y108298D01*
X36823Y108159D01*
X36795Y107993D01*
X36777Y107826D01*
X36768Y107669D01*
X36758Y107530D01*
X36749Y107466D01*
Y105949D01*
X41631D01*
Y107429D01*
X41622Y107549D01*
Y107669D01*
X41612Y107780D01*
X41585Y107965D01*
X41566Y108113D01*
X41538Y108233D01*
X41511Y108316D01*
X41501Y108363D01*
X41492Y108381D01*
X41409Y108547D01*
X41307Y108705D01*
X41187Y108843D01*
X41067Y108963D01*
X40956Y109056D01*
X40863Y109130D01*
X40827Y109148D01*
X40799Y109167D01*
X40780Y109185D01*
X40771D01*
X40669Y109241D01*
X40549Y109296D01*
X40309Y109380D01*
X40050Y109435D01*
X39800Y109481D01*
X39689Y109490D01*
X39578Y109500D01*
X39486Y109509D01*
X39403D01*
X39329Y109518D01*
D02*
G37*
G36*
X39329Y73589D02*
X39283D01*
X39246D01*
X39236D01*
X38977Y73580D01*
X38737Y73561D01*
X38524Y73534D01*
X38339Y73506D01*
X38266Y73487D01*
X38201Y73469D01*
X38136Y73450D01*
X38090Y73441D01*
X38053Y73432D01*
X38025Y73423D01*
X38007Y73414D01*
X37997D01*
X37822Y73349D01*
X37664Y73275D01*
X37526Y73192D01*
X37406Y73118D01*
X37313Y73053D01*
X37248Y72997D01*
X37211Y72960D01*
X37193Y72951D01*
X37119Y72859D01*
X37054Y72766D01*
X36999Y72674D01*
X36943Y72581D01*
X36906Y72498D01*
X36879Y72433D01*
X36869Y72387D01*
X36860Y72369D01*
X36823Y72230D01*
X36795Y72064D01*
X36777Y71897D01*
X36768Y71740D01*
X36758Y71601D01*
X36749Y71537D01*
Y70020D01*
X41631D01*
Y71500D01*
X41622Y71620D01*
Y71740D01*
X41612Y71851D01*
X41585Y72036D01*
X41566Y72184D01*
X41538Y72304D01*
X41511Y72387D01*
X41501Y72433D01*
X41492Y72452D01*
X41409Y72618D01*
X41307Y72776D01*
X41187Y72914D01*
X41067Y73034D01*
X40956Y73127D01*
X40863Y73201D01*
X40827Y73219D01*
X40799Y73238D01*
X40780Y73256D01*
X40771D01*
X40669Y73312D01*
X40549Y73367D01*
X40309Y73450D01*
X40050Y73506D01*
X39800Y73552D01*
X39689Y73561D01*
X39578Y73571D01*
X39486Y73580D01*
X39403D01*
X39329Y73589D01*
D02*
G37*
G36*
X114974Y74490D02*
X112108D01*
Y72475D01*
X114974Y74490D01*
D02*
G37*
G36*
X106829Y31014D02*
X106783D01*
X106746D01*
X106736D01*
X106477Y31005D01*
X106237Y30986D01*
X106024Y30959D01*
X105840Y30931D01*
X105765Y30912D01*
X105701Y30894D01*
X105636Y30876D01*
X105590Y30866D01*
X105553Y30857D01*
X105525Y30848D01*
X105507Y30839D01*
X105497D01*
X105322Y30774D01*
X105165Y30700D01*
X105026Y30617D01*
X104906Y30543D01*
X104813Y30478D01*
X104748Y30422D01*
X104712Y30385D01*
X104693Y30376D01*
X104619Y30284D01*
X104554Y30191D01*
X104499Y30099D01*
X104443Y30006D01*
X104406Y29923D01*
X104379Y29859D01*
X104369Y29812D01*
X104360Y29794D01*
X104323Y29655D01*
X104296Y29489D01*
X104277Y29322D01*
X104268Y29165D01*
X104258Y29026D01*
X104249Y28962D01*
Y27445D01*
X109131D01*
Y28925D01*
X109122Y29045D01*
Y29165D01*
X109113Y29276D01*
X109085Y29461D01*
X109066Y29609D01*
X109038Y29729D01*
X109011Y29812D01*
X109002Y29859D01*
X108992Y29877D01*
X108909Y30043D01*
X108807Y30201D01*
X108687Y30339D01*
X108567Y30459D01*
X108456Y30552D01*
X108364Y30626D01*
X108327Y30644D01*
X108299Y30663D01*
X108280Y30681D01*
X108271D01*
X108169Y30737D01*
X108049Y30792D01*
X107809Y30876D01*
X107550Y30931D01*
X107300Y30977D01*
X107189Y30986D01*
X107078Y30996D01*
X106986Y31005D01*
X106903D01*
X106829Y31014D01*
D02*
G37*
G36*
X106810Y24635D02*
X106755D01*
X106718D01*
X106690D01*
X106681D01*
X106459Y24625D01*
X106246Y24607D01*
X106043Y24579D01*
X105858Y24542D01*
X105692Y24487D01*
X105534Y24441D01*
X105386Y24385D01*
X105257Y24330D01*
X105146Y24265D01*
X105044Y24209D01*
X104961Y24163D01*
X104896Y24117D01*
X104841Y24071D01*
X104795Y24043D01*
X104776Y24025D01*
X104767Y24015D01*
X104647Y23895D01*
X104545Y23766D01*
X104462Y23636D01*
X104379Y23507D01*
X104314Y23377D01*
X104268Y23239D01*
X104221Y23119D01*
X104185Y22989D01*
X104157Y22878D01*
X104138Y22767D01*
X104120Y22675D01*
X104111Y22592D01*
Y22527D01*
X104101Y22480D01*
Y22434D01*
X104111Y22259D01*
X104129Y22092D01*
X104166Y21944D01*
X104203Y21796D01*
X104258Y21658D01*
X104314Y21528D01*
X104369Y21408D01*
X104434Y21297D01*
X104499Y21205D01*
X104554Y21121D01*
X104610Y21047D01*
X104665Y20983D01*
X104702Y20937D01*
X104739Y20900D01*
X104758Y20881D01*
X104767Y20872D01*
X104896Y20761D01*
X105035Y20668D01*
X105183Y20585D01*
X105331Y20511D01*
X105488Y20456D01*
X105636Y20400D01*
X105932Y20326D01*
X106061Y20308D01*
X106191Y20289D01*
X106302Y20271D01*
X106394Y20262D01*
X106477Y20252D01*
X106542D01*
X106579D01*
X106588D01*
X106847Y20262D01*
X107088Y20280D01*
X107319Y20308D01*
X107522Y20354D01*
X107707Y20400D01*
X107873Y20456D01*
X108031Y20521D01*
X108160Y20576D01*
X108280Y20641D01*
X108382Y20696D01*
X108465Y20752D01*
X108530Y20798D01*
X108586Y20844D01*
X108622Y20872D01*
X108641Y20890D01*
X108650Y20900D01*
X108761Y21020D01*
X108854Y21149D01*
X108937Y21279D01*
X109011Y21417D01*
X109066Y21547D01*
X109122Y21676D01*
X109196Y21917D01*
X109214Y22027D01*
X109233Y22129D01*
X109251Y22212D01*
X109260Y22296D01*
X109270Y22360D01*
Y22444D01*
X109260Y22675D01*
X109223Y22897D01*
X109168Y23091D01*
X109113Y23257D01*
X109048Y23396D01*
X109020Y23451D01*
X109002Y23498D01*
X108974Y23544D01*
X108965Y23572D01*
X108946Y23581D01*
Y23590D01*
X108817Y23766D01*
X108669Y23923D01*
X108521Y24062D01*
X108373Y24172D01*
X108243Y24256D01*
X108132Y24320D01*
X108095Y24339D01*
X108068Y24357D01*
X108049Y24367D01*
X108040D01*
X107818Y24459D01*
X107578Y24524D01*
X107356Y24570D01*
X107143Y24598D01*
X107041Y24616D01*
X106958Y24625D01*
X106875D01*
X106810Y24635D01*
D02*
G37*
G36*
X108151Y139784D02*
X108142D01*
X108132D01*
X108021Y139774D01*
X107910Y139756D01*
X107818Y139728D01*
X107735Y139700D01*
X107661Y139663D01*
X107605Y139636D01*
X107568Y139617D01*
X107559Y139608D01*
X107467Y139543D01*
X107383Y139460D01*
X107319Y139377D01*
X107263Y139294D01*
X107226Y139220D01*
X107199Y139164D01*
X107180Y139127D01*
X107171Y139109D01*
X107134Y138979D01*
X107106Y138831D01*
X107088Y138683D01*
X107078Y138535D01*
X107069Y138406D01*
X107060Y138295D01*
Y136390D01*
X109177D01*
Y138406D01*
X109168Y138656D01*
X109131Y138868D01*
X109085Y139053D01*
X109029Y139192D01*
X108974Y139312D01*
X108927Y139386D01*
X108891Y139432D01*
X108881Y139451D01*
X108761Y139562D01*
X108641Y139645D01*
X108511Y139700D01*
X108400Y139747D01*
X108290Y139765D01*
X108206Y139774D01*
X108151Y139784D01*
D02*
G37*
G36*
X191984Y103227D02*
X191975D01*
X191966D01*
X191855Y103218D01*
X191744Y103200D01*
X191651Y103172D01*
X191568Y103144D01*
X191494Y103107D01*
X191439Y103080D01*
X191402Y103061D01*
X191392Y103052D01*
X191300Y102987D01*
X191217Y102904D01*
X191152Y102821D01*
X191096Y102737D01*
X191060Y102663D01*
X191032Y102608D01*
X191013Y102571D01*
X191004Y102552D01*
X190967Y102423D01*
X190939Y102275D01*
X190921Y102127D01*
X190912Y101979D01*
X190902Y101850D01*
X190893Y101739D01*
Y99834D01*
X193010D01*
Y101850D01*
X193001Y102099D01*
X192964Y102312D01*
X192918Y102497D01*
X192862Y102636D01*
X192807Y102756D01*
X192761Y102830D01*
X192724Y102876D01*
X192715Y102895D01*
X192594Y103006D01*
X192474Y103089D01*
X192345Y103144D01*
X192234Y103190D01*
X192123Y103209D01*
X192040Y103218D01*
X191984Y103227D01*
D02*
G37*
G36*
X136832Y161038D02*
X134816D01*
X134566Y161029D01*
X134354Y160992D01*
X134169Y160946D01*
X134030Y160890D01*
X133910Y160835D01*
X133836Y160788D01*
X133790Y160751D01*
X133771Y160742D01*
X133660Y160622D01*
X133577Y160502D01*
X133522Y160372D01*
X133475Y160261D01*
X133457Y160151D01*
X133448Y160067D01*
X133438Y160012D01*
Y160003D01*
Y159993D01*
X133448Y159882D01*
X133466Y159771D01*
X133494Y159679D01*
X133522Y159596D01*
X133559Y159522D01*
X133586Y159466D01*
X133605Y159429D01*
X133614Y159420D01*
X133679Y159328D01*
X133762Y159244D01*
X133845Y159180D01*
X133928Y159124D01*
X134002Y159087D01*
X134058Y159059D01*
X134095Y159041D01*
X134113Y159032D01*
X134243Y158995D01*
X134391Y158967D01*
X134539Y158949D01*
X134687Y158939D01*
X134816Y158930D01*
X134927Y158921D01*
X136832D01*
Y161038D01*
D02*
G37*
G36*
X141484Y71367D02*
X141475D01*
X141466D01*
X141355Y71358D01*
X141244Y71339D01*
X141151Y71312D01*
X141068Y71284D01*
X140994Y71247D01*
X140939Y71219D01*
X140902Y71201D01*
X140892Y71191D01*
X140800Y71127D01*
X140717Y71043D01*
X140652Y70960D01*
X140597Y70877D01*
X140560Y70803D01*
X140532Y70748D01*
X140513Y70711D01*
X140504Y70692D01*
X140467Y70563D01*
X140439Y70415D01*
X140421Y70267D01*
X140412Y70119D01*
X140402Y69989D01*
X140393Y69879D01*
Y67974D01*
X142510D01*
Y69989D01*
X142501Y70239D01*
X142464Y70452D01*
X142418Y70637D01*
X142362Y70775D01*
X142307Y70896D01*
X142261Y70970D01*
X142224Y71016D01*
X142214Y71034D01*
X142094Y71145D01*
X141974Y71228D01*
X141845Y71284D01*
X141734Y71330D01*
X141623Y71349D01*
X141540Y71358D01*
X141484Y71367D01*
D02*
G37*
G36*
X120949Y48032D02*
X120893D01*
X120699Y48014D01*
X120524Y47968D01*
X120376Y47912D01*
X120246Y47838D01*
X120145Y47764D01*
X120071Y47709D01*
X120024Y47662D01*
X120006Y47644D01*
X119886Y47487D01*
X119793Y47320D01*
X119728Y47145D01*
X119692Y46978D01*
X119664Y46830D01*
X119655Y46765D01*
Y46710D01*
X119645Y46664D01*
Y46627D01*
Y46608D01*
Y46599D01*
X119664Y46350D01*
X119701Y46137D01*
X119756Y45952D01*
X119821Y45795D01*
X119895Y45675D01*
X119950Y45582D01*
X119987Y45527D01*
X120006Y45517D01*
Y45508D01*
X120071Y45434D01*
X120145Y45379D01*
X120293Y45277D01*
X120441Y45212D01*
X120570Y45157D01*
X120690Y45129D01*
X120782Y45120D01*
X120820Y45111D01*
X120866D01*
X120995Y45120D01*
X121115Y45138D01*
X121226Y45175D01*
X121319Y45212D01*
X121402Y45240D01*
X121467Y45277D01*
X121504Y45296D01*
X121522Y45305D01*
X121633Y45388D01*
X121726Y45471D01*
X121809Y45573D01*
X121874Y45656D01*
X121929Y45739D01*
X121966Y45804D01*
X121994Y45850D01*
X122003Y45869D01*
X122058Y46007D01*
X122095Y46146D01*
X122132Y46276D01*
X122151Y46396D01*
X122160Y46497D01*
X122169Y46581D01*
Y46627D01*
Y46645D01*
X122151Y46867D01*
X122114Y47061D01*
X122049Y47237D01*
X121985Y47376D01*
X121920Y47496D01*
X121855Y47579D01*
X121818Y47625D01*
X121800Y47644D01*
X121652Y47773D01*
X121504Y47866D01*
X121347Y47940D01*
X121208Y47986D01*
X121078Y48014D01*
X120986Y48023D01*
X120949Y48032D01*
D02*
G37*
G36*
X128308Y50260D02*
X126293D01*
X126043Y50251D01*
X125831Y50214D01*
X125646Y50168D01*
X125507Y50112D01*
X125387Y50057D01*
X125313Y50011D01*
X125267Y49974D01*
X125248Y49964D01*
X125137Y49844D01*
X125054Y49724D01*
X124999Y49595D01*
X124952Y49484D01*
X124934Y49373D01*
X124925Y49290D01*
X124915Y49234D01*
Y49225D01*
Y49216D01*
X124925Y49105D01*
X124943Y48994D01*
X124971Y48901D01*
X124999Y48818D01*
X125035Y48744D01*
X125063Y48689D01*
X125082Y48652D01*
X125091Y48642D01*
X125156Y48550D01*
X125239Y48467D01*
X125322Y48402D01*
X125405Y48347D01*
X125479Y48310D01*
X125535Y48282D01*
X125572Y48263D01*
X125590Y48254D01*
X125720Y48217D01*
X125868Y48189D01*
X126016Y48171D01*
X126164Y48162D01*
X126293Y48152D01*
X126404Y48143D01*
X128308D01*
Y50260D01*
D02*
G37*
G36*
X39141Y24411D02*
X39104D01*
X39085D01*
X39076D01*
X38835Y24393D01*
X38623Y24356D01*
X38447Y24300D01*
X38299Y24235D01*
X38179Y24161D01*
X38096Y24106D01*
X38040Y24069D01*
X38022Y24051D01*
X37892Y23912D01*
X37800Y23764D01*
X37735Y23616D01*
X37689Y23468D01*
X37661Y23348D01*
X37652Y23246D01*
X37643Y23209D01*
Y23154D01*
X37661Y22959D01*
X37698Y22784D01*
X37763Y22627D01*
X37837Y22488D01*
X37902Y22386D01*
X37966Y22303D01*
X38003Y22257D01*
X38022Y22238D01*
X38170Y22118D01*
X38336Y22026D01*
X38503Y21970D01*
X38660Y21924D01*
X38799Y21896D01*
X38854Y21887D01*
X38909D01*
X38956Y21878D01*
X38984D01*
X39002D01*
X39011D01*
X39252Y21896D01*
X39474Y21933D01*
X39668Y21998D01*
X39825Y22072D01*
X39954Y22137D01*
X40047Y22201D01*
X40074Y22220D01*
X40102Y22238D01*
X40111Y22257D01*
X40121D01*
X40195Y22331D01*
X40269Y22405D01*
X40370Y22562D01*
X40454Y22719D01*
X40500Y22867D01*
X40537Y22987D01*
X40546Y23089D01*
X40555Y23126D01*
Y23274D01*
X40537Y23366D01*
X40490Y23533D01*
X40426Y23681D01*
X40361Y23810D01*
X40287Y23912D01*
X40222Y23986D01*
X40176Y24032D01*
X40167Y24051D01*
X40158D01*
X40001Y24171D01*
X39825Y24263D01*
X39640Y24328D01*
X39464Y24365D01*
X39316Y24393D01*
X39252Y24402D01*
X39187D01*
X39141Y24411D01*
D02*
G37*
G36*
X36157Y163274D02*
X36120D01*
X36102D01*
X36093D01*
X35843Y163256D01*
X35630Y163219D01*
X35445Y163163D01*
X35288Y163098D01*
X35168Y163024D01*
X35076Y162969D01*
X35020Y162932D01*
X35011Y162913D01*
X35002D01*
X34928Y162849D01*
X34872Y162775D01*
X34770Y162627D01*
X34706Y162479D01*
X34650Y162349D01*
X34622Y162229D01*
X34613Y162137D01*
X34604Y162100D01*
Y162054D01*
X34613Y161924D01*
X34632Y161804D01*
X34669Y161693D01*
X34706Y161601D01*
X34733Y161517D01*
X34770Y161453D01*
X34789Y161416D01*
X34798Y161397D01*
X34881Y161286D01*
X34965Y161194D01*
X35066Y161111D01*
X35150Y161046D01*
X35233Y160990D01*
X35297Y160953D01*
X35344Y160926D01*
X35362Y160916D01*
X35501Y160861D01*
X35640Y160824D01*
X35769Y160787D01*
X35889Y160769D01*
X35991Y160759D01*
X36074Y160750D01*
X36120D01*
X36139D01*
X36361Y160769D01*
X36555Y160805D01*
X36730Y160870D01*
X36869Y160935D01*
X36989Y161000D01*
X37073Y161064D01*
X37119Y161101D01*
X37137Y161120D01*
X37267Y161268D01*
X37359Y161416D01*
X37433Y161573D01*
X37479Y161712D01*
X37507Y161841D01*
X37516Y161933D01*
X37526Y161970D01*
Y162026D01*
X37507Y162220D01*
X37461Y162396D01*
X37405Y162544D01*
X37331Y162673D01*
X37257Y162775D01*
X37202Y162849D01*
X37156Y162895D01*
X37137Y162913D01*
X36980Y163034D01*
X36814Y163126D01*
X36638Y163191D01*
X36472Y163228D01*
X36324Y163256D01*
X36259Y163265D01*
X36203D01*
X36157Y163274D01*
D02*
G37*
%LPD*%
D10*
X203472Y62210D02*
G03*
X204471Y62210I500J0D01*
G01*
D02*
G03*
X203472Y62210I-500J0D01*
G01*
X180000Y114540D02*
G03*
X179000Y114540I-500J0D01*
G01*
D02*
G03*
X180000Y114540I500J0D01*
G01*
X32500Y111460D02*
G03*
X32500Y111460I-10000J0D01*
G01*
Y87920D02*
G03*
X32500Y87920I-10000J0D01*
G01*
Y40840D02*
G03*
X32500Y40840I-10000J0D01*
G01*
Y135000D02*
G03*
X32500Y135000I-10000J0D01*
G01*
Y64380D02*
G03*
X32500Y64380I-10000J0D01*
G01*
D11*
X172500Y138700D02*
X174300D01*
Y142700D01*
Y155300D02*
Y159300D01*
X172500D02*
X174300D01*
X153700D02*
X155500D01*
X153700Y155300D02*
Y159300D01*
Y138700D02*
X155500D01*
X153700D02*
Y142700D01*
D12*
X180000Y152000D02*
G03*
X180000Y152000I-1000J0D01*
G01*
X252000Y123500D02*
Y151500D01*
X218000Y123500D02*
Y151500D01*
X219471Y69710D02*
Y97210D01*
X279471D01*
Y12210D02*
Y97210D01*
X219471Y12210D02*
X279471D01*
X219471D02*
Y39710D01*
X271138Y154250D02*
X283862D01*
X271138Y140750D02*
X283862D01*
X149000Y73500D02*
X186000D01*
X149000Y41500D02*
Y73500D01*
Y41500D02*
X186000D01*
Y73500D01*
X55750Y80710D02*
Y94290D01*
Y80710D02*
X104250D01*
Y94290D01*
X55750D02*
X104250D01*
X188250Y136138D02*
Y148862D01*
X201750Y136138D02*
Y148862D01*
X59289Y11500D02*
Y12750D01*
Y37250D02*
Y38500D01*
X91290D01*
Y11500D02*
Y12750D01*
Y37250D02*
Y38500D01*
X59289Y11500D02*
X91290D01*
X143638Y24250D02*
X156362D01*
X143638Y10750D02*
X156362D01*
X59289Y163571D02*
X91290D01*
X59289Y136571D02*
Y137821D01*
Y162321D02*
Y163571D01*
Y136571D02*
X91290D01*
Y137821D01*
Y162321D02*
Y163571D01*
X16138Y10750D02*
X28862D01*
X16138Y24250D02*
X28862D01*
X16379Y165040D02*
X29104D01*
X16379Y151540D02*
X29104D01*
D13*
X226500Y166531D02*
G03*
X226500Y166531I-1250J0D01*
G01*
X193250Y66750D02*
G03*
X193250Y66750I-1250J0D01*
G01*
X62200Y129031D02*
G03*
X62200Y129031I-1250J0D01*
G01*
D14*
X116000Y95000D02*
X136000D01*
X116000Y123000D02*
X136000D01*
Y95000D02*
Y123000D01*
X116000Y95000D02*
Y123000D01*
X5000Y4000D02*
X296000D01*
X5000Y170000D02*
X296000D01*
Y4000D02*
Y170000D01*
X5000Y4000D02*
Y170000D01*
X210460Y78540D02*
Y88697D01*
X210382Y18540D02*
Y28697D01*
X205303Y23618D02*
X215460D01*
M02*
