G04*
G04 #@! TF.GenerationSoftware,Altium Limited,Altium Designer,25.8.1 (18)*
G04*
G04 Layer_Color=0*
%FSLAX44Y44*%
%MOMM*%
G71*
G04*
G04 #@! TF.SameCoordinates,21D81E98-52A8-4FCB-A247-477666DB80DC*
G04*
G04*
G04 #@! TF.FilePolarity,Positive*
G04*
G01*
G75*
%ADD10C,0.1000*%
D10*
X122854Y120000D02*
Y130000D01*
X117854Y125000D02*
X127854D01*
X122854Y120000D02*
Y130000D01*
X117854Y125000D02*
X127854D01*
X122854Y97403D02*
Y107403D01*
X117854Y102403D02*
X127854D01*
X122854Y97403D02*
Y107403D01*
X117854Y102403D02*
X127854D01*
X272547Y35236D02*
Y45236D01*
X267547Y40236D02*
X277547D01*
X272547Y35236D02*
Y45236D01*
X267547Y40236D02*
X277547D01*
X121467Y74538D02*
Y84537D01*
X116467Y79538D02*
X126467D01*
X185000Y30000D02*
X195000D01*
X190000Y25000D02*
Y35000D01*
X131000Y26000D02*
X141000D01*
X136000Y21000D02*
Y31000D01*
X167500Y15000D02*
Y25000D01*
X162500Y20000D02*
X172500D01*
X167500Y15000D02*
Y25000D01*
X162500Y20000D02*
X172500D01*
X168811Y35236D02*
Y45236D01*
X163811Y40236D02*
X173811D01*
X168811Y35236D02*
Y45236D01*
X163811Y40236D02*
X173811D01*
X122854Y55000D02*
Y65000D01*
X117854Y60000D02*
X127854D01*
X122854Y55000D02*
Y65000D01*
X117854Y60000D02*
X127854D01*
X267963Y21210D02*
X277963D01*
X272963Y16210D02*
Y26210D01*
X267963Y21210D02*
X277963D01*
X272963Y16210D02*
Y26210D01*
X66707Y101198D02*
X76707D01*
X71707Y96198D02*
Y106198D01*
X78000Y20742D02*
Y30742D01*
X73000Y25742D02*
X83000D01*
X29255Y19460D02*
X39255D01*
X34255Y14460D02*
Y24460D01*
X27500Y155000D02*
X37500D01*
X32500Y150000D02*
Y160000D01*
X108000Y20742D02*
Y30742D01*
X103000Y25742D02*
X113000D01*
M02*
