G04*
G04 #@! TF.GenerationSoftware,Altium Limited,Altium Designer,25.8.1 (18)*
G04*
G04 Layer_Color=16711935*
%FSLAX44Y44*%
%MOMM*%
G71*
G04*
G04 #@! TF.SameCoordinates,21D81E98-52A8-4FCB-A247-477666DB80DC*
G04*
G04*
G04 #@! TF.FilePolarity,Positive*
G04*
G01*
G75*
%ADD10C,0.1000*%
%ADD12C,0.2000*%
%ADD90C,0.0500*%
D10*
X123500Y117500D02*
X129000D01*
X126250Y114750D02*
Y120250D01*
X199471Y2210D02*
X289471D01*
X199471D02*
Y107210D01*
X289471D01*
Y2210D02*
Y107210D01*
X133000Y140250D02*
Y145750D01*
X130250Y143000D02*
X135750D01*
X122250Y32500D02*
X127750D01*
X125000Y29750D02*
Y35250D01*
Y68500D02*
Y74000D01*
X122250Y71250D02*
X127750D01*
X126250Y97250D02*
Y102750D01*
X123500Y100000D02*
X129000D01*
X150000Y127040D02*
X185000D01*
Y87040D02*
Y127040D01*
X150000Y87040D02*
X185000D01*
X150000D02*
Y127040D01*
D12*
X215500Y111969D02*
Y163031D01*
Y111969D02*
X254500D01*
Y163031D01*
X215500D02*
X254500D01*
X284862Y143750D02*
Y151250D01*
X270138Y143750D02*
X284862D01*
X270138D02*
Y151250D01*
X284862D01*
X147000Y75500D02*
X188000D01*
X147000Y39500D02*
Y75500D01*
Y39500D02*
X188000D01*
Y75500D01*
X50750Y45969D02*
Y129031D01*
Y45969D02*
X109250D01*
Y129031D01*
X50750D02*
X109250D01*
X191250Y149862D02*
X198750D01*
Y135138D02*
Y149862D01*
X191250Y135138D02*
X198750D01*
X191250D02*
Y149862D01*
X53289Y10500D02*
Y39500D01*
X97289D01*
Y10500D02*
Y39500D01*
X53289Y10500D02*
X97289D01*
X142638Y13750D02*
X157362D01*
Y21250D01*
X142638D02*
X157362D01*
X142638Y13750D02*
Y21250D01*
X53289Y164571D02*
X97289D01*
X53289Y135571D02*
Y164571D01*
Y135571D02*
X97289D01*
Y164571D01*
X15138Y21250D02*
X29862D01*
X15138Y13750D02*
Y21250D01*
Y13750D02*
X29862D01*
Y21250D01*
X15379Y154540D02*
X30104D01*
Y162040D01*
X15379D02*
X30104D01*
X15379Y154540D02*
Y162040D01*
D90*
X133750Y113500D02*
Y121500D01*
X118750Y113500D02*
Y121500D01*
X133750D01*
X118750Y113500D02*
X133750D01*
X129000Y135500D02*
X137000D01*
X129000Y150500D02*
X137000D01*
Y135500D02*
Y150500D01*
X129000Y135500D02*
Y150500D01*
X268300Y124700D02*
X286700D01*
X268300Y115300D02*
Y124700D01*
Y115300D02*
X286700D01*
Y124700D01*
X121000Y25000D02*
Y40000D01*
X129000Y25000D02*
Y40000D01*
X121000D02*
X129000D01*
X121000Y25000D02*
X129000D01*
X121000Y63750D02*
X129000D01*
X121000Y78750D02*
X129000D01*
Y63750D02*
Y78750D01*
X121000Y63750D02*
Y78750D01*
X118750Y96000D02*
X133750D01*
X118750Y104000D02*
X133750D01*
X118750Y96000D02*
Y104000D01*
X133750Y96000D02*
Y104000D01*
X151900Y136900D02*
X176100D01*
Y161100D01*
X151900D02*
X176100D01*
X151900Y136900D02*
Y161100D01*
M02*
