G04*
G04 #@! TF.GenerationSoftware,Altium Limited,Altium Designer,25.8.1 (18)*
G04*
G04 Layer_Physical_Order=4*
G04 Layer_Color=16711680*
%FSLAX44Y44*%
%MOMM*%
G71*
G04*
G04 #@! TF.SameCoordinates,21D81E98-52A8-4FCB-A247-477666DB80DC*
G04*
G04*
G04 #@! TF.FilePolarity,Positive*
G04*
G01*
G75*
%ADD14C,0.2540*%
%ADD21R,0.5000X0.4500*%
%ADD26R,0.5153X0.4725*%
%ADD33R,0.4500X0.5000*%
%ADD63C,0.3000*%
G04:AMPARAMS|DCode=64|XSize=0.38mm|YSize=0.35mm|CornerRadius=0.0158mm|HoleSize=0mm|Usage=FLASHONLY|Rotation=90.000|XOffset=0mm|YOffset=0mm|HoleType=Round|Shape=RoundedRectangle|*
%AMROUNDEDRECTD64*
21,1,0.3800,0.3185,0,0,90.0*
21,1,0.3485,0.3500,0,0,90.0*
1,1,0.0315,0.1593,0.1743*
1,1,0.0315,0.1593,-0.1743*
1,1,0.0315,-0.1593,-0.1743*
1,1,0.0315,-0.1593,0.1743*
%
%ADD64ROUNDEDRECTD64*%
%ADD65R,0.3500X0.5750*%
%ADD66R,0.5000X0.4000*%
G04:AMPARAMS|DCode=67|XSize=2.4741mm|YSize=0.6234mm|CornerRadius=0.3117mm|HoleSize=0mm|Usage=FLASHONLY|Rotation=270.000|XOffset=0mm|YOffset=0mm|HoleType=Round|Shape=RoundedRectangle|*
%AMROUNDEDRECTD67*
21,1,2.4741,0.0000,0,0,270.0*
21,1,1.8507,0.6234,0,0,270.0*
1,1,0.6234,0.0000,-0.9253*
1,1,0.6234,0.0000,0.9253*
1,1,0.6234,0.0000,0.9253*
1,1,0.6234,0.0000,-0.9253*
%
%ADD67ROUNDEDRECTD67*%
%ADD68R,0.6234X2.4741*%
%ADD69C,1.5240*%
%ADD70R,0.8000X1.7000*%
%ADD71R,1.9000X1.1000*%
%ADD72R,2.7000X0.7000*%
%ADD73R,0.4725X0.5153*%
%ADD74R,0.6200X0.6400*%
G04:AMPARAMS|DCode=75|XSize=1.8052mm|YSize=0.6121mm|CornerRadius=0.3061mm|HoleSize=0mm|Usage=FLASHONLY|Rotation=270.000|XOffset=0mm|YOffset=0mm|HoleType=Round|Shape=RoundedRectangle|*
%AMROUNDEDRECTD75*
21,1,1.8052,0.0000,0,0,270.0*
21,1,1.1931,0.6121,0,0,270.0*
1,1,0.6121,0.0000,-0.5966*
1,1,0.6121,0.0000,0.5966*
1,1,0.6121,0.0000,0.5966*
1,1,0.6121,0.0000,-0.5966*
%
%ADD75ROUNDEDRECTD75*%
%ADD76R,0.5750X0.3500*%
%ADD77R,0.5000X0.3000*%
%ADD78R,0.6121X1.8052*%
G36*
X202000Y164327D02*
Y163133D01*
X202176Y162709D01*
Y145170D01*
X201076Y144070D01*
X199902Y144556D01*
Y145016D01*
X195000D01*
Y146286D01*
X193730D01*
Y151402D01*
X190098D01*
Y150116D01*
X188828Y149590D01*
X174905Y163512D01*
X173989Y164124D01*
X173731Y164176D01*
X173856Y165446D01*
X186433D01*
X187000Y164597D01*
Y163403D01*
X187457Y162301D01*
X188301Y161457D01*
X189403Y161000D01*
X190597D01*
X191699Y161457D01*
X192543Y162301D01*
X193000Y163403D01*
Y164597D01*
X193567Y165446D01*
X201089D01*
X202000Y164327D01*
D02*
G37*
G36*
X297000Y159000D02*
X284053D01*
X283895Y159795D01*
X283283Y160711D01*
X283283Y160711D01*
X276997Y166997D01*
X276081Y167609D01*
X275000Y167824D01*
X275000Y167824D01*
X265389D01*
X264788Y168425D01*
X263770Y168847D01*
Y165000D01*
Y161153D01*
X264788Y161575D01*
X265389Y162176D01*
X273830D01*
X275833Y160173D01*
X275347Y159000D01*
X258000D01*
Y150324D01*
X249150D01*
Y154970D01*
X248796Y156750D01*
X248132Y157744D01*
X247788Y158258D01*
X247788Y158259D01*
X247374Y158700D01*
X246962Y160772D01*
X245788Y162528D01*
X244032Y163702D01*
X241960Y164114D01*
Y164064D01*
X228040D01*
Y164114D01*
X225968Y163702D01*
X224212Y162528D01*
X223038Y160772D01*
X222791Y159531D01*
X220939D01*
Y151824D01*
X218052D01*
Y151874D01*
X215980Y151462D01*
X215293Y151003D01*
X215248Y150973D01*
X215064Y150850D01*
X214861Y150714D01*
X214237Y150297D01*
X214264Y150258D01*
X213922Y149916D01*
X209094Y145088D01*
X207824Y145615D01*
Y162709D01*
X208000Y163133D01*
Y164327D01*
X208911Y165446D01*
X214560D01*
X217281Y162725D01*
X217457Y162301D01*
X218301Y161457D01*
X219403Y161000D01*
X220597D01*
X221699Y161457D01*
X222543Y162301D01*
X223000Y163403D01*
Y164597D01*
X222543Y165699D01*
X221699Y166543D01*
X221275Y166719D01*
X217727Y170267D01*
X217034Y170730D01*
X217165Y171793D01*
X217246Y172000D01*
X297000D01*
Y159000D01*
D02*
G37*
G36*
X83835Y171793D02*
X83966Y170730D01*
X83273Y170267D01*
X83273Y170267D01*
X65901Y152895D01*
X63790D01*
Y160071D01*
X52790D01*
Y152824D01*
X49170D01*
X41707Y160287D01*
X40791Y160899D01*
X39710Y161114D01*
X39710Y161114D01*
X30604D01*
Y162152D01*
X24073D01*
Y163192D01*
X20226D01*
Y158290D01*
X18956D01*
Y157020D01*
X13839D01*
Y153388D01*
X16558D01*
Y152118D01*
X16558Y152118D01*
X16773Y151037D01*
X17385Y150120D01*
X21503Y146003D01*
X22419Y145391D01*
X22423Y145390D01*
X22298Y144120D01*
X21299D01*
X18980Y143498D01*
X16900Y142298D01*
X15202Y140600D01*
X14700Y139730D01*
X13033Y139383D01*
X12824Y139537D01*
Y142979D01*
X13000Y143403D01*
Y144597D01*
X12543Y145699D01*
X11699Y146543D01*
X10597Y147000D01*
X9403D01*
X8301Y146543D01*
X7457Y145699D01*
X7000Y144597D01*
Y143403D01*
X7176Y142979D01*
Y123960D01*
X7176Y123960D01*
X7391Y122879D01*
X8003Y121963D01*
X14362Y115604D01*
X14001Y114980D01*
X13380Y112661D01*
Y110259D01*
X14001Y107940D01*
X15202Y105860D01*
X16900Y104162D01*
X18980Y102962D01*
X21299Y102340D01*
X23701D01*
X26020Y102962D01*
X28100Y104162D01*
X29798Y105860D01*
X30998Y107940D01*
X31620Y110259D01*
Y112661D01*
X30998Y114980D01*
X29798Y117060D01*
X28100Y118758D01*
X26020Y119958D01*
X23701Y120580D01*
X21299D01*
X18980Y119958D01*
X18356Y119598D01*
X12824Y125130D01*
Y130463D01*
X13033Y130617D01*
X14700Y130270D01*
X15202Y129400D01*
X16900Y127702D01*
X18980Y126502D01*
X21299Y125880D01*
X23701D01*
X26020Y126502D01*
X28100Y127702D01*
X29798Y129400D01*
X30998Y131480D01*
X31620Y133799D01*
Y136175D01*
X38759Y139539D01*
X39097D01*
X40199Y139995D01*
X41043Y140839D01*
X41500Y141942D01*
Y143135D01*
X41043Y144238D01*
X40199Y145082D01*
X39097Y145539D01*
X37903D01*
X36801Y145082D01*
X36381Y144662D01*
X29145Y141253D01*
X28100Y142298D01*
X27420Y142690D01*
X27761Y143960D01*
X28804D01*
X30289Y144575D01*
X31425Y145711D01*
X31847Y146730D01*
X28000D01*
Y148000D01*
X26730D01*
Y151847D01*
X25712Y151425D01*
X25111Y150824D01*
X24670D01*
X23377Y152118D01*
X23903Y153388D01*
X24073D01*
Y154428D01*
X30604D01*
Y155466D01*
X38540D01*
X46003Y148003D01*
X46003Y148003D01*
X46919Y147391D01*
X47488Y147278D01*
X47945Y146073D01*
X47937Y145932D01*
X43003Y140997D01*
X42391Y140081D01*
X42176Y139000D01*
X42176Y139000D01*
Y97170D01*
X35750Y90744D01*
X31185D01*
X30998Y91440D01*
X29798Y93520D01*
X28100Y95218D01*
X26020Y96419D01*
X23701Y97040D01*
X21299D01*
X18980Y96419D01*
X16900Y95218D01*
X15202Y93520D01*
X14001Y91440D01*
X13380Y89121D01*
Y86719D01*
X14001Y84400D01*
X15202Y82320D01*
X16900Y80622D01*
X18980Y79422D01*
X21299Y78800D01*
X22645D01*
X23444Y78240D01*
X23525Y76894D01*
X22933Y76303D01*
X22321Y75386D01*
X22152Y74540D01*
X21162D01*
X18578Y73848D01*
X16262Y72510D01*
X14370Y70618D01*
X13032Y68302D01*
X12340Y65718D01*
Y65650D01*
X22500D01*
X32660D01*
Y65718D01*
X31968Y68302D01*
X30630Y70618D01*
X29161Y72087D01*
X29321Y73427D01*
X29409Y73564D01*
X30038Y73825D01*
X31175Y74962D01*
X31597Y75980D01*
X27750D01*
Y78520D01*
X31597D01*
X31175Y79538D01*
X30038Y80675D01*
X29761Y80790D01*
X29513Y82036D01*
X29798Y82320D01*
X30998Y84400D01*
X31185Y85096D01*
X36920D01*
X36920Y85096D01*
X38001Y85311D01*
X38917Y85923D01*
X46997Y94003D01*
X46997Y94003D01*
X47609Y94919D01*
X47824Y96000D01*
Y137830D01*
X51519Y141525D01*
X52790Y140999D01*
Y140071D01*
X63790D01*
Y147247D01*
X67071D01*
X67071Y147247D01*
X68152Y147462D01*
X69068Y148074D01*
X77482Y156488D01*
X78980Y156190D01*
X79075Y155962D01*
X79676Y155361D01*
Y154250D01*
X79676Y154250D01*
X79891Y153169D01*
X80503Y152253D01*
X83753Y149003D01*
X84669Y148391D01*
X85750Y148176D01*
Y139031D01*
X91019D01*
Y150071D01*
Y161111D01*
X85750D01*
X84857Y161625D01*
X84789Y161675D01*
X84789Y161675D01*
X84560Y161770D01*
X84262Y163268D01*
X86440Y165446D01*
X142851D01*
X143148Y165000D01*
X147500D01*
Y163730D01*
X148770D01*
Y158879D01*
X149715Y158691D01*
X149715Y158691D01*
X154412D01*
X154657Y158392D01*
Y157920D01*
X159000D01*
Y155380D01*
X154657D01*
Y154913D01*
X154111Y154804D01*
X153562Y154438D01*
X153196Y153889D01*
X153068Y153243D01*
Y149757D01*
X152712Y149324D01*
X149021D01*
X147940Y149109D01*
X147023Y148497D01*
X147023Y148497D01*
X140512Y141986D01*
X140301Y141898D01*
X139457Y141054D01*
X139000Y139952D01*
Y138758D01*
X139275Y138094D01*
X138629Y136824D01*
X136750D01*
Y142750D01*
X136750Y149811D01*
X136750Y150314D01*
X137318Y150823D01*
X138443Y151254D01*
X138993D01*
X140096Y151711D01*
X140939Y152555D01*
X141396Y153657D01*
Y154851D01*
X140939Y155953D01*
X140096Y156797D01*
X139553Y157022D01*
Y158396D01*
X139699Y158457D01*
X140543Y159301D01*
X141000Y160403D01*
Y161597D01*
X140543Y162699D01*
X139699Y163543D01*
X138597Y164000D01*
X137403D01*
X136301Y163543D01*
X135457Y162699D01*
X135000Y161597D01*
Y160403D01*
X135457Y159301D01*
X136301Y158457D01*
X136843Y158232D01*
Y156858D01*
X136697Y156797D01*
X135853Y155953D01*
X135396Y154851D01*
Y153657D01*
X135802Y152678D01*
X136225Y151549D01*
Y151549D01*
X136225Y151549D01*
X135950Y150750D01*
X135661Y150750D01*
X129250D01*
Y149574D01*
X124712D01*
X124711Y149574D01*
X123631Y149359D01*
X122714Y148747D01*
X112094Y138127D01*
X110824Y138653D01*
Y142000D01*
X110824Y142000D01*
X110609Y143081D01*
X109997Y143997D01*
X101926Y152068D01*
X101010Y152680D01*
X99929Y152895D01*
X98829Y153383D01*
Y161111D01*
X93560D01*
Y150071D01*
Y139031D01*
X98829D01*
Y145517D01*
X100003Y146003D01*
X105176Y140830D01*
Y138721D01*
X103906Y137872D01*
X103597Y138000D01*
X102403D01*
X101301Y137543D01*
X100457Y136699D01*
X100000Y135597D01*
Y134994D01*
X98830Y133824D01*
X78000D01*
X76919Y133609D01*
X76003Y132997D01*
X76003Y132997D01*
X71653Y128647D01*
X71041Y127731D01*
X70826Y126650D01*
X70826Y126650D01*
Y124580D01*
X70321Y124243D01*
X69301Y122716D01*
X68943Y120914D01*
Y102407D01*
X69301Y100606D01*
X70321Y99079D01*
X71849Y98058D01*
X73650Y97700D01*
X75451Y98058D01*
X76979Y99079D01*
X77999Y100606D01*
X78357Y102407D01*
Y120914D01*
X77999Y122716D01*
X76979Y124243D01*
X76816Y124352D01*
X76721Y125727D01*
X79170Y128176D01*
X100000D01*
X100000Y128176D01*
X101081Y128391D01*
X101997Y129003D01*
X103906Y130912D01*
X105176Y130386D01*
Y124214D01*
X103906Y123829D01*
X103128Y124993D01*
X101257Y126243D01*
X100320Y126429D01*
Y112931D01*
X105925D01*
X108906Y115912D01*
X110176Y115386D01*
Y104021D01*
X110000Y103597D01*
Y102403D01*
X110457Y101301D01*
X111301Y100457D01*
X111937Y100193D01*
X114127Y98003D01*
X114127Y98003D01*
X115044Y97391D01*
X116124Y97176D01*
X116125Y97176D01*
X117520D01*
X118113Y95906D01*
X117734Y95452D01*
X117628Y95341D01*
X116575Y94289D01*
X116153Y93270D01*
X120000D01*
Y92000D01*
X121270D01*
Y88153D01*
X121730Y88344D01*
X122966Y87647D01*
X123000Y87600D01*
Y87403D01*
X123457Y86301D01*
X124301Y85457D01*
X125403Y85000D01*
X126597D01*
X127446Y84433D01*
Y79000D01*
X121250D01*
Y72540D01*
X120210D01*
Y68770D01*
X129790D01*
Y72522D01*
X130509Y73003D01*
X132267Y74761D01*
X132267Y74761D01*
X132879Y75677D01*
X133094Y76758D01*
Y95352D01*
X133154Y95411D01*
X133752Y95651D01*
X134906Y94785D01*
Y92520D01*
X134906Y92520D01*
X135121Y91439D01*
X135733Y90523D01*
X156833Y69423D01*
X156347Y68250D01*
X151500D01*
Y56750D01*
Y46750D01*
X153051D01*
Y43574D01*
X136750D01*
X135669Y43359D01*
X134753Y42747D01*
X131080Y39074D01*
X129607D01*
X129559Y39122D01*
X128951Y40145D01*
X129537Y41283D01*
X130081Y41391D01*
X130997Y42003D01*
X138275Y49281D01*
X138699Y49457D01*
X139543Y50301D01*
X140000Y51403D01*
Y52597D01*
X139543Y53699D01*
X138699Y54543D01*
X138112Y54787D01*
X138201Y56125D01*
X139289Y56575D01*
X140425Y57712D01*
X140847Y58730D01*
X137000D01*
Y60000D01*
X135730D01*
Y63847D01*
X134712Y63425D01*
X134624Y63337D01*
X132907D01*
X130014Y66230D01*
X126270D01*
Y61986D01*
X130503Y57753D01*
X130503Y57753D01*
X131419Y57141D01*
X132500Y56926D01*
X134361D01*
X134712Y56575D01*
X135799Y56125D01*
X135888Y54787D01*
X135301Y54543D01*
X134457Y53699D01*
X134281Y53275D01*
X127830Y46824D01*
X119863D01*
X119337Y48094D01*
X119543Y48301D01*
X120000Y49403D01*
Y50597D01*
X119543Y51699D01*
X118699Y52543D01*
X117597Y53000D01*
X116403D01*
X116029Y52845D01*
X111671Y52936D01*
X110532Y52977D01*
X110532Y52988D01*
X110420Y53011D01*
Y52982D01*
X109271Y52961D01*
X109271Y52961D01*
X104535D01*
X103729Y53942D01*
X103757Y54086D01*
Y72593D01*
X103399Y74394D01*
X102874Y75181D01*
X103230Y76542D01*
X103899Y76499D01*
X104406Y76289D01*
X105599D01*
X106702Y76746D01*
X107546Y77590D01*
X108003Y78692D01*
Y79886D01*
X107546Y80988D01*
X106702Y81832D01*
X105599Y82289D01*
X104406D01*
X103303Y81832D01*
X102459Y80988D01*
X102003Y79886D01*
Y78692D01*
X102351Y77850D01*
X102459Y77590D01*
X102459Y77589D01*
X102461Y77584D01*
X102501Y77350D01*
X101391Y76581D01*
X100851Y76942D01*
X99050Y77300D01*
X97248Y76942D01*
X95721Y75921D01*
X94701Y74394D01*
X94343Y72593D01*
Y54086D01*
X94701Y52284D01*
X95721Y50757D01*
X97248Y49737D01*
X98693Y49450D01*
X100003Y48139D01*
X100003Y48139D01*
X100070Y48094D01*
X99685Y46824D01*
X97606D01*
X90939Y53491D01*
X91057Y54086D01*
Y72593D01*
X90699Y74394D01*
X89679Y75921D01*
X88151Y76942D01*
X86350Y77300D01*
X84549Y76942D01*
X83021Y75921D01*
X82001Y74394D01*
X81643Y72593D01*
Y54086D01*
X82001Y52284D01*
X83021Y50757D01*
X84549Y49737D01*
X86350Y49379D01*
X86945Y49497D01*
X94439Y42003D01*
X94439Y42003D01*
X95355Y41391D01*
X96436Y41176D01*
X120419D01*
X121250Y40250D01*
X121250Y39906D01*
Y30244D01*
X118830Y27824D01*
X97789D01*
Y35000D01*
X86790D01*
Y15000D01*
X97789D01*
Y22176D01*
X120000D01*
X120000Y22176D01*
X120906Y22356D01*
X121365Y22184D01*
X122176Y21595D01*
Y18751D01*
X122000Y18327D01*
Y17133D01*
X122457Y16031D01*
X123301Y15187D01*
X124403Y14730D01*
X125597D01*
X126699Y15187D01*
X127543Y16031D01*
X128000Y17133D01*
Y18327D01*
X127824Y18751D01*
Y24750D01*
X128750D01*
Y33426D01*
X132250D01*
X132250Y33426D01*
X133331Y33641D01*
X134247Y34253D01*
X137920Y37926D01*
X154176D01*
Y32170D01*
X145524Y23518D01*
X144912Y22602D01*
X144697Y21521D01*
X143469Y21362D01*
X142138D01*
Y13638D01*
X148669D01*
Y12598D01*
X150277D01*
X150364Y11328D01*
X149825Y10789D01*
X149403Y9770D01*
X157097D01*
X156675Y10789D01*
X156136Y11328D01*
X156223Y12598D01*
X158902D01*
Y16230D01*
X153786D01*
Y18770D01*
X158902D01*
Y22402D01*
X158902Y22402D01*
X158902D01*
X159287Y23543D01*
X164997Y29253D01*
X164997Y29253D01*
X165609Y30169D01*
X165824Y31250D01*
X165824Y31250D01*
Y42960D01*
X166230D01*
Y48375D01*
X168770D01*
Y42960D01*
X169676D01*
Y30420D01*
X169152Y29896D01*
X168301Y29543D01*
X167457Y28699D01*
X167000Y27597D01*
Y26403D01*
X167457Y25301D01*
X168301Y24457D01*
X169403Y24000D01*
X170597D01*
X171699Y24457D01*
X172493Y25250D01*
X172497Y25253D01*
X174497Y27253D01*
X174497Y27253D01*
X175109Y28169D01*
X175324Y29250D01*
Y44000D01*
X175750D01*
Y46750D01*
X183500D01*
Y49544D01*
X184770Y49987D01*
X185301Y49457D01*
X186403Y49000D01*
X187597D01*
X188699Y49457D01*
X189543Y50301D01*
X190000Y51403D01*
Y52597D01*
X189543Y53699D01*
X188699Y54543D01*
X187597Y55000D01*
X186403D01*
X185301Y54543D01*
X184770Y54013D01*
X183500Y54456D01*
Y62176D01*
X190830D01*
X193176Y59830D01*
Y53021D01*
X193000Y52597D01*
Y51403D01*
X193457Y50301D01*
X194301Y49457D01*
X195403Y49000D01*
X196597D01*
X197269Y49278D01*
X197943Y48450D01*
X198050Y48227D01*
X197460Y46804D01*
Y46552D01*
X196190Y46053D01*
X195699Y46543D01*
X194597Y47000D01*
X193403D01*
X192301Y46543D01*
X191457Y45699D01*
X191000Y44597D01*
Y43403D01*
X191457Y42301D01*
X192301Y41457D01*
X193403Y41000D01*
X194597D01*
X195699Y41457D01*
X196543Y42301D01*
X196919Y43208D01*
X197447Y43438D01*
X197481Y43446D01*
X198270Y43517D01*
X199212Y42575D01*
X200230Y42153D01*
Y46000D01*
Y49847D01*
X199500Y49545D01*
X199176Y49801D01*
X198625Y50498D01*
X199000Y51403D01*
Y52597D01*
X198824Y53021D01*
Y61000D01*
X198824Y61000D01*
X198609Y62081D01*
X197997Y62997D01*
X197997Y62997D01*
X193997Y66997D01*
X193081Y67609D01*
X192000Y67824D01*
X192000Y67824D01*
X183500D01*
Y68250D01*
X175750D01*
Y71000D01*
X175750Y71000D01*
X175750D01*
X175750Y71000D01*
X176113Y72119D01*
X188997Y85003D01*
X189609Y85919D01*
X189824Y87000D01*
X189824Y87000D01*
Y91979D01*
X190000Y92403D01*
Y93597D01*
X189543Y94699D01*
X188699Y95543D01*
X187597Y96000D01*
X186403D01*
X185554Y96567D01*
Y117310D01*
X188420Y120176D01*
X197000D01*
X197000Y120176D01*
X198081Y120391D01*
X198997Y121003D01*
X201730Y123736D01*
X202580D01*
X203946Y124302D01*
X204528Y124092D01*
X205216Y123706D01*
Y109084D01*
X203946Y108537D01*
X203197Y108847D01*
Y105000D01*
X201927D01*
Y103730D01*
X198080D01*
X198502Y102711D01*
X199639Y101575D01*
X201123Y100960D01*
X201236D01*
X202025Y99690D01*
X201906Y99091D01*
X201906Y99091D01*
Y86133D01*
X200673Y85569D01*
X199571Y86026D01*
X198377D01*
X197275Y85569D01*
X196431Y84725D01*
X195974Y83623D01*
Y82429D01*
X196431Y81327D01*
X197275Y80483D01*
X198377Y80026D01*
X199571D01*
X200673Y80483D01*
X201906Y79919D01*
Y55452D01*
X201906Y55452D01*
X202121Y54371D01*
X202733Y53454D01*
X207971Y48216D01*
Y42210D01*
X237971D01*
Y50735D01*
X238468Y51069D01*
X239242Y51376D01*
X240148Y51000D01*
X241342D01*
X242444Y51457D01*
X243288Y52301D01*
X243745Y53403D01*
Y54597D01*
X243288Y55699D01*
X242444Y56543D01*
X241342Y57000D01*
X240148D01*
X239011Y57904D01*
Y60940D01*
X222971D01*
Y62210D01*
X221702D01*
Y68250D01*
X207554D01*
Y89794D01*
X208824Y90490D01*
X209403Y90250D01*
X210597D01*
X211699Y90707D01*
X212144Y91151D01*
X213196Y91271D01*
X213705Y91053D01*
X214301Y90457D01*
X215403Y90000D01*
X216597D01*
X217699Y90457D01*
X218543Y91301D01*
X219000Y92403D01*
Y93597D01*
X218543Y94699D01*
X217699Y95543D01*
X216597Y96000D01*
X215403D01*
X214301Y95543D01*
X213856Y95099D01*
X212804Y94979D01*
X212295Y95197D01*
X211699Y95793D01*
X210597Y96250D01*
X209403D01*
X208824Y96010D01*
X207554Y96706D01*
Y97921D01*
X210037Y100404D01*
X210037Y100404D01*
X210649Y101320D01*
X210864Y102401D01*
Y111424D01*
X211933Y112138D01*
Y116203D01*
Y120268D01*
X210864Y120982D01*
Y138741D01*
X210875Y138767D01*
X211689Y139695D01*
X217345Y145351D01*
X218273Y146165D01*
X218299Y146176D01*
X220939D01*
Y138479D01*
X229906D01*
Y135862D01*
X229291Y135525D01*
X228636Y135351D01*
X227279Y136257D01*
X225500Y136611D01*
X223720Y136257D01*
X222212Y135249D01*
X221204Y133740D01*
X220850Y131961D01*
Y120030D01*
X221204Y118250D01*
X222212Y116742D01*
X223496Y115883D01*
X223576Y115484D01*
X224188Y114568D01*
X234253Y104503D01*
X235169Y103891D01*
X236250Y103676D01*
X258000D01*
Y89750D01*
X247932D01*
Y82980D01*
X259972D01*
Y80440D01*
X247932D01*
Y73670D01*
X258000D01*
Y62000D01*
X260150D01*
Y35750D01*
X247932D01*
Y28980D01*
X272012D01*
Y35750D01*
X265798D01*
Y62000D01*
X270076D01*
Y59780D01*
X270000Y59597D01*
Y58403D01*
X270457Y57301D01*
X271301Y56457D01*
X272403Y56000D01*
X273597D01*
X274699Y56457D01*
X275543Y57301D01*
X276000Y58403D01*
Y59597D01*
X275724Y60262D01*
Y62000D01*
X297000D01*
Y3000D01*
X3000D01*
Y172000D01*
X83755D01*
X83835Y171793D01*
D02*
G37*
%LPC*%
G36*
X199902Y151402D02*
X196270D01*
Y147556D01*
X199902D01*
Y151402D01*
D02*
G37*
G36*
X261230Y168847D02*
X260212Y168425D01*
X259075Y167288D01*
X258653Y166270D01*
X261230D01*
Y168847D01*
D02*
G37*
G36*
Y163730D02*
X258653D01*
X259075Y162712D01*
X260212Y161575D01*
X261230Y161153D01*
Y163730D01*
D02*
G37*
G36*
X146230Y162460D02*
X143653D01*
X144075Y161441D01*
X145211Y160305D01*
X146230Y159883D01*
Y162460D01*
D02*
G37*
G36*
X17686Y163192D02*
X13839D01*
Y159560D01*
X17686D01*
Y163192D01*
D02*
G37*
G36*
X29270Y151847D02*
Y149270D01*
X31847D01*
X31425Y150288D01*
X30289Y151425D01*
X29270Y151847D01*
D02*
G37*
G36*
X214473Y120050D02*
Y117473D01*
X217050D01*
X216628Y118491D01*
X215491Y119628D01*
X214473Y120050D01*
D02*
G37*
G36*
X97780Y126429D02*
X96843Y126243D01*
X94972Y124993D01*
X93721Y123121D01*
X93282Y120914D01*
Y112931D01*
X97780D01*
Y126429D01*
D02*
G37*
G36*
X217050Y114933D02*
X214473D01*
Y112356D01*
X215491Y112778D01*
X216628Y113914D01*
X217050Y114933D01*
D02*
G37*
G36*
X200657Y108847D02*
X199639Y108425D01*
X198502Y107289D01*
X198080Y106270D01*
X200657D01*
Y108847D01*
D02*
G37*
G36*
X225973Y108144D02*
Y105567D01*
X228550D01*
X228128Y106586D01*
X226991Y107722D01*
X225973Y108144D01*
D02*
G37*
G36*
X223433D02*
X222414Y107722D01*
X221278Y106586D01*
X220856Y105567D01*
X223433D01*
Y108144D01*
D02*
G37*
G36*
X53867Y133000D02*
X52673D01*
X51571Y132543D01*
X50727Y131699D01*
X50270Y130597D01*
Y129403D01*
X50727Y128301D01*
X51571Y127457D01*
X52673Y127000D01*
X53867D01*
X54267Y127166D01*
X58126Y127128D01*
Y125531D01*
X56333D01*
Y103706D01*
X55697Y103334D01*
X55063Y103100D01*
X54097Y103500D01*
X52903D01*
X51801Y103043D01*
X50957Y102199D01*
X50500Y101097D01*
Y99903D01*
X50957Y98801D01*
X51801Y97957D01*
X52188Y97796D01*
X52301Y96468D01*
X51457Y95624D01*
X51000Y94522D01*
Y93328D01*
X51457Y92226D01*
X52222Y91460D01*
X52264Y90750D01*
X52222Y90040D01*
X51457Y89274D01*
X51000Y88172D01*
Y86978D01*
X51457Y85876D01*
X52301Y85032D01*
X53403Y84575D01*
X54597D01*
X55699Y85032D01*
X56543Y85876D01*
X57000Y86978D01*
Y88172D01*
X56543Y89274D01*
X55778Y90040D01*
X55736Y90750D01*
X55778Y91460D01*
X56543Y92226D01*
X57000Y93328D01*
Y94522D01*
X56543Y95624D01*
X56168Y96000D01*
X56020Y97340D01*
X56138Y97661D01*
X56488Y97790D01*
X65567D01*
Y125531D01*
X63774D01*
Y128462D01*
X63774Y128462D01*
X63559Y129543D01*
X62947Y130459D01*
X62227Y131246D01*
X62227Y131246D01*
X60482Y132412D01*
X58462Y132814D01*
Y132814D01*
X58422Y132774D01*
X54315Y132814D01*
X53867Y133000D01*
D02*
G37*
G36*
X228550Y103027D02*
X225973D01*
Y100450D01*
X226991Y100872D01*
X228128Y102009D01*
X228550Y103027D01*
D02*
G37*
G36*
X223433D02*
X220856D01*
X221278Y102009D01*
X222414Y100872D01*
X223433Y100450D01*
Y103027D01*
D02*
G37*
G36*
X104818Y110391D02*
X100320D01*
Y96892D01*
X101257Y97079D01*
X103128Y98329D01*
X104379Y100200D01*
X104818Y102407D01*
Y110391D01*
D02*
G37*
G36*
X97780D02*
X93282D01*
Y102407D01*
X93721Y100200D01*
X94972Y98329D01*
X96843Y97079D01*
X97780Y96892D01*
Y110391D01*
D02*
G37*
G36*
X239597Y96000D02*
X238403D01*
X237301Y95543D01*
X236457Y94699D01*
X236000Y93597D01*
Y92403D01*
X236457Y91301D01*
X237301Y90457D01*
X238403Y90000D01*
X239597D01*
X240699Y90457D01*
X241543Y91301D01*
X242000Y92403D01*
Y93597D01*
X241543Y94699D01*
X240699Y95543D01*
X239597Y96000D01*
D02*
G37*
G36*
X118730Y90730D02*
X116153D01*
X116575Y89712D01*
X117711Y88575D01*
X118730Y88153D01*
Y90730D01*
D02*
G37*
G36*
X138597Y81701D02*
X137403D01*
X136301Y81244D01*
X135457Y80400D01*
X135000Y79298D01*
Y78104D01*
X135457Y77002D01*
X136222Y76236D01*
X136264Y75526D01*
X136222Y74816D01*
X135457Y74050D01*
X135000Y72948D01*
Y71754D01*
X135457Y70652D01*
X136301Y69808D01*
X137403Y69351D01*
X138597D01*
X139699Y69808D01*
X140543Y70652D01*
X141000Y71754D01*
Y72948D01*
X140543Y74050D01*
X139778Y74816D01*
X139736Y75526D01*
X139778Y76236D01*
X140543Y77002D01*
X141000Y78104D01*
Y79298D01*
X140543Y80400D01*
X139699Y81244D01*
X138597Y81701D01*
D02*
G37*
G36*
X86350Y125621D02*
X84549Y125263D01*
X83021Y124243D01*
X82001Y122716D01*
X81643Y120914D01*
Y102407D01*
X82001Y100606D01*
X83021Y99079D01*
X83526Y98742D01*
Y95520D01*
X78975Y90969D01*
X78551Y90793D01*
X77707Y89949D01*
X77531Y89525D01*
X71653Y83647D01*
X71041Y82731D01*
X70826Y81650D01*
X70826Y81650D01*
Y76258D01*
X70321Y75921D01*
X69301Y74394D01*
X68943Y72593D01*
Y66164D01*
X65657D01*
Y72593D01*
X65299Y74394D01*
X64279Y75921D01*
X62751Y76942D01*
X60950Y77300D01*
X59149Y76942D01*
X58186Y76299D01*
X58160Y76294D01*
X56764Y76712D01*
X56734Y76739D01*
X56543Y77199D01*
X55699Y78043D01*
X54597Y78500D01*
X53403D01*
X52301Y78043D01*
X51457Y77199D01*
X51000Y76097D01*
Y74903D01*
X51457Y73801D01*
X52301Y72957D01*
X53403Y72500D01*
X54597D01*
X55004Y72669D01*
X56243Y71841D01*
Y68952D01*
X54973Y68259D01*
X54390Y68500D01*
X53196D01*
X52094Y68043D01*
X51250Y67199D01*
X50793Y66097D01*
Y64903D01*
X51250Y63801D01*
X52094Y62957D01*
X53196Y62500D01*
X54390D01*
X54973Y62741D01*
X56243Y62048D01*
Y54086D01*
X56601Y52284D01*
X57621Y50757D01*
X59149Y49737D01*
X60950Y49379D01*
X62751Y49737D01*
X64279Y50757D01*
X65299Y52284D01*
X65657Y54086D01*
Y60515D01*
X68943D01*
Y54086D01*
X69301Y52284D01*
X70321Y50757D01*
X71849Y49737D01*
X73650Y49379D01*
X75451Y49737D01*
X76979Y50757D01*
X77999Y52284D01*
X78357Y54086D01*
Y72593D01*
X77999Y74394D01*
X76979Y75921D01*
X76474Y76258D01*
Y80480D01*
X81525Y85531D01*
X81949Y85707D01*
X82793Y86551D01*
X82969Y86975D01*
X88347Y92353D01*
X88347Y92353D01*
X88959Y93269D01*
X89174Y94350D01*
Y98742D01*
X89679Y99079D01*
X90699Y100606D01*
X91057Y102407D01*
Y120914D01*
X90699Y122716D01*
X89679Y124243D01*
X88151Y125263D01*
X86350Y125621D01*
D02*
G37*
G36*
X239011Y68250D02*
X224242D01*
Y63480D01*
X239011D01*
Y68250D01*
D02*
G37*
G36*
X123730Y66230D02*
X120210D01*
Y62460D01*
X123730D01*
Y66230D01*
D02*
G37*
G36*
X138270Y63847D02*
Y61270D01*
X140847D01*
X140425Y62288D01*
X139289Y63425D01*
X138270Y63847D01*
D02*
G37*
G36*
X32660Y63110D02*
X23770D01*
Y54220D01*
X23838D01*
X26422Y54912D01*
X28738Y56250D01*
X30630Y58142D01*
X31968Y60458D01*
X32660Y63042D01*
Y63110D01*
D02*
G37*
G36*
X21230D02*
X12340D01*
Y63042D01*
X13032Y60458D01*
X13600Y59475D01*
X9253Y55127D01*
X8641Y54211D01*
X8426Y53130D01*
X8426Y53130D01*
Y33750D01*
X8426Y33750D01*
X8641Y32669D01*
X9253Y31753D01*
X15676Y25330D01*
Y22402D01*
X13598D01*
Y21304D01*
X13345Y21159D01*
X12328Y20915D01*
X11699Y21543D01*
X10597Y22000D01*
X9403D01*
X8301Y21543D01*
X7457Y20699D01*
X7000Y19597D01*
Y18403D01*
X7457Y17301D01*
X8301Y16457D01*
X9403Y16000D01*
X10597D01*
X11699Y16457D01*
X12328Y17085D01*
X13345Y16841D01*
X13598Y16696D01*
Y12598D01*
X18337D01*
X20564Y10371D01*
X20564Y10371D01*
X21481Y9758D01*
X22562Y9543D01*
X22562Y9543D01*
X50157D01*
X50157Y9543D01*
X51238Y9758D01*
X52154Y10371D01*
X55064Y13280D01*
X55837Y13212D01*
X56358Y12520D01*
X64597D01*
X64526Y12690D01*
X64830Y13960D01*
X64830D01*
X64830Y13960D01*
Y23730D01*
X51750D01*
Y17954D01*
X48987Y15192D01*
X30362D01*
Y21362D01*
X29110D01*
Y33618D01*
X29110Y33618D01*
X28955Y34397D01*
X29798Y35240D01*
X30389Y36264D01*
X39141D01*
X39849Y34994D01*
X39653Y34520D01*
X47347D01*
X47151Y34994D01*
X47859Y36264D01*
X50572D01*
X51750Y36040D01*
Y26270D01*
X64830D01*
Y36040D01*
X64830Y36040D01*
X64830D01*
X65347Y36288D01*
X65699Y36457D01*
X65860Y36618D01*
X65860Y36618D01*
X65892Y36649D01*
X66543Y37301D01*
X67000Y38403D01*
Y39597D01*
X66543Y40699D01*
X65699Y41543D01*
X64597Y42000D01*
X63403D01*
X63191Y41912D01*
X31620D01*
Y42041D01*
X30998Y44360D01*
X29798Y46440D01*
X28100Y48138D01*
X26020Y49338D01*
X23701Y49960D01*
X21299D01*
X18980Y49338D01*
X16900Y48138D01*
X15344Y46582D01*
X14074Y46783D01*
Y51960D01*
X17594Y55480D01*
X18578Y54912D01*
X21162Y54220D01*
X21230D01*
Y63110D01*
D02*
G37*
G36*
X202770Y49847D02*
Y47270D01*
X205347D01*
X204925Y48288D01*
X203789Y49425D01*
X202770Y49847D01*
D02*
G37*
G36*
X205347Y44730D02*
X202770D01*
Y42153D01*
X203789Y42575D01*
X204925Y43712D01*
X205347Y44730D01*
D02*
G37*
G36*
X234847Y39000D02*
X233653D01*
X232551Y38543D01*
X231707Y37699D01*
X231250Y36597D01*
Y35403D01*
X231707Y34301D01*
X232062Y33945D01*
X231843Y32480D01*
X231712Y32425D01*
X230575Y31288D01*
X230153Y30270D01*
X237847D01*
X237425Y31288D01*
X236432Y32282D01*
X236289Y32630D01*
X236291Y33798D01*
X236793Y34301D01*
X237250Y35403D01*
Y36597D01*
X236793Y37699D01*
X235949Y38543D01*
X234847Y39000D01*
D02*
G37*
G36*
X47347Y31980D02*
X44770D01*
Y29403D01*
X45788Y29825D01*
X46925Y30961D01*
X47347Y31980D01*
D02*
G37*
G36*
X42230D02*
X39653D01*
X40075Y30961D01*
X41212Y29825D01*
X42230Y29403D01*
Y31980D01*
D02*
G37*
G36*
X237847Y27730D02*
X235270D01*
Y25153D01*
X236289Y25575D01*
X237425Y26711D01*
X237847Y27730D01*
D02*
G37*
G36*
X232730D02*
X230153D01*
X230575Y26711D01*
X231712Y25575D01*
X232730Y25153D01*
Y27730D01*
D02*
G37*
G36*
X180597Y31000D02*
X179403D01*
X178301Y30543D01*
X177457Y29699D01*
X177000Y28597D01*
Y27403D01*
X177457Y26301D01*
X178301Y25457D01*
X179403Y25000D01*
X180597D01*
X181699Y25457D01*
X182543Y26301D01*
X183000Y27403D01*
Y28597D01*
X182543Y29699D01*
X181699Y30543D01*
X180597Y31000D01*
D02*
G37*
G36*
X272012Y26440D02*
X261241D01*
Y19670D01*
X272012D01*
Y26440D01*
D02*
G37*
G36*
X258701D02*
X247932D01*
Y19670D01*
X258701D01*
Y26440D01*
D02*
G37*
G36*
X277347Y17750D02*
X276153D01*
X275051Y17293D01*
X274207Y16449D01*
X273750Y15347D01*
Y14153D01*
X274207Y13051D01*
X275051Y12207D01*
X276153Y11750D01*
X277347D01*
X278449Y12207D01*
X279293Y13051D01*
X279750Y14153D01*
Y15347D01*
X279293Y16449D01*
X278449Y17293D01*
X277347Y17750D01*
D02*
G37*
G36*
X64597Y9980D02*
X62020D01*
Y7403D01*
X63039Y7825D01*
X64175Y8961D01*
X64597Y9980D01*
D02*
G37*
G36*
X59480D02*
X56903D01*
X57325Y8961D01*
X58461Y7825D01*
X59480Y7403D01*
Y9980D01*
D02*
G37*
G36*
X157097Y7230D02*
X154520D01*
Y4653D01*
X155539Y5075D01*
X156675Y6212D01*
X157097Y7230D01*
D02*
G37*
G36*
X151980D02*
X149403D01*
X149825Y6212D01*
X150962Y5075D01*
X151980Y4653D01*
Y7230D01*
D02*
G37*
%LPD*%
D14*
X110473Y50136D02*
G03*
X110420Y50136I-53J-2539D01*
G01*
X60202Y129210D02*
G03*
X58435Y129950I-1792J-1800D01*
G01*
X176782Y150760D02*
G03*
X174990Y151500I-1792J-1800D01*
G01*
X163260Y135260D02*
G03*
X164000Y137052I-1800J1792D01*
G01*
X156472Y128508D02*
G03*
X156739Y128739I-1524J2032D01*
G01*
X154948Y128000D02*
G03*
X156472Y128508I0J2540D01*
G01*
X218052Y149000D02*
G03*
X216528Y148492I0J-2540D01*
G01*
D02*
G03*
X216261Y148261I1524J-2032D01*
G01*
X208779Y140779D02*
G03*
X208548Y140512I1801J-1791D01*
G01*
D02*
G03*
X208040Y138988I2032J-1524D01*
G01*
X244500Y158700D02*
G03*
X241960Y161240I-2540J0D01*
G01*
X228040D02*
G03*
X225500Y158700I0J-2540D01*
G01*
X245265Y148240D02*
G03*
X247057Y147500I1792J1800D01*
G01*
X0Y0D02*
X300000D01*
X0Y175000D02*
X300000D01*
Y0D02*
Y175000D01*
X0Y0D02*
Y175000D01*
X187000Y87000D02*
Y93000D01*
X172500Y72500D02*
X187000Y87000D01*
X196000Y52000D02*
Y61000D01*
X192000Y65000D02*
X196000Y61000D01*
X179125Y65000D02*
X192000D01*
X159000Y81750D02*
X164750Y76000D01*
X155000Y85750D02*
X159000Y81750D01*
X167500Y66625D02*
X167569Y66694D01*
Y73181D01*
X164750Y76000D02*
X167569Y73181D01*
X164750Y76000D02*
Y76000D01*
X172130Y146000D02*
X175000D01*
X171650Y146480D02*
X172130Y146000D01*
X171650Y146480D02*
Y146500D01*
X162040Y100000D02*
X162500Y99540D01*
X157488Y100000D02*
X162040D01*
X155000Y97512D02*
X157488Y100000D01*
X163730Y95270D02*
Y99270D01*
X163000Y100000D02*
X163730Y99270D01*
X166690Y92310D02*
X177202D01*
X163730Y95270D02*
X166690Y92310D01*
X177202D02*
X178690Y93798D01*
Y142310D01*
X175000Y146000D02*
X178690Y142310D01*
X155000Y85750D02*
Y97512D01*
X102000Y50136D02*
X110420D01*
X99050Y53086D02*
X102000Y50136D01*
X99050Y53086D02*
Y63339D01*
X110473Y50136D02*
X117000Y50000D01*
X73650Y111661D02*
Y126650D01*
X100000Y131000D02*
X103000Y134000D01*
X78000Y131000D02*
X100000D01*
X103000Y134000D02*
Y135000D01*
X73650Y126650D02*
X78000Y131000D01*
X96436Y44000D02*
X129000D01*
X86350Y54086D02*
X96436Y44000D01*
X86350Y54086D02*
Y63339D01*
X129000Y44000D02*
X137000Y52000D01*
X60950Y111661D02*
Y128462D01*
X60206Y129206D02*
X60950Y128462D01*
X60202Y129210D02*
X60206Y129206D01*
X53270Y130000D02*
X58435Y129950D01*
X10000Y123960D02*
X22500Y111460D01*
X10000Y123960D02*
Y144000D01*
X22500Y87920D02*
X36920D01*
X45000Y96000D01*
X26527Y158290D02*
X39710D01*
X45000Y139000D02*
X51000Y145000D01*
X39710Y158290D02*
X48000Y150000D01*
X58000D01*
X51000Y145000D02*
X57000D01*
X45000Y96000D02*
Y139000D01*
X58289Y150071D02*
X67071D01*
X85270Y168270D02*
X215730D01*
X67071Y150071D02*
X85270Y168270D01*
X215730D02*
X220000Y164000D01*
X22500Y135000D02*
X38500Y142539D01*
X166390Y161515D02*
X172908D01*
X149715D02*
X166390D01*
X164480Y157280D02*
Y159605D01*
X166390Y161515D01*
X163850Y156650D02*
X164480Y157280D01*
X18929Y17500D02*
X20021Y16408D01*
Y14908D02*
X22562Y12368D01*
X20021Y14908D02*
Y16408D01*
X18500Y18592D02*
Y26500D01*
X11250Y33750D02*
X18500Y26500D01*
X19000Y17500D02*
Y18092D01*
X18500Y18592D02*
X19000Y18092D01*
X22562Y12368D02*
X50157D01*
X58250Y20461D01*
Y22000D01*
X11250Y33750D02*
Y53130D01*
X153250Y8500D02*
Y16964D01*
X153786Y17500D01*
X154000Y17714D01*
Y22250D01*
X163000Y31250D01*
X132500Y59750D02*
X136500D01*
X125000Y67250D02*
Y67500D01*
Y67250D02*
X132500Y59750D01*
X163000Y31250D02*
Y47750D01*
X162500Y48375D02*
X167020D01*
X23500Y148000D02*
X27250D01*
X92289Y150071D02*
X99929D01*
X91361Y151000D02*
X92289Y150071D01*
X101000Y108527D02*
Y112000D01*
X108000Y119000D01*
X99929Y150071D02*
X108000Y142000D01*
Y119000D02*
Y142000D01*
X19382Y152118D02*
X23500Y148000D01*
X19382Y152118D02*
Y157864D01*
X18956Y158290D02*
X19382Y157864D01*
X82500Y154250D02*
X85750Y151000D01*
X82500Y154250D02*
Y158250D01*
X85750Y151000D02*
X91361D01*
X130000Y117500D02*
X131230Y116520D01*
X160224Y90526D02*
X162480Y88270D01*
X180520D01*
X131509Y116520D02*
X132912Y115117D01*
X131230Y116520D02*
X131509D01*
X132912Y115117D02*
X133000Y109000D01*
X159000Y157000D02*
X159350Y156650D01*
X147500Y163730D02*
X149715Y161515D01*
X159000Y156650D02*
X164000D01*
X167250Y48000D02*
Y48145D01*
X167020Y48375D02*
X167250Y48145D01*
X180520Y88270D02*
X182730Y90480D01*
Y118480D01*
X187250Y123000D02*
X197000D01*
X182730Y118480D02*
X187250Y123000D01*
X166500Y129500D02*
Y129625D01*
X169000Y132125D01*
X197000Y123000D02*
X201776Y127776D01*
X169000Y132125D02*
Y141980D01*
X172908Y161515D02*
X188138Y146286D01*
X195000D01*
X238301Y114199D02*
X254949D01*
X272000Y131250D01*
X281693Y120407D02*
X282100Y120000D01*
X281693Y146693D02*
X282000Y147000D01*
X281286Y148592D02*
X282378Y147500D01*
X281286Y148592D02*
Y158714D01*
X262500Y165000D02*
X275000D01*
X281286Y158714D01*
X222971Y62210D02*
X223750Y61432D01*
X259972Y81710D02*
X262974Y78707D01*
Y67026D02*
Y78707D01*
X262750Y28750D02*
X262974Y28974D01*
Y67026D01*
X232730Y119770D02*
X238301Y114199D01*
X272000Y131250D02*
X281693D01*
Y146693D01*
Y120407D02*
Y131250D01*
X232730Y119770D02*
Y139800D01*
X235000Y142070D01*
Y149005D01*
X11250Y53130D02*
X24930Y66810D01*
X27750Y77126D02*
Y77250D01*
X24930Y74306D02*
X27750Y77126D01*
X24930Y66810D02*
Y74306D01*
X120000Y25000D02*
X124000Y29000D01*
X92289Y25000D02*
X120000D01*
X125000Y17730D02*
Y28750D01*
X23000Y36903D02*
Y40000D01*
Y36903D02*
X26286Y33618D01*
X24000Y40000D02*
X24912Y39088D01*
X63912D01*
X26286Y17500D02*
Y33618D01*
X63912Y39088D02*
X64000Y39000D01*
X60950Y63339D02*
X72661D01*
X73000Y63000D01*
X73650Y70350D02*
Y81650D01*
Y70350D02*
X74000Y70000D01*
X132250Y36250D02*
X136750Y40750D01*
X125000Y36250D02*
X132250D01*
X136750Y40750D02*
X157000D01*
X146429Y17500D02*
X147521Y18592D01*
X146214Y17500D02*
X146429D01*
X147521Y18592D02*
Y21521D01*
X157000Y31000D01*
X73650Y81650D02*
X80250Y88250D01*
X86350Y94350D01*
X155875Y42375D02*
X157000Y41250D01*
X86350Y94350D02*
Y111661D01*
X113125Y103000D02*
X116124Y100000D01*
X113000Y103000D02*
X113125D01*
X113000Y103125D02*
Y135039D01*
X116124Y100000D02*
X121750D01*
X122000Y100250D01*
X113000Y135039D02*
X124711Y146750D01*
X132500D01*
X133000Y146250D01*
X155875Y42375D02*
Y50000D01*
X157000Y31000D02*
Y40500D01*
X172500Y29250D02*
Y48375D01*
X170500Y27250D02*
X172500Y29250D01*
X172000Y100000D02*
Y114540D01*
X272900Y58900D02*
X273000Y59000D01*
X167270Y123730D02*
X171270Y119730D01*
Y115270D02*
Y119730D01*
Y115270D02*
X172000Y114540D01*
X176782Y150760D02*
X183023Y144519D01*
X172000Y151500D02*
X174990D01*
X169480Y156020D02*
X169682D01*
X169000Y156500D02*
Y156650D01*
Y156500D02*
X169480Y156020D01*
X171300Y152000D02*
X172000D01*
X169682Y156020D02*
X171170Y154532D01*
Y152130D02*
X171300Y152000D01*
X171170Y152130D02*
Y154532D01*
X225500Y125995D02*
X226185Y125310D01*
X193908Y138714D02*
X194622Y138000D01*
X195000D01*
X195000Y138714D02*
X195286Y139000D01*
X183023Y144519D02*
X188828Y138714D01*
X193908D01*
X200000Y139000D02*
X205000Y144000D01*
X195286Y139000D02*
X200000D01*
X205000Y144000D02*
Y164000D01*
X272900Y58900D02*
Y117400D01*
Y120000D01*
X262000Y106500D02*
X272900Y117400D01*
X226185Y116565D02*
X236250Y106500D01*
X262000D01*
X226185Y116565D02*
Y125310D01*
X137250Y123730D02*
X167270D01*
X131838Y129142D02*
X137250Y123730D01*
X131838Y129142D02*
Y130288D01*
X131750Y130375D02*
X131838Y130288D01*
X142000Y128000D02*
X154948D01*
X149021Y146500D02*
X156350D01*
X142000Y139480D02*
X149021Y146500D01*
X142000Y139355D02*
Y139480D01*
X123339Y109250D02*
X128770Y103819D01*
Y100250D02*
Y103819D01*
Y100250D02*
X130000Y99020D01*
X164000Y137052D02*
Y142000D01*
X162270Y134270D02*
X163260Y135260D01*
X161960Y134270D02*
X162270D01*
X172500Y66625D02*
Y72500D01*
X159459Y131769D02*
X161960Y134270D01*
X159459Y131459D02*
Y131769D01*
X156739Y128739D02*
X159459Y131459D01*
X142710Y104540D02*
X162500D01*
X142250Y105000D02*
X142710Y104540D01*
X204730Y55452D02*
X213181Y47000D01*
X214000D01*
X225495Y149000D02*
X225500Y149005D01*
X218052Y149000D02*
X225495D01*
X208779Y140779D02*
X216261Y148261D01*
X208040Y102401D02*
Y138988D01*
X204730Y99091D02*
X208040Y102401D01*
X204730Y55452D02*
Y99091D01*
X228040Y161240D02*
X241960D01*
X244500Y149005D02*
Y158700D01*
X225500Y153000D02*
Y158700D01*
X247057Y147500D02*
X272500D01*
X244500Y149005D02*
X245265Y148240D01*
X143250Y134000D02*
X150600Y141350D01*
X132500Y138000D02*
X133000Y137500D01*
X122500Y128500D02*
X132750Y138750D01*
X133000Y135488D02*
Y137500D01*
X132750Y138750D02*
X133750D01*
X134488Y134000D02*
X143250D01*
X133000Y135488D02*
X134488Y134000D01*
X122500Y117500D02*
Y128500D01*
X150600Y141350D02*
X159000D01*
X137730Y92520D02*
Y106769D01*
Y92520D02*
X162500Y67750D01*
Y65750D02*
Y67750D01*
X137730Y106769D02*
X140501Y109540D01*
X162500D01*
X141971Y118990D02*
X146421Y114540D01*
X162500D01*
X130270Y76758D02*
Y99000D01*
X128512Y75000D02*
X130270Y76758D01*
X125000Y75000D02*
X128512D01*
X0Y0D02*
X300000D01*
X0Y175000D02*
X300000D01*
Y0D02*
Y175000D01*
X0Y0D02*
Y175000D01*
D21*
X130000Y117500D02*
D03*
X122500Y100000D02*
D03*
Y117500D02*
D03*
X130000Y100000D02*
D03*
D26*
X26527Y158290D02*
D03*
X18714Y17500D02*
D03*
X153786D02*
D03*
X18956Y158290D02*
D03*
X281286Y147500D02*
D03*
X26286Y17500D02*
D03*
X146214D02*
D03*
X273714Y147500D02*
D03*
D33*
X125000Y67500D02*
D03*
Y28750D02*
D03*
Y36250D02*
D03*
X133000Y146750D02*
D03*
Y139250D02*
D03*
X125000Y75000D02*
D03*
D63*
X198974Y83026D02*
D03*
X240745Y54000D02*
D03*
X234250Y36000D02*
D03*
X216000Y93000D02*
D03*
X187000D02*
D03*
X194000Y44000D02*
D03*
X166750Y82066D02*
D03*
X159000Y81750D02*
D03*
X54000Y87575D02*
D03*
X138000Y78701D02*
D03*
X138396Y154254D02*
D03*
X117000Y50000D02*
D03*
X103000Y135000D02*
D03*
X210000Y93250D02*
D03*
X137000Y52000D02*
D03*
X53270Y130000D02*
D03*
X193000Y128000D02*
D03*
X10000Y144000D02*
D03*
X237000Y128000D02*
D03*
X220000Y164000D02*
D03*
X180000Y28000D02*
D03*
X38500Y142539D02*
D03*
X239000Y93000D02*
D03*
X43500Y33250D02*
D03*
X153250Y8500D02*
D03*
X137000Y60000D02*
D03*
X28000Y148000D02*
D03*
X120000Y92000D02*
D03*
X82500Y158250D02*
D03*
X160224Y90526D02*
D03*
X133000Y109000D02*
D03*
X147500Y163730D02*
D03*
X201927Y105000D02*
D03*
X224703Y104297D02*
D03*
X234000Y29000D02*
D03*
X262974Y67026D02*
D03*
X213203Y116203D02*
D03*
X166500Y129500D02*
D03*
X201776Y127776D02*
D03*
X262500Y165000D02*
D03*
X60750Y11250D02*
D03*
X27750Y77250D02*
D03*
X201500Y46000D02*
D03*
X184460Y127981D02*
D03*
X190000Y164000D02*
D03*
X125000Y17730D02*
D03*
X64000Y39000D02*
D03*
X80250Y88250D02*
D03*
X156905Y41000D02*
D03*
X113000Y103000D02*
D03*
X170000Y27000D02*
D03*
X276750Y14750D02*
D03*
X273000Y59000D02*
D03*
X205000Y163730D02*
D03*
X131750Y130500D02*
D03*
X54000Y93925D02*
D03*
X138000Y72351D02*
D03*
Y161000D02*
D03*
X142000Y128000D02*
D03*
Y139355D02*
D03*
X123339Y109250D02*
D03*
X187000Y52000D02*
D03*
X142000Y105000D02*
D03*
X10000Y19000D02*
D03*
X141971Y118990D02*
D03*
X125000Y141000D02*
D03*
X53500Y100500D02*
D03*
X105003Y79289D02*
D03*
X53793Y65500D02*
D03*
X126000Y88000D02*
D03*
X54000Y75500D02*
D03*
X196000Y52000D02*
D03*
D64*
X171650Y146500D02*
D03*
X159000Y156650D02*
D03*
X164000D02*
D03*
X169000Y141350D02*
D03*
Y156650D02*
D03*
X171650Y151500D02*
D03*
X164000Y141350D02*
D03*
X159000D02*
D03*
X156350Y146500D02*
D03*
Y151500D02*
D03*
D65*
X167500Y66625D02*
D03*
X162500Y48375D02*
D03*
X167500D02*
D03*
X172500D02*
D03*
Y66625D02*
D03*
X162500D02*
D03*
D66*
X162500Y99540D02*
D03*
X172500D02*
D03*
Y114540D02*
D03*
X162500D02*
D03*
D67*
X99050Y63339D02*
D03*
X73650Y111661D02*
D03*
X86350Y63339D02*
D03*
X99050Y111661D02*
D03*
X60950Y63339D02*
D03*
X73650D02*
D03*
X86350Y111661D02*
D03*
D68*
X60950D02*
D03*
D69*
X22500Y111460D02*
D03*
Y87920D02*
D03*
Y135000D02*
D03*
Y64380D02*
D03*
Y40840D02*
D03*
D70*
X58289Y150071D02*
D03*
Y25000D02*
D03*
X92289Y150071D02*
D03*
Y25000D02*
D03*
D71*
X259972Y27710D02*
D03*
Y81710D02*
D03*
D72*
X222971Y62210D02*
D03*
Y47210D02*
D03*
D73*
X195000Y146286D02*
D03*
Y138714D02*
D03*
D74*
X282100Y120000D02*
D03*
X272900D02*
D03*
D75*
X235000Y149005D02*
D03*
X225500Y125995D02*
D03*
X244500Y149005D02*
D03*
Y125995D02*
D03*
D76*
X155875Y50000D02*
D03*
X179125Y65000D02*
D03*
Y60000D02*
D03*
Y55000D02*
D03*
Y50000D02*
D03*
X155875Y55000D02*
D03*
Y60000D02*
D03*
Y65000D02*
D03*
D77*
X172500Y104540D02*
D03*
Y109540D02*
D03*
X162500Y104540D02*
D03*
Y109540D02*
D03*
D78*
X225500Y149005D02*
D03*
M02*
