G04*
G04 #@! TF.GenerationSoftware,Altium Limited,Altium Designer,25.8.1 (18)*
G04*
G04 Layer_Physical_Order=1*
G04 Layer_Color=255*
%FSLAX44Y44*%
%MOMM*%
G71*
G04*
G04 #@! TF.SameCoordinates,21D81E98-52A8-4FCB-A247-477666DB80DC*
G04*
G04*
G04 #@! TF.FilePolarity,Positive*
G04*
G01*
G75*
%ADD14C,0.2540*%
%ADD17R,0.7000X0.7000*%
%ADD18R,0.7000X0.7000*%
%ADD19R,1.1500X0.7000*%
%ADD20R,0.7000X1.1500*%
%ADD21R,0.5000X0.4500*%
%ADD22R,1.3500X0.4000*%
%ADD23R,0.6000X0.7000*%
%ADD24R,0.4500X0.4500*%
%ADD25R,0.7000X0.6500*%
%ADD26R,0.5153X0.4725*%
%ADD27R,1.5562X1.4546*%
%ADD28R,0.5000X0.5000*%
%ADD29R,0.7500X0.2500*%
%ADD30R,0.8500X1.2000*%
%ADD31R,0.5500X0.6000*%
%ADD32R,0.4000X0.6000*%
%ADD33R,0.4500X0.5000*%
%ADD34R,0.6682X0.6725*%
%ADD35R,1.6500X1.4500*%
%ADD36R,0.6200X0.6600*%
%ADD37R,1.0000X0.7000*%
%ADD38R,0.5000X0.5000*%
%ADD39R,0.7000X0.2500*%
%ADD40R,1.6000X2.1000*%
%ADD41R,1.9000X1.9000*%
%ADD57R,1.2000X1.2000*%
%ADD62C,0.3810*%
%ADD63C,0.3000*%
G36*
X297000Y159000D02*
X292953D01*
Y159026D01*
X282953D01*
Y159000D01*
X267453D01*
Y159026D01*
X265301D01*
Y163922D01*
X265500Y164403D01*
Y165597D01*
X265043Y166699D01*
X264199Y167543D01*
X263097Y168000D01*
X261903D01*
X260801Y167543D01*
X259957Y166699D01*
X259500Y165597D01*
Y164403D01*
X259652Y164036D01*
Y159026D01*
X257453D01*
Y159026D01*
X248723D01*
X247453Y159026D01*
X246183Y159026D01*
X238723D01*
X237453Y159026D01*
X236183Y159026D01*
X228723D01*
X227453Y159026D01*
X226175Y159026D01*
X225277Y159924D01*
Y161547D01*
X225277Y161547D01*
X225062Y162628D01*
X224450Y163544D01*
X222719Y165275D01*
X222543Y165699D01*
X221699Y166543D01*
X220597Y167000D01*
X219403D01*
X218301Y166543D01*
X217457Y165699D01*
X217000Y164597D01*
Y163403D01*
X217457Y162301D01*
X218301Y161457D01*
X218725Y161281D01*
X219051Y160955D01*
Y159346D01*
X218731Y159026D01*
X217453Y159026D01*
X216183Y159026D01*
X207519D01*
X207267Y160296D01*
X207288Y160305D01*
X208425Y161441D01*
X208847Y162460D01*
X201153D01*
X201575Y161441D01*
X202712Y160305D01*
X202733Y160296D01*
X202481Y159026D01*
X197453Y159026D01*
X196175Y159026D01*
X195277Y159924D01*
Y161547D01*
X195277Y161547D01*
X195062Y162628D01*
X194450Y163544D01*
X192719Y165275D01*
X192543Y165699D01*
X191699Y166543D01*
X190597Y167000D01*
X189403D01*
X188301Y166543D01*
X187457Y165699D01*
X187000Y164597D01*
Y163403D01*
X187457Y162301D01*
X188301Y161457D01*
X188725Y161281D01*
X189051Y160955D01*
Y159346D01*
X188731Y159026D01*
X187453Y159026D01*
X186183Y159026D01*
X178723D01*
X177453Y159026D01*
X176183Y159026D01*
X157453D01*
Y144526D01*
X176183D01*
X177453Y144526D01*
X178723Y144526D01*
X186183D01*
X187453Y144526D01*
X188723Y144526D01*
X196183D01*
X197453Y144526D01*
X198723Y144526D01*
X216183D01*
X217453Y144526D01*
X218723Y144526D01*
X226183D01*
X227453Y144526D01*
X228723Y144526D01*
X236183D01*
X237453Y144526D01*
X238723Y144526D01*
X246183D01*
X247453Y144526D01*
X248723Y144526D01*
X257453D01*
X258000Y143483D01*
Y135526D01*
X244453D01*
Y133350D01*
X239651D01*
X239650Y133350D01*
X238570Y133135D01*
X238153Y132857D01*
X236953Y133582D01*
Y143026D01*
X227223D01*
X226953Y143026D01*
X225953D01*
X225683Y143026D01*
X216223D01*
X215953Y143026D01*
X214953D01*
X214683Y143026D01*
X205223D01*
X204953Y143026D01*
X203953D01*
X203683Y143026D01*
X194223D01*
X193953Y143026D01*
Y143026D01*
X192953D01*
Y143026D01*
X183223D01*
X182953Y143026D01*
X181953D01*
X181683Y143026D01*
X171953D01*
Y133296D01*
X171953Y133026D01*
Y132026D01*
X171953Y131756D01*
Y122296D01*
X171953Y122026D01*
Y121026D01*
X171953Y120756D01*
Y111296D01*
X171953Y111026D01*
Y110026D01*
X171953Y109756D01*
Y100296D01*
X171953Y100026D01*
Y99026D01*
X171953Y98756D01*
Y89296D01*
X171953Y89026D01*
Y88026D01*
X171953Y87756D01*
Y86173D01*
X171723Y86034D01*
X171427Y86084D01*
X170453Y86750D01*
Y94256D01*
X170453Y95526D01*
X170453Y96796D01*
Y104256D01*
X170453Y105526D01*
X170453Y106796D01*
Y114256D01*
X170453Y115526D01*
X170453Y116796D01*
Y124256D01*
X170453Y125526D01*
X170453Y126796D01*
Y135526D01*
X155953D01*
Y144256D01*
X155953Y145526D01*
X155953Y146796D01*
Y155526D01*
X145953D01*
Y146796D01*
X145953Y145526D01*
X145953Y144256D01*
Y140970D01*
X144683Y140717D01*
X144543Y141054D01*
X143699Y141898D01*
X142597Y142355D01*
X141403D01*
X140301Y141898D01*
X139457Y141054D01*
X139281Y140630D01*
X135253Y136602D01*
X134641Y135686D01*
X134524Y135098D01*
X133515Y134380D01*
X133156Y134291D01*
X133020Y134347D01*
Y130500D01*
X130480D01*
Y134347D01*
X129461Y133925D01*
X128325Y132788D01*
X128230Y132560D01*
X126732Y132262D01*
X126462Y132532D01*
X125546Y133144D01*
X124465Y133359D01*
X124465Y133359D01*
X106698D01*
X106000Y134403D01*
Y135597D01*
X105543Y136699D01*
X104699Y137543D01*
X103597Y138000D01*
X102403D01*
X101301Y137543D01*
X100457Y136699D01*
X100000Y135597D01*
X99362Y135328D01*
X98092Y136086D01*
Y140380D01*
X102524Y144812D01*
X108092D01*
Y135290D01*
X117092D01*
Y137466D01*
X124290D01*
X124290Y137466D01*
X125371Y137681D01*
X126260Y138275D01*
X126699Y138457D01*
X127543Y139301D01*
X128000Y140403D01*
Y141597D01*
X127543Y142699D01*
X126699Y143543D01*
X125597Y144000D01*
X124403D01*
X123301Y143543D01*
X122872Y143114D01*
X117092D01*
Y144812D01*
X120235D01*
X121564Y145076D01*
X122690Y145829D01*
X128072Y151211D01*
X131531D01*
X131696Y151178D01*
X136870D01*
X137067Y151046D01*
X138396Y150782D01*
X139725Y151046D01*
X140851Y151799D01*
X141603Y152925D01*
X141868Y154254D01*
X141603Y155583D01*
X140851Y156709D01*
X140507Y157053D01*
X140328Y157312D01*
Y158260D01*
X140495Y158605D01*
X141208Y159671D01*
X141472Y161000D01*
X141208Y162329D01*
X140455Y163455D01*
X139329Y164207D01*
X138000Y164472D01*
X134458D01*
X134293Y164504D01*
X129405D01*
X123180Y170730D01*
X123706Y172000D01*
X297000D01*
Y159000D01*
D02*
G37*
G36*
X94594Y146733D02*
X94597Y146704D01*
X93182Y145290D01*
X89092D01*
X89092Y135290D01*
X87986Y134894D01*
X70003D01*
X70003Y134894D01*
X68922Y134679D01*
X68006Y134067D01*
X63495Y129557D01*
X59989D01*
Y121557D01*
Y114057D01*
X60915D01*
Y111261D01*
X60915Y111261D01*
X61130Y110180D01*
X61742Y109264D01*
X63176Y107830D01*
Y106060D01*
X61845D01*
Y96335D01*
X63861D01*
Y82315D01*
X63861Y82314D01*
X64076Y81234D01*
X64689Y80317D01*
X64689Y80317D01*
X68759Y76247D01*
X68764Y76242D01*
X68740Y76201D01*
X70480Y75038D01*
X71685Y74798D01*
Y70324D01*
X63839D01*
X63599Y70424D01*
X56684Y76860D01*
X56543Y77199D01*
X55699Y78043D01*
X54597Y78500D01*
X53403D01*
X52301Y78043D01*
X51457Y77199D01*
X51000Y76097D01*
Y74903D01*
X51457Y73801D01*
X52301Y72957D01*
X52817Y72743D01*
X58882Y67098D01*
X58883Y66896D01*
X58504Y65663D01*
X58236Y65558D01*
X57777Y65511D01*
X56512Y66775D01*
X56336Y67199D01*
X55492Y68043D01*
X54390Y68500D01*
X53196D01*
X52094Y68043D01*
X51250Y67199D01*
X50793Y66097D01*
Y64903D01*
X51250Y63801D01*
X52094Y62957D01*
X52518Y62781D01*
X54056Y61243D01*
X54057Y61234D01*
X54028Y61205D01*
X55773Y60038D01*
X57845Y59626D01*
Y59676D01*
X76685D01*
X77058Y59750D01*
X81685D01*
Y69750D01*
Y80250D01*
X77058D01*
X76685Y80324D01*
X72799D01*
X72579Y80415D01*
X69510Y83484D01*
Y96335D01*
X70848D01*
Y95295D01*
X73904D01*
Y91896D01*
X73904Y91896D01*
X74119Y90815D01*
X74731Y89899D01*
X75110Y89520D01*
X84097D01*
X83675Y90539D01*
X82538Y91675D01*
X81054Y92290D01*
X80329D01*
X79553Y93066D01*
Y95295D01*
X82609D01*
Y99928D01*
X76729D01*
Y102468D01*
X82609D01*
Y107100D01*
X81194D01*
Y111360D01*
X84640D01*
Y113505D01*
X85000Y114676D01*
X86081Y114891D01*
X86940Y115465D01*
X87499Y115351D01*
X88210Y115056D01*
Y110210D01*
X89250D01*
Y94250D01*
X104756D01*
X113643Y85363D01*
Y83538D01*
X112467D01*
Y82854D01*
X111559Y81966D01*
X106081Y82090D01*
X105599Y82289D01*
X104406D01*
X103303Y81832D01*
X102459Y80988D01*
X102003Y79886D01*
Y79411D01*
X100813Y78595D01*
X100276Y78788D01*
X98520Y79962D01*
X96448Y80374D01*
Y80324D01*
X90685D01*
X90311Y80250D01*
X85685D01*
Y74750D01*
Y65250D01*
X85185D01*
Y59750D01*
X86967D01*
X87236Y58480D01*
X80955Y52199D01*
X59625D01*
X59625Y52199D01*
X58544Y51984D01*
X57628Y51372D01*
X57628Y51372D01*
X42225Y35969D01*
X41801Y35793D01*
X40957Y34949D01*
X40500Y33847D01*
Y32653D01*
X40957Y31551D01*
X41801Y30707D01*
X42903Y30250D01*
X44097D01*
X45199Y30707D01*
X46043Y31551D01*
X46219Y31975D01*
X60795Y46551D01*
X82125D01*
X82125Y46551D01*
X83206Y46766D01*
X84122Y47378D01*
X92247Y55503D01*
X92247Y55503D01*
X92859Y56419D01*
X93074Y57500D01*
Y59750D01*
X95685D01*
Y60514D01*
X96858Y61000D01*
X103851Y54007D01*
X104665Y53079D01*
X104676Y51871D01*
Y43773D01*
X98719D01*
Y33824D01*
X87281D01*
Y43773D01*
X68719D01*
Y41483D01*
X67449Y41230D01*
X67425Y41288D01*
X66288Y42425D01*
X65270Y42847D01*
Y39000D01*
Y35153D01*
X66288Y35575D01*
X67425Y36711D01*
X67449Y36770D01*
X68719Y36517D01*
Y32824D01*
X66052D01*
Y32874D01*
X63980Y32462D01*
X63250Y31974D01*
X62239Y31298D01*
X62264Y31258D01*
X61922Y30916D01*
X56929Y25923D01*
X55755Y26409D01*
Y26960D01*
X40755D01*
Y15898D01*
X39582Y15412D01*
X34997Y19997D01*
X34081Y20609D01*
X33000Y20824D01*
X33000Y20824D01*
X27755D01*
Y26960D01*
X12755D01*
Y21824D01*
X11021D01*
X10597Y22000D01*
X9403D01*
X8301Y21543D01*
X7457Y20699D01*
X7000Y19597D01*
Y18403D01*
X7457Y17301D01*
X8301Y16457D01*
X9403Y16000D01*
X10597D01*
X11021Y16176D01*
X12755D01*
Y11960D01*
X27755D01*
Y15176D01*
X31830D01*
X42736Y4270D01*
X42210Y3000D01*
X3000D01*
Y37000D01*
X24079D01*
Y45985D01*
X29069D01*
Y44500D01*
X48069D01*
Y68500D01*
X29069D01*
Y51634D01*
X24079D01*
Y59000D01*
X15904D01*
Y64500D01*
X24079D01*
Y75019D01*
X24679Y75302D01*
X25349Y75408D01*
X26051Y74707D01*
X26687Y74443D01*
X27897Y73233D01*
X27897Y73233D01*
X28814Y72621D01*
X29894Y72406D01*
X29895Y72406D01*
X31579D01*
Y71000D01*
X48079D01*
Y77500D01*
Y84028D01*
X48484D01*
X48861Y84103D01*
X54000D01*
X55329Y84368D01*
X56455Y85120D01*
X57207Y86246D01*
X57472Y87575D01*
X57207Y88904D01*
X56495Y89970D01*
X56327Y90315D01*
Y91185D01*
X56495Y91530D01*
X57207Y92596D01*
X57472Y93925D01*
X57207Y95254D01*
X56455Y96380D01*
X55752Y96850D01*
X55679Y96996D01*
X55550Y98123D01*
X55603Y98360D01*
X56043Y98801D01*
X56500Y99903D01*
Y101097D01*
X56043Y102199D01*
X55199Y103043D01*
X54097Y103500D01*
X52903D01*
X52479Y103324D01*
X48079D01*
Y104000D01*
X31579D01*
Y97000D01*
Y90500D01*
Y79518D01*
X30501Y78872D01*
X30293Y78949D01*
X29449Y79793D01*
X28347Y80250D01*
X27153D01*
X26051Y79793D01*
X25349Y79092D01*
X24679Y79198D01*
X24079Y79481D01*
Y86500D01*
X15904D01*
Y88500D01*
X24079D01*
Y110500D01*
X15904D01*
Y116000D01*
X24079D01*
Y124176D01*
X29069D01*
Y106500D01*
X48069D01*
Y130500D01*
X43790D01*
X43264Y131770D01*
X46170Y134676D01*
X65000D01*
X65000Y134676D01*
X66081Y134891D01*
X66997Y135503D01*
X74497Y143003D01*
X75109Y143919D01*
X75324Y145000D01*
X75324Y145000D01*
Y146250D01*
X76750D01*
Y147926D01*
X94022D01*
X94594Y146733D01*
D02*
G37*
G36*
X231474Y97702D02*
X231474Y97702D01*
X243555D01*
X244453Y96804D01*
X244453Y95526D01*
X244453D01*
Y95526D01*
X244453D01*
Y93350D01*
X242768D01*
X241631Y94488D01*
X241543Y94699D01*
X240699Y95543D01*
X239597Y96000D01*
X238403D01*
X237301Y95543D01*
X236457Y94699D01*
X236000Y93597D01*
Y92403D01*
X236457Y91301D01*
X237301Y90457D01*
X237937Y90193D01*
X239601Y88529D01*
X239601Y88529D01*
X240518Y87917D01*
X241598Y87702D01*
X241599Y87702D01*
X244453D01*
Y85526D01*
X258000D01*
Y77566D01*
X253723D01*
Y69276D01*
X251183D01*
Y77566D01*
X243723D01*
Y69276D01*
Y60986D01*
X249424D01*
Y58751D01*
X249424Y58751D01*
X249639Y57670D01*
X250252Y56754D01*
X258003Y49003D01*
X258003Y49003D01*
X258919Y48391D01*
X260000Y48176D01*
X260000Y48176D01*
X268830D01*
X270779Y46227D01*
X271123Y45368D01*
X270592Y44098D01*
X264684D01*
Y36374D01*
X266145D01*
Y25072D01*
X265101D01*
Y23929D01*
X256000D01*
Y25500D01*
X249000D01*
Y20043D01*
X248946Y19770D01*
X248946Y19770D01*
Y18248D01*
X248226Y17684D01*
X247000Y18231D01*
Y25500D01*
X246948D01*
X246764Y26770D01*
X255308Y35314D01*
X255308Y35314D01*
X255921Y36231D01*
X256136Y37311D01*
Y39986D01*
X257311D01*
Y47486D01*
X248636D01*
Y50188D01*
X248636Y50189D01*
X248421Y51269D01*
X247808Y52186D01*
X247808Y52186D01*
X243997Y55997D01*
X243081Y56609D01*
X242000Y56824D01*
X242000Y56824D01*
X241766D01*
X241342Y57000D01*
X240148D01*
X239046Y56543D01*
X238202Y55699D01*
X237745Y54597D01*
Y53403D01*
X238202Y52301D01*
X239046Y51457D01*
X240148Y51000D01*
X241006D01*
X242987Y49019D01*
Y47486D01*
X241811D01*
Y39986D01*
X250487D01*
Y38481D01*
X241813Y29807D01*
X241201Y28891D01*
X240986Y27810D01*
X240986Y27810D01*
Y25500D01*
X240000D01*
Y16824D01*
X229170D01*
X227356Y18638D01*
Y22236D01*
X228282D01*
Y23162D01*
X230986D01*
X230986Y23162D01*
X232067Y23377D01*
X232983Y23989D01*
X235275Y26281D01*
X235699Y26457D01*
X236543Y27301D01*
X237000Y28403D01*
Y29597D01*
X236543Y30699D01*
X235699Y31543D01*
X235117Y31785D01*
X235044Y32061D01*
X235174Y33135D01*
X235949Y33457D01*
X236793Y34301D01*
X237250Y35403D01*
Y36597D01*
X236793Y37699D01*
X235949Y38543D01*
X234847Y39000D01*
X233653D01*
X232551Y38543D01*
X232424Y38416D01*
X228282D01*
Y39236D01*
X220782D01*
Y31736D01*
X228282D01*
Y32768D01*
X231938D01*
X232243Y31738D01*
X232255Y31498D01*
X231457Y30699D01*
X231281Y30275D01*
X229816Y28810D01*
X228282D01*
Y29736D01*
X220782D01*
Y22236D01*
X221708D01*
Y17468D01*
X221708Y17468D01*
X221923Y16387D01*
X222535Y15471D01*
X226003Y12003D01*
X226003Y12003D01*
X226919Y11391D01*
X228000Y11176D01*
X249000D01*
X249000Y11176D01*
X250081Y11391D01*
X250997Y12003D01*
X253767Y14773D01*
X254379Y15689D01*
X254541Y16500D01*
X256000D01*
Y18281D01*
X265101D01*
Y17348D01*
X271632D01*
Y16308D01*
X272206D01*
X272398Y16020D01*
X281102D01*
X281294Y16308D01*
X281866D01*
Y19940D01*
X276749D01*
Y22480D01*
X281866D01*
Y26112D01*
X279365D01*
Y35334D01*
X281449D01*
Y38966D01*
X276332D01*
Y41506D01*
X281449D01*
Y45138D01*
X278916D01*
X278824Y45250D01*
X278609Y46331D01*
X277997Y47247D01*
X275824Y49420D01*
Y56111D01*
X276425Y56712D01*
X276847Y57730D01*
X273000D01*
Y60270D01*
X276847D01*
X276656Y60730D01*
X277373Y62000D01*
X297000D01*
Y3000D01*
X119790D01*
X119264Y4270D01*
X125170Y10176D01*
X149554D01*
X150260Y9120D01*
X150250Y9097D01*
Y7903D01*
X150707Y6801D01*
X151551Y5957D01*
X152653Y5500D01*
X153847D01*
X154949Y5957D01*
X155793Y6801D01*
X156250Y7903D01*
Y9097D01*
X156241Y9120D01*
X156946Y10176D01*
X168000D01*
X168000Y10176D01*
X169081Y10391D01*
X169997Y11003D01*
X172997Y14003D01*
X172997Y14003D01*
X173609Y14919D01*
X173824Y16000D01*
X175048Y16138D01*
X175362D01*
Y17176D01*
X179000D01*
X179000Y17176D01*
X180081Y17391D01*
X180997Y18003D01*
X183420Y20426D01*
X185000D01*
Y18500D01*
X195000D01*
Y28000D01*
X185000D01*
Y27089D01*
X184089Y26204D01*
X183730Y26215D01*
X182976Y27344D01*
X183000Y27403D01*
Y28597D01*
X182824Y29021D01*
Y33046D01*
X182824Y33047D01*
X182609Y34127D01*
X181997Y35044D01*
X180802Y36238D01*
X181288Y37412D01*
X185000D01*
Y32000D01*
X195000D01*
Y32176D01*
X211282D01*
Y31736D01*
X218782D01*
Y39236D01*
X211282D01*
Y37824D01*
X195000D01*
Y41167D01*
X195699Y41457D01*
X196543Y42301D01*
X197000Y43403D01*
Y44597D01*
X196543Y45699D01*
X195699Y46543D01*
X195275Y46719D01*
X194849Y47145D01*
X194917Y47827D01*
X195403Y49000D01*
X196597D01*
X197699Y49457D01*
X198543Y50301D01*
X199000Y51403D01*
Y52597D01*
X198543Y53699D01*
X197699Y54543D01*
X196597Y55000D01*
X195403D01*
X195364Y54984D01*
X194094Y55833D01*
Y57242D01*
X194094Y57242D01*
X193879Y58323D01*
X193267Y59239D01*
X193267Y59239D01*
X191750Y60756D01*
X192004Y61700D01*
X192233Y62026D01*
X197453Y62026D01*
X198723Y62026D01*
X209629D01*
Y54873D01*
X203580Y48824D01*
X202521D01*
X202097Y49000D01*
X200903D01*
X199801Y48543D01*
X198957Y47699D01*
X198500Y46597D01*
Y45403D01*
X198957Y44301D01*
X199801Y43457D01*
X200903Y43000D01*
X202097D01*
X202521Y43176D01*
X204750D01*
X204750Y43176D01*
X205831Y43391D01*
X206747Y44003D01*
X214450Y51706D01*
X214450Y51706D01*
X215062Y52622D01*
X215277Y53703D01*
Y61128D01*
X216175Y62026D01*
X217453Y62026D01*
X218723Y62026D01*
X226183D01*
X227453Y62026D01*
X228723Y62026D01*
X236413D01*
Y60986D01*
X241183D01*
Y69276D01*
Y77566D01*
X238032D01*
X236953Y78026D01*
X236953Y78836D01*
Y88026D01*
X230869D01*
X229703Y88276D01*
X229703Y89296D01*
Y96858D01*
X229827Y97049D01*
X230973Y97801D01*
X231474Y97702D01*
D02*
G37*
G36*
X105503Y65503D02*
X112414Y58592D01*
X113330Y57980D01*
X114411Y57765D01*
X114992Y56742D01*
Y56138D01*
X124176D01*
Y53000D01*
X124176Y53000D01*
X124391Y51919D01*
X125003Y51003D01*
X125003Y51003D01*
X131989Y44017D01*
X131989Y44017D01*
X131994Y44012D01*
X131970Y43971D01*
X133710Y42808D01*
X135782Y42396D01*
Y42446D01*
X152436D01*
X152553Y42270D01*
X156905D01*
Y41000D01*
X158175D01*
Y37153D01*
X159193Y37575D01*
X159678Y38060D01*
X160948Y37534D01*
Y36374D01*
X161083D01*
Y23862D01*
X159638D01*
Y23324D01*
X140000D01*
Y25000D01*
X132000D01*
Y24824D01*
X118372D01*
X117281Y25258D01*
Y26227D01*
X117281D01*
Y28176D01*
X132000D01*
Y27000D01*
X140000D01*
Y35000D01*
X132000D01*
Y33824D01*
X117281D01*
Y43773D01*
X110324D01*
Y53300D01*
X110374D01*
X109962Y55372D01*
X109464Y56118D01*
X109387Y56233D01*
X109240Y56535D01*
X108788Y57129D01*
X108753Y57093D01*
X97083Y68763D01*
X97083Y68763D01*
X97081Y68784D01*
X97102Y68806D01*
X95685Y69753D01*
Y73525D01*
X96955Y74051D01*
X105503Y65503D01*
D02*
G37*
%LPC*%
G36*
X206270Y167577D02*
Y165000D01*
X208847D01*
X208425Y166018D01*
X207288Y167155D01*
X206270Y167577D01*
D02*
G37*
G36*
X203730D02*
X202712Y167155D01*
X201575Y166018D01*
X201153Y165000D01*
X203730D01*
Y167577D01*
D02*
G37*
G36*
X148097Y166730D02*
X146903D01*
X145801Y166273D01*
X144957Y165429D01*
X144500Y164327D01*
Y163133D01*
X144957Y162031D01*
X145801Y161187D01*
X146903Y160730D01*
X148097D01*
X149199Y161187D01*
X150043Y162031D01*
X150500Y163133D01*
Y164327D01*
X150043Y165429D01*
X149199Y166273D01*
X148097Y166730D01*
D02*
G37*
G36*
X53867Y133000D02*
X52673D01*
X51571Y132543D01*
X50727Y131699D01*
X50270Y130597D01*
Y129403D01*
X50727Y128301D01*
X51571Y127457D01*
X52673Y127000D01*
X53867D01*
X54969Y127457D01*
X55813Y128301D01*
X56270Y129403D01*
Y130597D01*
X55813Y131699D01*
X54969Y132543D01*
X53867Y133000D01*
D02*
G37*
G36*
X84097Y86980D02*
X81520D01*
Y84403D01*
X82538Y84825D01*
X83675Y85962D01*
X84097Y86980D01*
D02*
G37*
G36*
X78980D02*
X76403D01*
X76825Y85962D01*
X77962Y84825D01*
X78980Y84403D01*
Y86980D01*
D02*
G37*
G36*
X62730Y42847D02*
X61712Y42425D01*
X60575Y41288D01*
X60153Y40270D01*
X62730D01*
Y42847D01*
D02*
G37*
G36*
Y37730D02*
X60153D01*
X60575Y36711D01*
X61712Y35575D01*
X62730Y35153D01*
Y37730D01*
D02*
G37*
G36*
X218782Y29736D02*
X211282D01*
Y22236D01*
X218782D01*
Y29736D01*
D02*
G37*
G36*
X280597Y13480D02*
X278020D01*
Y10903D01*
X279039Y11325D01*
X280175Y12462D01*
X280597Y13480D01*
D02*
G37*
G36*
X275480D02*
X272903D01*
X273325Y12462D01*
X274461Y11325D01*
X275480Y10903D01*
Y13480D01*
D02*
G37*
G36*
X117597Y53000D02*
X116403D01*
X115301Y52543D01*
X114457Y51699D01*
X114000Y50597D01*
Y49403D01*
X114457Y48301D01*
X115301Y47457D01*
X116403Y47000D01*
X117597D01*
X118699Y47457D01*
X119543Y48301D01*
X120000Y49403D01*
Y50597D01*
X119543Y51699D01*
X118699Y52543D01*
X117597Y53000D01*
D02*
G37*
G36*
X155635Y39730D02*
X153058D01*
X153480Y38712D01*
X154616Y37575D01*
X155635Y37153D01*
Y39730D01*
D02*
G37*
%LPD*%
D14*
X133992Y46008D02*
G03*
X135782Y45270I1790J1802D01*
G01*
X133991Y46009D02*
G03*
X133992Y46008I1785J1807D01*
G01*
X104772Y160000D02*
G03*
X102980Y159260I0J-2540D01*
G01*
X56053Y63240D02*
G03*
X57845Y62500I1792J1800D01*
G01*
X61815Y68225D02*
G03*
X63592Y67500I1777J1815D01*
G01*
X61808Y68232D02*
G03*
X61782Y68256I-1756J-1835D01*
G01*
X113869Y79089D02*
G03*
X113927Y79088I57J2539D01*
G01*
X95086Y66766D02*
G03*
X93311Y67500I-1786J-1806D01*
G01*
X106989Y54828D02*
G03*
X106756Y55096I-2029J-1528D01*
G01*
X107500Y53300D02*
G03*
X106992Y54824I-2540J0D01*
G01*
X98244Y76756D02*
G03*
X96448Y77500I-1796J-1796D01*
G01*
X70762Y78238D02*
G03*
X72552Y77500I1790J1802D01*
G01*
X70761Y78239D02*
G03*
X70762Y78238I1785J1807D01*
G01*
X53408Y19460D02*
G03*
X55200Y20200I0J2540D01*
G01*
X64262Y29262D02*
G03*
X64261Y29261I1786J-1806D01*
G01*
X64528Y29492D02*
G03*
X64262Y29262I1524J-2032D01*
G01*
X66052Y30000D02*
G03*
X64528Y29492I0J-2540D01*
G01*
X198953Y83026D02*
X198974D01*
X240745Y54000D02*
X242000D01*
X245811Y50189D01*
Y43736D02*
Y50189D01*
X252249Y58751D02*
X260000Y51000D01*
X270000D01*
X234125Y36000D02*
X234250D01*
X233718Y35592D02*
X234125Y36000D01*
X225512Y35592D02*
X233718D01*
X216088Y87891D02*
X220953Y83026D01*
X216088Y87891D02*
Y92912D01*
X216000Y93000D02*
X216088Y92912D01*
X191270Y46730D02*
X194000Y44000D01*
X191270Y46730D02*
Y57242D01*
X189512Y59000D02*
X191270Y57242D01*
X184488Y59000D02*
X189512D01*
X183000Y60488D02*
X184488Y59000D01*
X183000Y60488D02*
Y68729D01*
X182453Y69276D02*
X183000Y68729D01*
X176081Y82154D02*
X176953Y83026D01*
X166838Y82154D02*
X176081D01*
X166750Y82066D02*
X166838Y82154D01*
X224703Y104297D02*
Y104776D01*
Y116276D02*
X226828Y118401D01*
X172453Y60453D02*
Y69276D01*
X239650Y130526D02*
X251703D01*
X213203Y116203D02*
Y116276D01*
X187953Y130953D02*
Y138026D01*
X193088Y132161D02*
X198953Y138026D01*
X193088Y128088D02*
Y132161D01*
X209977Y83049D02*
Y93226D01*
X210000Y93250D01*
X262477Y154097D02*
Y164977D01*
X262500Y165000D01*
X201703Y104776D02*
X201927Y105000D01*
X192453Y151776D02*
Y161547D01*
X222453Y151776D02*
Y161547D01*
X190000Y104000D02*
X190776Y104776D01*
X160224Y90526D02*
X163203D01*
X241598D02*
X251703D01*
X165474Y130526D02*
X166500Y129500D01*
X163203Y130526D02*
X165474D01*
X287026Y154026D02*
X288000Y155000D01*
X252249Y58751D02*
Y67961D01*
X212453Y53703D02*
Y69276D01*
X251401Y118401D02*
X253000Y120000D01*
X224703Y93276D02*
Y104000D01*
Y104297D02*
X225000Y104000D01*
X201703Y93276D02*
Y103703D01*
X202000Y104000D01*
X201703Y127776D02*
X224000D01*
X201703Y116276D02*
X213203D01*
X201703Y104776D02*
X213203D01*
X254000Y100000D02*
X260965D01*
X213203Y104776D02*
X224703D01*
X262453Y154026D02*
X287026D01*
X262453Y122453D02*
Y154026D01*
X254000Y120000D02*
X254965Y120965D01*
X260965D01*
X224703Y104776D02*
Y116276D01*
X190203D02*
X201703D01*
X231474Y100526D02*
X251703D01*
X224703Y116276D02*
Y127297D01*
X201000Y105000D02*
X201927D01*
X213203Y116276D02*
X224724D01*
X263974Y67026D02*
X287953D01*
X209953Y83026D02*
X209977Y83049D01*
X262453Y154026D02*
X262500Y154073D01*
X262477Y154097D02*
X262500Y154073D01*
X224000Y128000D02*
X224703Y127297D01*
X262974Y67026D02*
X263000Y67000D01*
X242783Y68000D02*
X252000D01*
X190776Y104776D02*
X201000D01*
X227000Y105000D02*
X231474Y100526D01*
X260965Y120965D02*
X262453Y122453D01*
Y68000D02*
Y98512D01*
X260965Y100000D02*
X262453Y98512D01*
X204750Y46000D02*
X212453Y53703D01*
X201500Y46000D02*
X204750D01*
X270000Y51000D02*
X272875Y48125D01*
X213000Y116000D02*
X213203Y116203D01*
X239125Y93000D02*
X241598Y90526D01*
X239000Y93000D02*
X239125D01*
X220000Y164000D02*
X222453Y161547D01*
X190000Y164000D02*
X192453Y161547D01*
X193000Y128000D02*
X193088Y128088D01*
X185069Y128069D02*
X187953Y130953D01*
X184548Y128069D02*
X185069D01*
X184460Y127981D02*
X184548Y128069D01*
X237125Y128000D02*
X239650Y130526D01*
X237000Y128000D02*
X237125D01*
X172453Y60453D02*
X180906Y52000D01*
X187000D01*
X161757Y64796D02*
X162453Y69276D01*
X161757Y58731D02*
Y64796D01*
X160269Y57243D02*
X161757Y58731D01*
X142243Y57243D02*
X160269D01*
X137000Y52000D02*
X142243Y57243D01*
X189000Y36000D02*
Y37500D01*
X186264Y40236D02*
X189000Y37500D01*
X192500Y35000D02*
X214546D01*
X215032Y35486D01*
X180000Y28000D02*
Y33047D01*
X172811Y40236D02*
X180000Y33047D01*
X172596Y40236D02*
X186264D01*
X172596D02*
X172811D01*
X59625Y49375D02*
X82125D01*
X43500Y33250D02*
X59625Y49375D01*
X82125D02*
X90250Y57500D01*
Y62480D01*
X89750D02*
X90250D01*
X89750D02*
X89770Y62500D01*
X90435D01*
X108000Y16484D02*
X113516Y22000D01*
X136000Y21000D02*
X136500Y20500D01*
X113516Y22000D02*
X136000D01*
X136500Y20500D02*
X163714D01*
Y20000D02*
X163908D01*
X127000Y53000D02*
Y60000D01*
Y53000D02*
X133986Y46014D01*
X126640Y60000D02*
X137000D01*
X163242Y45270D02*
X165025Y43487D01*
X135782Y45270D02*
X163242D01*
X133986Y46014D02*
X133991Y46009D01*
X63739Y125557D02*
Y125807D01*
X70003Y132070D02*
X99891D01*
X63739Y125807D02*
X70003Y132070D01*
X120000Y92000D02*
X120088Y92088D01*
X124049D01*
X99891Y132070D02*
X101426Y130535D01*
X28000Y148000D02*
X35000Y155000D01*
X48250D02*
X59865D01*
X35000D02*
X48250D01*
X64115Y159250D02*
X72750D01*
X59865Y155000D02*
X64115Y159250D01*
X72750D02*
X73000Y159000D01*
X124049Y92088D02*
X127000Y95039D01*
Y102000D01*
X126000D02*
X127019Y103019D01*
Y106981D01*
X128270Y108231D01*
X127000Y121000D02*
Y124640D01*
X128270Y108231D02*
Y119730D01*
X127000Y121000D02*
X128270Y119730D01*
X124465Y130535D02*
X126000Y129000D01*
X101426Y130535D02*
X124465D01*
X126640Y125000D02*
X127000Y124640D01*
X126000Y124000D02*
Y129000D01*
X163908Y20000D02*
Y39144D01*
X165000Y40236D01*
X165025D01*
Y43487D01*
X224532Y17468D02*
Y25986D01*
X228000Y14000D02*
X249000D01*
X224532Y17468D02*
X228000Y14000D01*
X249000D02*
X251770Y16770D01*
X224532Y25986D02*
X230986D01*
X234000Y29000D01*
X251770Y16770D02*
Y19770D01*
X253000Y21000D01*
X269895Y21105D02*
X270000Y21000D01*
X268761Y40236D02*
X268969Y40028D01*
X252605Y21105D02*
X269895D01*
X268969Y21031D02*
Y40028D01*
X77984Y16500D02*
X78000Y16484D01*
X108000D01*
X66000Y16500D02*
X77984D01*
X60750Y11250D02*
X66000Y16500D01*
X27875Y77250D02*
X29894Y75230D01*
X39099D01*
X39829Y74500D01*
X27750Y77250D02*
X27875D01*
X225406Y35486D02*
X225512Y35592D01*
X224532Y35486D02*
X225406D01*
X76729Y91896D02*
Y101198D01*
Y91896D02*
X80250Y88375D01*
Y88250D02*
Y88375D01*
X76729Y101198D02*
X78370Y102839D01*
X77500Y115000D02*
X78370Y114130D01*
Y102839D02*
Y114130D01*
X113000Y103000D02*
X113088Y102912D01*
X77500Y117500D02*
X85000D01*
X87500Y120000D01*
X99000D01*
X112500D01*
X117500Y125000D01*
X113088Y102912D02*
X118384D01*
X276749Y14751D02*
Y21210D01*
Y14751D02*
X276750Y14750D01*
X276000Y40568D02*
Y45000D01*
X276541Y21459D02*
Y40028D01*
X276000Y40568D02*
X276332Y40236D01*
X273000Y48250D02*
X276000Y45250D01*
X273000Y48250D02*
Y59000D01*
X118471Y103000D02*
X119069Y102403D01*
X118384Y102912D02*
X118471Y103000D01*
X119069Y102656D02*
Y125000D01*
X137250Y123750D02*
X141971Y119029D01*
X137250Y123750D02*
Y134605D01*
X142000Y139355D01*
X116730Y5730D02*
X124000Y13000D01*
X33000Y18000D02*
X45270Y5730D01*
X116730D01*
X141971Y118990D02*
Y119029D01*
X12500Y125000D02*
X16750Y129250D01*
X40000Y120069D02*
Y132500D01*
X112592Y140290D02*
X124290D01*
X125000Y141000D01*
X104772Y160000D02*
X109000D01*
X94470Y150750D02*
X102980Y159260D01*
X72500Y150750D02*
X94470D01*
X107500Y67500D02*
X114411Y60589D01*
X118480D02*
X119069Y60000D01*
X114411Y60589D02*
X118480D01*
X19511Y19000D02*
X20255Y18255D01*
X124000Y13000D02*
X168000D01*
X20255Y18255D02*
Y19460D01*
X10000Y19000D02*
X19511D01*
X45000Y137500D02*
X65000D01*
X72500Y145000D02*
Y150000D01*
X40000Y132500D02*
X45000Y137500D01*
X13079Y127000D02*
X31839D01*
X35000Y122500D02*
X40069D01*
X65000Y137500D02*
X72500Y145000D01*
X39829Y100500D02*
X53500D01*
X63739Y111261D02*
Y118057D01*
X66000Y101000D02*
Y109000D01*
X73000Y126000D02*
X79000D01*
X71000Y124000D02*
X73000Y126000D01*
X71000Y120000D02*
Y124000D01*
X105003Y79289D02*
X113869Y79089D01*
X53793Y65500D02*
X56053Y63240D01*
X66686Y82314D02*
Y101198D01*
X31839Y48809D02*
X38569Y55539D01*
X17500Y45000D02*
X21309Y48809D01*
X31839D01*
X38569Y55539D02*
Y56500D01*
X26000Y18000D02*
X33000D01*
X168000Y13000D02*
X171000Y16000D01*
Y19714D01*
X171286Y20000D01*
X172000D02*
X179000D01*
X182250Y23250D01*
X190000D01*
X69000Y118000D02*
X71000Y120000D01*
X126000Y80767D02*
Y88000D01*
Y80767D02*
X126467Y79538D01*
X54000Y75500D02*
X61782Y68256D01*
X57845Y62500D02*
X76685D01*
X61808Y68232D02*
X61815Y68225D01*
X63592Y67500D02*
X76685D01*
X115237Y79088D02*
X116467Y79538D01*
X113927Y79088D02*
X115237D01*
X116467Y79538D02*
Y86533D01*
X102000Y101000D02*
X116467Y86533D01*
X90685Y67500D02*
X93311Y67500D01*
X95086Y66766D02*
X106756Y55096D01*
X106989Y54828D02*
X106992Y54824D01*
X107500Y37500D02*
Y53300D01*
X90685Y77500D02*
X96448D01*
X98244Y76756D02*
X107500Y67500D01*
X72552Y77500D02*
X76685D01*
X66686Y82314D02*
X70756Y78244D01*
X70761Y78239D01*
X63739Y111261D02*
X66000Y109000D01*
X64000Y118000D02*
X69000D01*
X243810Y20190D02*
X244000Y20000D01*
X243810Y20190D02*
Y27810D01*
X253311Y37311D01*
Y43736D01*
X90685Y67520D02*
Y72500D01*
X82000Y31000D02*
X134770D01*
X48255Y19460D02*
X53408D01*
X55200Y20200D02*
X64261Y29261D01*
X66052Y30000D02*
X71489D01*
X80000Y32500D01*
X80250Y32750D02*
X82000Y31000D01*
X135000Y30000D02*
Y30770D01*
X134770Y31000D02*
X135000Y30770D01*
X40000Y120069D02*
X40069Y120000D01*
X38569Y118500D02*
X40069Y120000D01*
X16750Y129250D02*
Y155000D01*
X13079Y99500D02*
Y125000D01*
Y75500D02*
Y99500D01*
Y46921D02*
Y75500D01*
X31839Y127000D02*
X35670Y123170D01*
X0Y0D02*
X300000D01*
X0Y175000D02*
X300000D01*
Y0D02*
Y175000D01*
X0Y0D02*
Y175000D01*
D17*
X150953Y90526D02*
D03*
Y100526D02*
D03*
Y110526D02*
D03*
Y120526D02*
D03*
Y130526D02*
D03*
Y140526D02*
D03*
Y150526D02*
D03*
Y70526D02*
D03*
Y80526D02*
D03*
D18*
X176953Y94026D02*
D03*
Y105026D02*
D03*
Y116026D02*
D03*
Y127026D02*
D03*
Y138026D02*
D03*
X209953D02*
D03*
X220953D02*
D03*
X231953D02*
D03*
Y83026D02*
D03*
X198953D02*
D03*
X201703Y93276D02*
D03*
Y104776D02*
D03*
X190203D02*
D03*
X213203D02*
D03*
X224703Y93276D02*
D03*
X262453Y67026D02*
D03*
X224703Y104776D02*
D03*
X287953Y67026D02*
D03*
X190203Y116276D02*
D03*
X201703D02*
D03*
X213203D02*
D03*
X201703Y127776D02*
D03*
X224703Y116276D02*
D03*
Y127776D02*
D03*
X262453Y154026D02*
D03*
X287953D02*
D03*
X187953Y83026D02*
D03*
X198953Y138026D02*
D03*
X220953Y83026D02*
D03*
X176953D02*
D03*
X187953Y138026D02*
D03*
X209953Y83026D02*
D03*
D19*
X163203Y100526D02*
D03*
Y110526D02*
D03*
Y120526D02*
D03*
X251703Y110526D02*
D03*
X163203Y90526D02*
D03*
Y130526D02*
D03*
X251703Y100526D02*
D03*
Y120526D02*
D03*
Y130526D02*
D03*
Y90526D02*
D03*
D20*
X162453Y151776D02*
D03*
X172453D02*
D03*
X182453D02*
D03*
X202453D02*
D03*
X212453D02*
D03*
X232453D02*
D03*
X242453D02*
D03*
X252453D02*
D03*
X232453Y69276D02*
D03*
X222453D02*
D03*
X202453D02*
D03*
X192453D02*
D03*
X212453D02*
D03*
X252453D02*
D03*
X242453D02*
D03*
X172453D02*
D03*
X162453D02*
D03*
X192453Y151776D02*
D03*
X222453D02*
D03*
X182453Y69276D02*
D03*
D21*
X245811Y43736D02*
D03*
X253311D02*
D03*
D22*
X39829Y87500D02*
D03*
Y74500D02*
D03*
Y94000D02*
D03*
Y81000D02*
D03*
Y100500D02*
D03*
D23*
X93592Y140290D02*
D03*
Y160290D02*
D03*
X112592Y140290D02*
D03*
D24*
X215032Y35486D02*
D03*
X224532Y25986D02*
D03*
Y35486D02*
D03*
X215032Y25986D02*
D03*
D25*
X190000Y36750D02*
D03*
Y23250D02*
D03*
D26*
X172596Y40236D02*
D03*
X163714Y20000D02*
D03*
X165025Y40236D02*
D03*
X126640Y60000D02*
D03*
Y102403D02*
D03*
Y125000D02*
D03*
X269178Y21210D02*
D03*
X268761Y40236D02*
D03*
X119069Y102403D02*
D03*
Y125000D02*
D03*
X276332Y40236D02*
D03*
X276749Y21210D02*
D03*
X171286Y20000D02*
D03*
X119069Y60000D02*
D03*
D27*
X78000Y16484D02*
D03*
X108000D02*
D03*
X78000Y35000D02*
D03*
X108000D02*
D03*
D28*
X136000Y21000D02*
D03*
Y31000D02*
D03*
D29*
X90435Y62500D02*
D03*
D30*
X48250Y155000D02*
D03*
X16750D02*
D03*
D31*
X72500Y159250D02*
D03*
Y150750D02*
D03*
D32*
X252500Y21000D02*
D03*
X243500D02*
D03*
D33*
X63739Y125557D02*
D03*
Y118057D02*
D03*
D34*
X76729Y101198D02*
D03*
X66686D02*
D03*
D35*
X99000Y120000D02*
D03*
Y103000D02*
D03*
D36*
X79000Y117200D02*
D03*
Y126000D02*
D03*
D37*
X110592Y160290D02*
D03*
D38*
X116467Y79538D02*
D03*
X126467D02*
D03*
D39*
X76685Y62500D02*
D03*
Y67500D02*
D03*
Y72500D02*
D03*
Y77500D02*
D03*
X90685D02*
D03*
Y72500D02*
D03*
Y67500D02*
D03*
D40*
X38569Y118500D02*
D03*
Y56500D02*
D03*
D41*
X13079Y127000D02*
D03*
Y99500D02*
D03*
Y75500D02*
D03*
Y48000D02*
D03*
D57*
X20255Y19460D02*
D03*
X48255D02*
D03*
D62*
X149358Y72121D02*
X150953Y70526D01*
X149358Y78931D02*
X150953Y80526D01*
X147356Y78931D02*
X149358D01*
X147356Y72121D02*
X149358D01*
X147126Y78701D02*
X147356Y78931D01*
X138000Y78701D02*
X147126D01*
X147126Y72351D02*
X147356Y72121D01*
X138000Y72351D02*
X147126D01*
X48484Y87500D02*
X48559Y87575D01*
X39829Y87500D02*
X48484D01*
X48559Y87575D02*
X54000D01*
X120235Y148284D02*
X126634Y154683D01*
X131663D01*
X131696Y154650D01*
X138000D01*
X138396Y154254D01*
X101086Y148284D02*
X120235D01*
X93592Y140790D02*
X101086Y148284D01*
X93592Y140290D02*
Y140790D01*
X48559Y93925D02*
X54000D01*
X48484Y94000D02*
X48559Y93925D01*
X39829Y94000D02*
X48484D01*
X134293Y161033D02*
X134326Y161000D01*
X138000D01*
X93592Y160290D02*
Y160790D01*
X101802Y169000D01*
X127967Y161033D02*
X134293D01*
X120000Y169000D02*
X127967Y161033D01*
X101802Y169000D02*
X120000D01*
D63*
X198974Y83026D02*
D03*
X240745Y54000D02*
D03*
X234250Y36000D02*
D03*
X216000Y93000D02*
D03*
X187000D02*
D03*
X194000Y44000D02*
D03*
X166750Y82066D02*
D03*
X159000Y81750D02*
D03*
X54000Y87575D02*
D03*
X138000Y78701D02*
D03*
X138396Y154254D02*
D03*
X117000Y50000D02*
D03*
X103000Y135000D02*
D03*
X210000Y93250D02*
D03*
X137000Y52000D02*
D03*
X53270Y130000D02*
D03*
X193000Y128000D02*
D03*
X10000Y144000D02*
D03*
X237000Y128000D02*
D03*
X220000Y164000D02*
D03*
X180000Y28000D02*
D03*
X38500Y142539D02*
D03*
X239000Y93000D02*
D03*
X43500Y33250D02*
D03*
X153250Y8500D02*
D03*
X137000Y60000D02*
D03*
X28000Y148000D02*
D03*
X120000Y92000D02*
D03*
X82500Y158250D02*
D03*
X160224Y90526D02*
D03*
X133000Y109000D02*
D03*
X147500Y163730D02*
D03*
X201927Y105000D02*
D03*
X224703Y104297D02*
D03*
X234000Y29000D02*
D03*
X262974Y67026D02*
D03*
X213203Y116203D02*
D03*
X166500Y129500D02*
D03*
X201776Y127776D02*
D03*
X262500Y165000D02*
D03*
X60750Y11250D02*
D03*
X27750Y77250D02*
D03*
X201500Y46000D02*
D03*
X184460Y127981D02*
D03*
X190000Y164000D02*
D03*
X125000Y17730D02*
D03*
X64000Y39000D02*
D03*
X80250Y88250D02*
D03*
X156905Y41000D02*
D03*
X113000Y103000D02*
D03*
X170000Y27000D02*
D03*
X276750Y14750D02*
D03*
X273000Y59000D02*
D03*
X205000Y163730D02*
D03*
X131750Y130500D02*
D03*
X54000Y93925D02*
D03*
X138000Y72351D02*
D03*
Y161000D02*
D03*
X142000Y128000D02*
D03*
Y139355D02*
D03*
X123339Y109250D02*
D03*
X187000Y52000D02*
D03*
X142000Y105000D02*
D03*
X10000Y19000D02*
D03*
X141971Y118990D02*
D03*
X125000Y141000D02*
D03*
X53500Y100500D02*
D03*
X105003Y79289D02*
D03*
X53793Y65500D02*
D03*
X126000Y88000D02*
D03*
X54000Y75500D02*
D03*
X196000Y52000D02*
D03*
M02*
