G04*
G04 #@! TF.GenerationSoftware,Altium Limited,Altium Designer,25.8.1 (18)*
G04*
G04 Layer_Color=32768*
%FSLAX44Y44*%
%MOMM*%
G71*
G04*
G04 #@! TF.SameCoordinates,21D81E98-52A8-4FCB-A247-477666DB80DC*
G04*
G04*
G04 #@! TF.FilePolarity,Positive*
G04*
G01*
G75*
%ADD10C,0.1000*%
%ADD11C,0.1270*%
%ADD12C,0.2000*%
D10*
X131500Y114750D02*
Y120250D01*
X121000Y114750D02*
Y120250D01*
X131500D01*
X121000Y114750D02*
X131500D01*
X219471Y12210D02*
X279471D01*
X219471D02*
Y97210D01*
X279471D01*
Y12210D02*
Y97210D01*
X130250Y137750D02*
X135750D01*
X130250Y148250D02*
X135750D01*
Y137750D02*
Y148250D01*
X130250Y137750D02*
Y148250D01*
X272500Y122500D02*
X282500D01*
X272500Y117500D02*
Y122500D01*
Y117500D02*
X282500D01*
Y122500D01*
X122250Y27250D02*
Y37750D01*
X127750Y27250D02*
Y37750D01*
X122250D02*
X127750D01*
X122250Y27250D02*
X127750D01*
X122250Y66000D02*
X127750D01*
X122250Y76500D02*
X127750D01*
Y66000D02*
Y76500D01*
X122250Y66000D02*
Y76500D01*
X121000Y97250D02*
X131500D01*
X121000Y102750D02*
X131500D01*
X121000Y97250D02*
Y102750D01*
X131500Y97250D02*
Y102750D01*
X162500Y117040D02*
X172500D01*
Y97040D02*
Y117040D01*
X162500Y97040D02*
X172500D01*
X162500D02*
Y117040D01*
D11*
X153700Y138700D02*
X174300D01*
Y159300D01*
X153700D02*
X174300D01*
X153700Y138700D02*
Y159300D01*
D12*
X180000Y152000D02*
G03*
X180000Y152000I-1000J0D01*
G01*
X220500Y129500D02*
Y145500D01*
Y129500D02*
X249500D01*
Y145500D01*
X220500D02*
X249500D01*
X282500Y145000D02*
Y150000D01*
X272500Y145000D02*
X282500D01*
X272500D02*
Y150000D01*
X282500D01*
X152000Y70500D02*
X183000D01*
X152000Y44500D02*
Y70500D01*
Y44500D02*
X183000D01*
Y70500D01*
X55750Y68000D02*
Y107000D01*
Y68000D02*
X104250D01*
Y107000D01*
X55750D02*
X104250D01*
X192500Y147500D02*
X197500D01*
Y137500D02*
Y147500D01*
X192500Y137500D02*
X197500D01*
X192500D02*
Y147500D01*
X59289Y11500D02*
Y38500D01*
X91290D01*
Y11500D02*
Y38500D01*
X59289Y11500D02*
X91290D01*
X145000Y15000D02*
X155000D01*
Y20000D01*
X145000D02*
X155000D01*
X145000Y15000D02*
Y20000D01*
X59289Y163571D02*
X91290D01*
X59289Y136571D02*
Y163571D01*
Y136571D02*
X91290D01*
Y163571D01*
X17500Y20000D02*
X27500D01*
X17500Y15000D02*
Y20000D01*
Y15000D02*
X27500D01*
Y20000D01*
X17742Y155790D02*
X27741D01*
Y160790D01*
X17742D02*
X27741D01*
X17742Y155790D02*
Y160790D01*
M02*
