G04*
G04 #@! TF.GenerationSoftware,Altium Limited,Altium Designer,25.8.1 (18)*
G04*
G04 Layer_Color=128*
%FSLAX44Y44*%
%MOMM*%
G71*
G04*
G04 #@! TF.SameCoordinates,21D81E98-52A8-4FCB-A247-477666DB80DC*
G04*
G04*
G04 #@! TF.FilePolarity,Positive*
G04*
G01*
G75*
%ADD11C,0.1270*%
D11*
X198224Y83026D02*
X199724D01*
X198974Y82276D02*
Y83776D01*
X239995Y54000D02*
X241495D01*
X240745Y53250D02*
Y54750D01*
X233500Y36000D02*
X235000D01*
X234250Y35250D02*
Y36750D01*
X215250Y93000D02*
X216750D01*
X216000Y92250D02*
Y93750D01*
X186250Y93000D02*
X187750D01*
X187000Y92250D02*
Y93750D01*
X193250Y44000D02*
X194750D01*
X194000Y43250D02*
Y44750D01*
X166000Y82066D02*
X167500D01*
X166750Y81316D02*
Y82816D01*
X158250Y81750D02*
X159750D01*
X159000Y81000D02*
Y82500D01*
X53250Y87575D02*
X54750D01*
X54000Y86825D02*
Y88325D01*
X137250Y78701D02*
X138750D01*
X138000Y77951D02*
Y79451D01*
X137646Y154254D02*
X139146D01*
X138396Y153504D02*
Y155004D01*
X116250Y50000D02*
X117750D01*
X117000Y49250D02*
Y50750D01*
X102250Y135000D02*
X103750D01*
X103000Y134250D02*
Y135750D01*
X209250Y93250D02*
X210750D01*
X210000Y92500D02*
Y94000D01*
X136250Y52000D02*
X137750D01*
X137000Y51250D02*
Y52750D01*
X52520Y130000D02*
X54020D01*
X53270Y129250D02*
Y130750D01*
X192250Y128000D02*
X193750D01*
X193000Y127250D02*
Y128750D01*
X9250Y144000D02*
X10750D01*
X10000Y143250D02*
Y144750D01*
X236250Y128000D02*
X237750D01*
X237000Y127250D02*
Y128750D01*
X219250Y164000D02*
X220750D01*
X220000Y163250D02*
Y164750D01*
X179250Y28000D02*
X180750D01*
X180000Y27250D02*
Y28750D01*
X37750Y142539D02*
X39250D01*
X38500Y141789D02*
Y143289D01*
X238250Y93000D02*
X239750D01*
X239000Y92250D02*
Y93750D01*
X42750Y33250D02*
X44250D01*
X43500Y32500D02*
Y34000D01*
X152500Y8500D02*
X154000D01*
X153250Y7750D02*
Y9250D01*
X136250Y60000D02*
X137750D01*
X137000Y59250D02*
Y60750D01*
X27250Y148000D02*
X28750D01*
X28000Y147250D02*
Y148750D01*
X119250Y92000D02*
X120750D01*
X120000Y91250D02*
Y92750D01*
X81750Y158250D02*
X83250D01*
X82500Y157500D02*
Y159000D01*
X159474Y90526D02*
X160974D01*
X160224Y89776D02*
Y91276D01*
X132250Y109000D02*
X133750D01*
X133000Y108250D02*
Y109750D01*
X146750Y163730D02*
X148250D01*
X147500Y162980D02*
Y164480D01*
X201177Y105000D02*
X202677D01*
X201927Y104250D02*
Y105750D01*
X223953Y104297D02*
X225453D01*
X224703Y103547D02*
Y105047D01*
X233250Y29000D02*
X234750D01*
X234000Y28250D02*
Y29750D01*
X262224Y67026D02*
X263724D01*
X262974Y66276D02*
Y67776D01*
X212453Y116203D02*
X213953D01*
X213203Y115453D02*
Y116953D01*
X165750Y129500D02*
X167250D01*
X166500Y128750D02*
Y130250D01*
X201026Y127776D02*
X202526D01*
X201776Y127026D02*
Y128526D01*
X261750Y165000D02*
X263250D01*
X262500Y164250D02*
Y165750D01*
X60000Y11250D02*
X61500D01*
X60750Y10500D02*
Y12000D01*
X27000Y77250D02*
X28500D01*
X27750Y76500D02*
Y78000D01*
X200750Y46000D02*
X202250D01*
X201500Y45250D02*
Y46750D01*
X183710Y127981D02*
X185210D01*
X184460Y127231D02*
Y128731D01*
X189250Y164000D02*
X190750D01*
X190000Y163250D02*
Y164750D01*
X124250Y17730D02*
X125750D01*
X125000Y16980D02*
Y18480D01*
X63250Y39000D02*
X64750D01*
X64000Y38250D02*
Y39750D01*
X79500Y88250D02*
X81000D01*
X80250Y87500D02*
Y89000D01*
X156155Y41000D02*
X157655D01*
X156905Y40250D02*
Y41750D01*
X112250Y103000D02*
X113750D01*
X113000Y102250D02*
Y103750D01*
X169250Y27000D02*
X170750D01*
X170000Y26250D02*
Y27750D01*
X276000Y14750D02*
X277500D01*
X276750Y14000D02*
Y15500D01*
X272250Y59000D02*
X273750D01*
X273000Y58250D02*
Y59750D01*
X204250Y163730D02*
X205750D01*
X205000Y162980D02*
Y164480D01*
X131000Y130500D02*
X132500D01*
X131750Y129750D02*
Y131250D01*
X53250Y93925D02*
X54750D01*
X54000Y93175D02*
Y94675D01*
X137250Y72351D02*
X138750D01*
X138000Y71601D02*
Y73101D01*
X137250Y161000D02*
X138750D01*
X138000Y160250D02*
Y161750D01*
X141250Y128000D02*
X142750D01*
X142000Y127250D02*
Y128750D01*
X141250Y139355D02*
X142750D01*
X142000Y138605D02*
Y140105D01*
X122589Y109250D02*
X124089D01*
X123339Y108500D02*
Y110000D01*
X186250Y52000D02*
X187750D01*
X187000Y51250D02*
Y52750D01*
X141250Y105000D02*
X142750D01*
X142000Y104250D02*
Y105750D01*
X9250Y19000D02*
X10750D01*
X10000Y18250D02*
Y19750D01*
X141221Y118990D02*
X142721D01*
X141971Y118240D02*
Y119740D01*
X124250Y141000D02*
X125750D01*
X125000Y140250D02*
Y141750D01*
X52750Y100500D02*
X54250D01*
X53500Y99750D02*
Y101250D01*
X104253Y79289D02*
X105753D01*
X105003Y78539D02*
Y80039D01*
X53043Y65500D02*
X54543D01*
X53793Y64750D02*
Y66250D01*
X125250Y88000D02*
X126750D01*
X126000Y87250D02*
Y88750D01*
X53250Y75500D02*
X54750D01*
X54000Y74750D02*
Y76250D01*
X195250Y52000D02*
X196750D01*
X196000Y51250D02*
Y52750D01*
M02*
